<svg height="450pt" viewBox="-2 0 450 450.705" width="450pt" xmlns="http://www.w3.org/2000/svg"><path d="m313.351562 289.933594c6.714844 5.890625 11.160157 13.941406 12.570313 22.761718l9.472656-4.992187 57.019531-30.757813 6.847657-3.699218c14.632812-7.90625 32.894531-2.910156 41.472656 11.339844l-134.402344 92.277343c-18.113281 8.972657-38.636719 11.871094-58.53125 8.273438l-77.6875-14.3125c-7.148437-1.789063-14.710937-.785157-21.140625 2.8125l-42.070312 26.597656-29.390625-96.417969.242187-.070312c9.066406-1.679688 17.5-5.808594 24.390625-11.941406l12.867188-11.460938c25.753906-19.371094 60.171875-22.726562 89.179687-8.699219l5.332032 2.570313c8.339843 4.039062 17.484374 6.132812 26.75 6.128906h51.6875c9.355468-.019531 18.386718 3.394531 25.390624 9.589844zm0 0" fill="#f7caa5"/><path d="m389.8125 115.234375c-.003906-8.046875 5.679688-14.972656 13.570312-16.546875 7.890626-1.570312 15.792969 2.652344 18.875 10.085938 3.082032 7.433593.480469 16.007812-6.210937 20.476562-6.6875 4.472656-15.605469 3.59375-21.292969-2.09375-3.167968-3.160156-4.945312-7.449219-4.941406-11.921875zm0 0" fill="#6fe3ff"/><path d="m386.023438 50.316406c-.003907-8.046875 5.679687-14.976562 13.570312-16.546875 7.890625-1.570312 15.792969 2.648438 18.875 10.082031 3.078125 7.433594.480469 16.007813-6.210938 20.480469-6.6875 4.46875-15.605468 3.59375-21.296874-2.097656-3.167969-3.15625-4.945313-7.445313-4.9375-11.917969zm0 0" fill="#6fe3ff"/><path d="m386.023438 180.144531c0-8.046875 5.6875-14.96875 13.578124-16.535156 7.890626-1.570313 15.789063 2.65625 18.867188 10.085937 3.078125 7.433594.476562 16.007813-6.210938 20.476563-6.691406 4.46875-15.605468 3.59375-21.296874-2.097656-3.171876-3.15625-4.949219-7.453125-4.9375-11.929688zm0 0" fill="#6fe3ff"/><path d="m392.371094 276.863281.042968.082031-57.019531 30.757813-9.472656 4.992187c-1.410156-8.820312-5.855469-16.871093-12.570313-22.761718l36.660157-19.75 9.320312-5.019532c11.53125-5.847656 26.652344.472657 33.039063 11.699219zm0 0" fill="#edb288"/><path d="m349.5625 269.34375.449219.839844-36.660157 19.75c-7.003906-6.195313-16.035156-9.609375-25.390624-9.589844h-11.457032l30.480469-16.570312c13.8125-8.007813 31.289063-5.722657 42.578125 5.570312zm0 0" fill="#edb288"/><path d="m316.453125 183.84375v12.160156c.003906 9.472656-5.324219 18.140625-13.773437 22.414063-8.453126 4.273437-18.59375 3.425781-26.21875-2.191407-6.972657 7.6875-17.957032 10.292969-27.640626 6.554688-9.679687-3.738281-16.066406-13.046875-16.066406-23.425781v-172.429688c.003906-8.78125 5.488282-16.625 13.730469-19.644531 8.246094-3.015625 17.5-.566406 23.167969 6.136719 5.671875 6.707031 6.554687 16.238281 2.210937 23.867187l.199219.359375c12.390625-6.699219 27.644531-4.929687 38.171875 4.421875 10.53125 9.355469 14.082031 24.296875 8.886719 37.386719 2.347656.675781 4.574218 1.707031 6.601562 3.0625.972656.648437 1.898438 1.367187 2.769532 2.148437 8.667968 7.800782 10.453124 20.714844 4.21875 30.570313-.097657.160156-.199219.3125-.296876.46875-1.988281 3.003906-4.632812 5.515625-7.730468 7.351563 8.199218 5 13.859375 13.28125 15.539062 22.742187.34375 1.929687.511719 3.886719.511719 5.847656-.003906 14.949219-9.910156 28.085938-24.28125 32.199219zm0 0" fill="#f8ec7d"/><path d="m122.402344 123.054688c-3.097656-1.835938-5.742188-4.347657-7.730469-7.351563-.097656-.15625-.199219-.308594-.300781-.46875-6.230469-9.855469-4.445313-22.769531 4.222656-30.570313.871094-.78125 1.796875-1.5 2.769531-2.148437 2.027344-1.355469 4.253907-2.386719 6.597657-3.0625-5.191407-13.089844-1.636719-28.03125 8.890624-37.382813 10.527344-9.355468 25.78125-11.121093 38.171876-4.425781l.199218-.359375c-4.351562-7.632812-3.472656-17.167968 2.199219-23.875 5.671875-6.707031 14.929687-9.160156 23.179687-6.140625 8.246094 3.019531 13.730469 10.871094 13.730469 19.65625v172.429688c0 10.378906-6.386719 19.6875-16.070312 23.425781-9.679688 3.738281-20.664063 1.132812-27.640625-6.554688-7.625 5.617188-17.761719 6.464844-26.214844 2.191407-8.453125-4.273438-13.777344-12.941407-13.773438-22.414063v-12.160156c-14.371093-4.113281-24.277343-17.25-24.28125-32.199219-.003906-1.960937.167969-3.917969.511719-5.847656 1.679688-9.460937 7.335938-17.742187 15.539063-22.742187zm0 0" fill="#f8ec7d"/><path d="m106.902344 400.234375 13.558594 44.46875h-93.367188l-20.742188-170.128906h62.242188l8.917969 29.242187zm-25.570313 14.699219c-.003906-6.871094-5.574219-12.441406-12.445312-12.4375-6.871094 0-12.441407 5.570312-12.445313 12.441406 0 6.871094 5.570313 12.445312 12.441406 12.449219 6.875-.003907 12.449219-5.574219 12.449219-12.453125zm0 0" fill="#e48e66"/><path d="m68.882812 402.484375c6.878907-.003906 12.457032 5.566406 12.460938 12.445313.003906 6.875-5.570312 12.453124-12.449219 12.457031-6.875 0-12.453125-5.574219-12.453125-12.453125 0-6.871094 5.570313-12.441406 12.441406-12.449219zm0 0" fill="#f8ec7d"/><path d="m61.0625 50.316406c-.003906 8.042969-5.6875 14.96875-13.578125 16.535156-7.890625 1.570313-15.789063-2.65625-18.867187-10.089843-3.078126-7.433594-.476563-16.003907 6.210937-20.472657 6.691406-4.472656 15.605469-3.59375 21.292969 2.097657 3.175781 3.15625 4.953125 7.453125 4.941406 11.929687zm0 0" fill="#6fe3ff"/><path d="m61.0625 180.144531c.003906 8.046875-5.679688 14.972657-13.570312 16.546875-7.890626 1.570313-15.792969-2.652344-18.875-10.082031-3.082032-7.433594-.480469-16.007813 6.210937-20.480469 6.6875-4.472656 15.605469-3.59375 21.292969 2.097656 3.167968 3.15625 4.945312 7.445313 4.941406 11.917969zm0 0" fill="#6fe3ff"/><path d="m57.273438 115.234375c-.003907 8.046875-5.6875 14.96875-13.578126 16.539063-7.890624 1.566406-15.792968-2.65625-18.871093-10.089844s-.476563-16.007813 6.214843-20.476563c6.6875-4.46875 15.605469-3.589843 21.292969 2.097657 3.167969 3.164062 4.945313 7.457031 4.941407 11.929687zm0 0" fill="#6fe3ff"/><g fill="#63316d"><path d="m21.136719 445.429688c.367187 3.011718 2.921875 5.273437 5.957031 5.273437h93.367188c1.902343 0 3.691406-.898437 4.824218-2.425781 1.128906-1.53125 1.472656-3.503906.917969-5.324219l-12.226563-40.09375 38.058594-24.0625c5.066406-2.800781 11.003906-3.570313 16.617188-2.15625.125.03125.25.058594.375.082031l77.707031 14.3125c21.160156 3.785156 42.976563.699219 62.261719-8.800781.253906-.125.5-.269531.734375-.429687l134.398437-92.28125c2.617188-1.792969 3.382813-5.316407 1.746094-8.035157-10.210938-17.019531-32.011719-22.984375-49.464844-13.527343l-2.140625 1.15625c-9.335937-11.199219-25.402343-15.523438-37.652343-9.308594-.042969.019531-.085938.042968-.128907.066406l-5.273437 2.84375c-13.28125-11.167969-32.128906-12.839844-47.167969-4.183594l-29.070313 15.800782h-38.699218c-8.363282-.011719-16.613282-1.902344-24.144532-5.535157l-5.324218-2.566406c-31.015625-15.09375-67.882813-11.496094-95.398438 9.304687-.132812.101563-.257812.199219-.382812.316407l-12.871094 11.457031c-4.789062 4.253906-10.441406 7.425781-16.566406 9.292969l-7.253906-23.789063c-.769532-2.527344-3.101563-4.25-5.738282-4.25h-62.246094c-1.714843 0-3.351562.734375-4.492187 2.019532-1.136719 1.289062-1.671875 3-1.460937 4.703124zm340.96875-174.945313c6.902343-3.457031 15.574219-.699219 21.199219 4.550781l-50.710938 27.359375-2.777344 1.464844c-1.585937-4.445313-3.875-8.605469-6.769531-12.332031zm-52.257813-1.4375.144532-.082031c9.121093-5.273438 20.375-5.238282 29.460937.09375l-25.460937 13.71875c-4.792969-3.476563-10.230469-5.953125-16-7.289063zm-203.714844 27.238281 12.679688-11.289062c23.917969-17.964844 55.875-21.03125 82.773438-7.945313l5.320312 2.566407c9.160156 4.417968 19.195312 6.71875 29.367188 6.730468h51.6875c15.484374.011719 28.800781 10.949219 31.828124 26.132813l-37.214843-1.683594c-13.628907-.613281-27.285157.019531-40.800781 1.890625-2.144532.269531-3.976563 1.671875-4.796876 3.667969-.824218 2-.507812 4.285156.828126 5.984375 1.332031 1.703125 3.476562 2.554687 5.613281 2.230468 12.789062-1.765624 25.714843-2.363281 38.617187-1.789062l44.097656 2c.089844 0 .183594.007812.273438.007812 3.3125 0 6-2.6875 6-6 0-.898437-.035156-1.789062-.089844-2.675781l5.925782-3.125 63.871093-34.460937c9.925781-5.375 22.222657-3.464844 30.050781 4.667968l-128.871093 88.476563c-16.875 8.214844-35.921875 10.863281-54.398438 7.5625l-77.511719-14.277344c-8.578124-2.113281-17.636718-.882812-25.339843 3.4375-.09375.054688-.1875.109375-.28125.167969l-35.414063 22.390625-25.261718-82.847656c7.785156-2.378907 14.964843-6.410157 21.046874-11.820313zm-41.984374-15.710937 37.015624 121.410156 11.199219 36.71875h-79.957031l-19.277344-158.128906zm0 0"/><path d="m68.882812 433.386719c10.191407.003906 18.457032-8.253907 18.460938-18.445313s-8.257812-18.453125-18.449219-18.457031c-10.191406 0-18.453125 8.257813-18.453125 18.449219.011719 10.183594 8.261719 18.433594 18.441406 18.453125zm0-24.902344c3.5625-.003906 6.457032 2.878906 6.460938 6.445313.003906 3.5625-2.882812 6.453124-6.449219 6.457031-3.5625 0-6.453125-2.886719-6.453125-6.453125.003906-3.554688 2.882813-6.4375 6.441406-6.449219zm0 0"/><path d="m253.152344 129.800781c.847656-.609375 1.78125-1.085937 2.773437-1.410156 3.324219-1.101563 6.980469-.414063 9.679688 1.816406s4.0625 5.691407 3.609375 9.160157c-.433594 3.289062 1.878906 6.304687 5.164062 6.738281 3.285156.433593 6.300782-1.878907 6.734375-5.164063 1.234375-9.359375-3.601562-18.476562-12.039062-22.707031-.554688-1.742187-.632813-3.601563-.21875-5.382813.335937-1.488281 1.007812-2.878906 1.964843-4.066406 1.386719-1.667968 1.765626-3.953125.992188-5.976562-.773438-2.023438-2.578125-3.472656-4.71875-3.792969-2.144531-.320313-4.292969.539063-5.625 2.25-3.34375 4.171875-5.070312 9.414063-4.855469 14.761719-3.773437.417968-7.375 1.804687-10.457031 4.023437-2.691406 1.933594-3.304688 5.683594-1.375 8.375 1.933594 2.691407 5.683594 3.308594 8.375 1.375zm0 0"/><path d="m298.710938 106.59375c2.320312 2.371094 6.117187 2.414062 8.488281.097656.902343-.894531 1.714843-1.875 2.421875-2.933594 2.976562.777344 6.058594-.820312 7.136718-3.699218 1.078126-2.882813-.195312-6.113282-2.953124-7.480469-2.804688-1.386719-4.257813-4.546875-3.488282-7.582031.554688-2.085938-.054687-4.308594-1.59375-5.824219-1.539062-1.511719-3.773437-2.082031-5.847656-1.492187-2.074219.589843-3.675781 2.253906-4.1875 4.347656-1.179688 4.570312-.566406 9.414062 1.710938 13.546875-.328126.957031-.875 1.824219-1.589844 2.539062-2.367188 2.316407-2.410156 6.113281-.097656 8.480469zm0 0"/><path d="m256.84375 68.703125c1.171875.414063 2.382812.710937 3.613281.886719.046875.878906.15625 1.753906.324219 2.621094.375 1.863281 1.035156 3.660156 1.957031 5.324218 1.605469 2.898438 5.261719 3.949219 8.160157 2.339844 2.898437-1.609375 3.945312-5.261719 2.339843-8.160156-.328125-.582032-.5625-1.210938-.695312-1.867188-.449219-2.226562.277343-4.53125 1.925781-6.097656s3.988281-2.171875 6.1875-1.609375c3.214844.8125 6.476562-1.132813 7.289062-4.34375.8125-3.214844-1.132812-6.476563-4.347656-7.289063-7.433594-1.890624-15.265625.980469-19.722656 7.222657-.996094.125-2.011719.015625-2.964844-.3125-.929687-.332031-1.773437-.875-2.464844-1.582031-2.308593-2.378907-6.105468-2.433594-8.484374-.128907-2.378907 2.308594-2.4375 6.109375-.128907 8.484375 1.96875 2.015625 4.363281 3.554688 7.011719 4.511719zm0 0"/><path d="m277.097656 167.371094c-2.019531-.316406-3.9375-1.09375-5.605468-2.269532-1.753907-1.257812-4.042969-1.480468-6.003907-.582031-1.960937.898438-3.289062 2.78125-3.476562 4.929688-.1875 2.148437.789062 4.230469 2.5625 5.457031 5.394531 3.800781 12.050781 5.355469 18.570312 4.332031.285157 2.15625.84375 4.265625 1.65625 6.277344.980469 2.421875 2.324219 4.679687 3.988281 6.691406 2.121094 2.515625 5.875 2.855469 8.410157.757813 2.535156-2.097656 2.910156-5.847656.835937-8.402344-2.824218-3.429688-3.796875-8.019531-2.605468-12.300781.007812-.027344.023437-.050781.03125-.078125.628906-2.246094 1.828124-4.289063 3.476562-5.9375 2.339844-2.34375 2.339844-6.140625 0-8.484375-2.34375-2.34375-6.144531-2.34375-8.488281 0-2.445313 2.453125-4.371094 5.378906-5.65625 8.597656-2.410157 1.078125-5.085938 1.429687-7.695313 1.011719zm0 0"/><path d="m257.863281 230.464844c7.019531-.007813 13.832031-2.386719 19.335938-6.75 4.375 2.246094 9.226562 3.414062 14.144531 3.402344 17.171875-.019532 31.089844-13.9375 31.109375-31.109376v-7.921874c14.476563-6.09375 23.996094-20.160157 24.269531-35.863282 4.816406 1.351563 8.148438 5.738282 8.160156 10.742188-.003906 12.804687 10.375 23.183594 23.179688 23.179687h2.78125c3.007812 11.070313 13.742188 18.203125 25.109375 16.6875 11.371094-1.519531 19.859375-11.214843 19.859375-22.6875 0-11.46875-8.488281-21.167969-19.859375-22.683593-11.367187-1.515626-22.101563 5.617187-25.109375 16.683593h-2.78125c-2.964844.003907-5.808594-1.175781-7.90625-3.269531-2.097656-2.097656-3.277344-4.941406-3.273438-7.910156-.015624-12.320313-9.660156-22.480469-21.964843-23.136719-2.019531-6.449219-5.664063-12.269531-10.585938-16.90625.5-.539063.984375-1.105469 1.449219-1.6875h48.847656c1.039063 3.839844 3.0625 7.34375 5.875 10.15625l.007813.007813c7.3125 7.339843 18.644531 8.851562 27.628906 3.6875 8.984375-5.164063 13.378906-15.714844 10.71875-25.730469-2.65625-10.015625-11.707031-16.996094-22.070313-17.023438-10.359374-.027343-19.449218 6.902344-22.164062 16.902344h-42.976562c1.457031-6.203125.886718-12.710937-1.625-18.570313h3.679687c12.792969-.007812 23.164063-10.375 23.179687-23.167968-.003906-2.964844 1.175782-5.8125 3.273438-7.910156 2.097656-2.09375 4.941406-3.273438 7.90625-3.269532h2.78125c2.519531 9.261719 10.558594 15.964844 20.128906 16.773438 9.566406.8125 18.617188-4.441406 22.660156-13.148438 4.046876-8.710937 2.214844-19.015625-4.578124-25.800781-8.9375-8.898437-23.386719-8.898437-32.324219 0-2.824219 2.8125-4.855469 6.324219-5.890625 10.179687h-2.777344c-12.800781-.003906-23.179688 10.371094-23.179688 23.175782-.011718 6.167968-5.011718 11.164062-11.179687 11.167968h-13.066406c-.519531-.398437-1.046875-.78125-1.582031-1.136718-.835938-.550782-1.699219-1.0625-2.589844-1.523438 3.019531-13.015625-.75-26.671875-10.019532-36.296875-9.265624-9.621093-22.769531-13.90625-35.890624-11.382812.027343-.464844.046874-.929688.046874-1.398438 0-14.871093-12.054687-26.925781-26.925781-26.925781-14.867187 0-26.921875 12.054688-26.921875 26.925781v172.429688c.019532 17.171875 13.933594 31.089843 31.109375 31.109375zm137.335938-57.992188.003906-.003906c4.242187-4.238281 11.113281-4.234375 15.351563.003906 4.234374 4.238282 4.234374 11.109375-.003907 15.347656-4.238281 4.238282-11.109375 4.238282-15.347656.003907-4.238281-4.238281-4.242187-11.109375-.003906-15.351563zm3.800781-64.925781c3.664062-3.664063 9.40625-4.230469 13.714844-1.351563 4.308594 2.878907 5.984375 8.402344 4 13.1875-1.980469 4.789063-7.066406 7.511719-12.152344 6.5-5.082031-1.007812-8.742188-5.464843-8.746094-10.648437 0-2.882813 1.140625-5.644531 3.179688-7.6875zm-3.792969-64.914063c4.242188-4.246093 11.121094-4.246093 15.363281-.003906 4.246094 4.242188 4.246094 11.125 0 15.367188-4.242187 4.242187-11.121093 4.242187-15.363281-.003906l-.007812-.007813c-4.234375-4.238281-4.234375-11.113281 0-15.351563zm-156.453125-15.707031c-.003906-6.175781 3.800782-11.714843 9.5625-13.933593 5.765625-2.21875 12.300782-.65625 16.4375 3.925781 4.140625 4.585937 5.027344 11.246093 2.234375 16.753906-.839843.527344-1.660156 1.082031-2.449219 1.671875-2.65625 1.976562-3.207031 5.734375-1.230468 8.394531 1.980468 2.65625 5.738281 3.210938 8.394531 1.230469 1.023437-.757812 2.097656-1.445312 3.21875-2.046875 4.007813-2.183594 8.503906-3.320313 13.070313-3.300781 9.101562 0 17.613281 4.503906 22.730468 12.03125 5.121094 7.523437 6.179688 17.097656 2.835938 25.5625l-.007813.015625-.007812.027343c-.492188 1.238282-1.074219 2.4375-1.746094 3.589844-1.625 2.789063-.746094 6.367188 1.984375 8.085938 2.734375 1.722656 6.339844.96875 8.152344-1.703125.152344.09375.3125.179687.460937.28125.734375.492187 1.433594 1.035156 2.089844 1.625 6.523437 5.839843 7.851563 15.550781 3.136719 22.925781l-.226563.359375c-.898437 1.335937-1.972656 2.542969-3.195312 3.589844-5.292969-2.523438-11.082031-3.835938-16.945313-3.839844-3.316406 0-6 2.683594-6 6 0 3.3125 2.683594 6 6 6 15.175782 0 27.480469 12.300781 27.480469 27.476563 0 15.179687-12.304687 27.480468-27.480469 27.480468-3.316406 0-6 2.6875-6 6 0 3.316406 2.683594 6 6 6 1.070313 0 2.136719-.054687 3.199219-.140625v5.023438c-.011719 10.546875-8.5625 19.097656-19.109375 19.109375-4.078125.011718-8.050781-1.296875-11.324219-3.726563-4.886719-3.605469-7.773437-9.3125-7.785156-15.382812 0-3.316407-2.6875-6-6-6-3.316406 0-6 2.683593-6 6 .011719 7.261719 2.558594 14.289062 7.199219 19.878906-5.910156 3.425781-13.199219 3.4375-19.121094.023437-5.917969-3.410156-9.5625-9.722656-9.5625-16.554687zm0 0"/><path d="m190.476562 116.027344c.214844-5.347656-1.511718-10.589844-4.859374-14.761719-1.328126-1.710937-3.476563-2.570313-5.621094-2.25-2.144532.320313-3.949219 1.769531-4.71875 3.792969-.773438 2.023437-.394532 4.308594.992187 5.976562.957031 1.191406 1.632813 2.585938 1.96875 4.082032.410157 1.777343.332031 3.628906-.222656 5.367187-8.441406 4.230469-13.273437 13.347656-12.042969 22.707031.4375 3.285156 3.453125 5.597656 6.738282 5.164063 3.285156-.433594 5.597656-3.449219 5.164062-6.738281-.453125-3.472657.914062-6.933594 3.613281-9.164063 2.703125-2.230469 6.359375-2.914063 9.6875-1.8125.988281.328125 1.921875.800781 2.765625 1.410156 2.691406 1.933594 6.441406 1.316407 8.375-1.375 1.933594-2.691406 1.316406-6.441406-1.375-8.375-3.082031-2.214843-6.679687-3.601562-10.453125-4.023437zm0 0"/><path d="m135.570312 90.714844c-.609374.789062-1.394531 1.429687-2.292968 1.871094-2.792969 1.34375-4.097656 4.597656-3.011719 7.5 1.085937 2.902343 4.210937 4.496093 7.199219 3.675781.707031 1.058593 1.515625 2.042969 2.421875 2.933593 2.371093 2.316407 6.167969 2.273438 8.484375-.09375 2.316406-2.371093 2.277344-6.167968-.09375-8.488281-.71875-.710937-1.261719-1.582031-1.589844-2.539062 2.277344-4.128907 2.886719-8.976563 1.710938-13.542969-.503907-2.105469-2.101563-3.777344-4.183594-4.375-2.082032-.597656-4.324219-.023438-5.867188 1.496094-1.542968 1.519531-2.144531 3.753906-1.578125 5.84375.511719 1.988281.070313 4.101562-1.199219 5.71875zm0 0"/><path d="m166.421875 62.140625c2.203125-.5625 4.539063.046875 6.1875 1.609375s2.378906 3.863281 1.929687 6.09375c-.128906.65625-.359374 1.285156-.683593 1.871094-1.609375 2.898437-.5625 6.550781 2.335937 8.160156 2.898438 1.605469 6.550782.5625 8.15625-2.335938.925782-1.667968 1.585938-3.46875 1.957032-5.335937.171874-.863281.277343-1.738281.328124-2.613281 1.238282-.179688 2.460938-.476563 3.640626-.894532 2.632812-.957031 5.019531-2.496093 6.976562-4.5 2.308594-2.378906 2.25-6.175781-.128906-8.484374-2.378906-2.308594-6.175782-2.25-8.484375.128906-.683594.699218-1.515625 1.238281-2.4375 1.566406-.960938.335938-1.988281.449219-3 .328125-4.453125-6.246094-12.285157-9.113281-19.71875-7.222656-3.214844.8125-5.160157 4.074219-4.347657 7.285156.8125 3.214844 4.074219 5.160156 7.289063 4.347656zm0 0"/><path d="m148.148438 166.246094c1.648437 1.648437 2.847656 3.695312 3.476562 5.9375.007812.03125.023438.054687.03125.082031 1.191406 4.277344.21875 8.871094-2.609375 12.296875-1.390625 1.652344-1.785156 3.917969-1.039063 5.945312.746094 2.023438 2.519532 3.492188 4.648438 3.84375 2.128906.351563 4.28125-.464843 5.640625-2.140624 1.664063-2.015626 3.011719-4.277344 3.988281-6.699219.8125-2.015625 1.371094-4.121094 1.65625-6.273438 6.515625 1.011719 13.171875-.539062 18.570313-4.332031 1.773437-1.226562 2.75-3.3125 2.5625-5.460938-.191407-2.148437-1.515625-4.027343-3.476563-4.925781-1.960937-.898437-4.253906-.679687-6.003906.582031-1.667969 1.171876-3.582031 1.949219-5.597656 2.265626-2.613282.417968-5.289063.070312-7.707032-1.007813-1.285156-3.222656-3.207031-6.144531-5.65625-8.601563-2.34375-2.34375-6.140624-2.34375-8.484374 0s-2.34375 6.144532 0 8.484376zm0 0"/><path d="m56.574219 99.0625c-8.925781-8.917969-23.394531-8.914062-32.316407.011719-8.921874 8.921875-8.921874 23.390625 0 32.3125 8.921876 8.925781 23.390626 8.929687 32.316407.011719l.007812-.007813c2.808594-2.8125 4.835938-6.316406 5.875-10.15625h48.847657c.464843.582031.941406 1.148437 1.445312 1.6875-4.917969 4.632813-8.5625 10.457031-10.585938 16.90625-12.300781.65625-21.945312 10.816406-21.960937 23.136719 0 2.964844-1.175781 5.8125-3.273437 7.90625-2.097657 2.097656-4.941407 3.277344-7.90625 3.273437h-2.777344c-1.03125-3.847656-3.0625-7.351562-5.882813-10.164062-7.3125-7.335938-18.644531-8.847657-27.628906-3.683594-8.984375 5.160156-13.378906 15.714844-10.722656 25.726563 2.660156 10.015624 11.710937 16.996093 22.074219 17.027343 10.359374.027344 19.449218-6.90625 22.160156-16.90625h2.777344c12.800781.003907 23.183593-10.375 23.179687-23.179687.007813-5.003906 3.34375-9.390625 8.160156-10.746094.273438 15.707031 9.792969 29.773438 24.269531 35.867188v7.917968c.003907 10.828125 5.632813 20.875 14.867188 26.53125 9.234375 5.652344 20.742188 6.101563 30.386719 1.183594 9.347656 7.421875 22.121093 8.84375 32.871093 3.652344s17.578126-16.078125 17.574219-28.015625v-172.429688c0-14.871093-12.054687-26.925781-26.925781-26.925781-14.867188 0-26.921875 12.054688-26.921875 26.925781 0 .46875.019531.933594.042969 1.398438-13.117188-2.519531-26.617188 1.765625-35.882813 11.386719-9.265625 9.621093-13.039062 23.277343-10.023437 36.289062-.886719.460938-1.75.96875-2.585938 1.519531-.539062.359375-1.066406.746094-1.585937 1.144531h-13.066407c-6.167968-.003906-11.167968-5-11.179687-11.167968.003906-12.804688-10.378906-23.183594-23.179687-23.179688h-2.773438c-1.03125-3.851562-3.0625-7.363281-5.886719-10.175781-8.929687-8.917969-23.394531-8.914063-32.316406.011719-8.921875 8.921875-8.921875 23.390625 0 32.3125 8.921875 8.925781 23.386719 8.929687 32.316406.011718 2.820313-2.808593 4.851563-6.316406 5.882813-10.160156h2.777344c2.964843-.003906 5.808593 1.175782 7.90625 3.269532 2.097656 2.097656 3.273437 4.945312 3.273437 7.910156.015625 12.792968 10.386719 23.15625 23.179687 23.167968h3.679688c-2.515625 5.855469-3.085938 12.367188-1.632812 18.570313h-42.972657c-1.035156-3.847656-3.0625-7.355469-5.882812-10.171875zm-8.488281 23.851562c-3.664063 3.664063-9.410157 4.226563-13.714844 1.34375-4.308594-2.882812-5.980469-8.402343-3.996094-13.191406 1.988281-4.785156 7.078125-7.503906 12.160156-6.488281 5.082032 1.011719 8.738282 5.472656 8.738282 10.65625-.003907 2.882813-1.148438 5.644531-3.1875 7.679687zm3.800781 64.914063c-3.109375 3.109375-7.78125 4.039063-11.84375 2.359375-4.0625-1.683594-6.710938-5.644531-6.710938-10.042969.007813-4.390625 2.65625-8.347656 6.714844-10.027343 4.058594-1.679688 8.726563-.753907 11.835937 2.351562l.007813.003906c4.234375 4.242188 4.234375 11.113282 0 15.355469zm0-129.84375-.007813.011719c-4.238281 4.230468-11.109375 4.226562-15.34375-.015625-4.234375-4.238281-4.230468-11.105469.007813-15.34375 4.238281-4.234375 11.105469-4.238281 15.34375 0 4.234375 4.242187 4.234375 11.109375 0 15.351562zm107.207031-18.371094c4.566406-.015625 9.066406 1.125 13.074219 3.308594 1.121093.605469 2.191406 1.289063 3.210937 2.046875 2.660156 1.921875 6.371094 1.351562 8.332032-1.28125 1.957031-2.632812 1.4375-6.351562-1.167969-8.34375-.789063-.589844-1.609375-1.144531-2.449219-1.671875-2.789062-5.507813-1.902344-12.167969 2.238281-16.75 4.136719-4.582031 10.671875-6.144531 16.433594-3.925781 5.765625 2.214844 9.566406 7.753906 9.566406 13.929687v172.429688c.003907 6.832031-3.644531 13.144531-9.5625 16.554687s-13.210937 3.402344-19.117187-.027344c4.636718-5.585937 7.183594-12.617187 7.199218-19.878906 0-3.3125-2.6875-6-6-6-3.316406 0-6 2.6875-6 6-.015624 6.078125-2.90625 11.789063-7.796874 15.394532-3.269532 2.425781-7.238282 3.726562-11.3125 3.714843-10.546876-.011719-19.097657-8.558593-19.109376-19.109375v-5.019531c1.0625.085937 2.128907.140625 3.199219.140625 3.3125 0 6-2.6875 6-6s-2.6875-6-6-6c-15.175781 0-27.480469-12.304688-27.480469-27.480469s12.304688-27.480469 27.480469-27.480469c3.3125 0 6-2.683593 6-6 0-3.3125-2.6875-6-6-6-5.863281.007813-11.652343 1.320313-16.945312 3.84375-1.222657-1.046874-2.296875-2.257812-3.195313-3.59375l-.246094-.386718c-4.699218-7.371094-3.363281-17.0625 3.148438-22.890625.660156-.59375 1.363281-1.140625 2.101562-1.632813.144532-.101562.296876-.183594.453126-.277344 1.8125 2.671876 5.417968 3.425782 8.152343 1.703126 2.730469-1.722657 3.609375-5.296876 1.984375-8.089844-.671875-1.152344-1.257812-2.355469-1.75-3.597656l-.007812-.019532v-.007812c-3.347656-8.464844-2.289063-18.039063 2.828125-25.566406 5.121093-7.53125 13.632812-12.035157 22.738281-12.035157zm0 0"/></g></svg>