<?xml version="1.0" encoding="UTF-8" standalone="no"?>
<svg
   xmlns:dc="http://purl.org/dc/elements/1.1/"
   xmlns:cc="http://creativecommons.org/ns#"
   xmlns:rdf="http://www.w3.org/1999/02/22-rdf-syntax-ns#"
   xmlns:svg="http://www.w3.org/2000/svg"
   xmlns="http://www.w3.org/2000/svg"
   xmlns:sodipodi="http://sodipodi.sourceforge.net/DTD/sodipodi-0.dtd"
   xmlns:inkscape="http://www.inkscape.org/namespaces/inkscape"
   width="560px"
   height="454px"
   viewBox="0 0 560 454"
   version="1.1"
   id="svg1243"
   sodipodi:docname="MBoro_App.svg"
   inkscape:version="1.0.2 (e86c870879, 2021-01-15)">
  <metadata
     id="metadata1249">
    <rdf:RDF>
      <cc:Work
         rdf:about="">
        <dc:format>image/svg+xml</dc:format>
        <dc:type
           rdf:resource="http://purl.org/dc/dcmitype/StillImage" />
        <dc:title>1</dc:title>
      </cc:Work>
    </rdf:RDF>
  </metadata>
  <defs
     id="defs1247" />
  <sodipodi:namedview
     pagecolor="#ffffff"
     bordercolor="#666666"
     borderopacity="1"
     objecttolerance="10"
     gridtolerance="10"
     guidetolerance="10"
     inkscape:pageopacity="0"
     inkscape:pageshadow="2"
     inkscape:window-width="1920"
     inkscape:window-height="1017"
     id="namedview1245"
     showgrid="false"
     inkscape:zoom="0.23258929"
     inkscape:cx="680.70366"
     inkscape:cy="533.47681"
     inkscape:window-x="-8"
     inkscape:window-y="-8"
     inkscape:window-maximized="1"
     inkscape:current-layer="svg1243"
     inkscape:document-rotation="0" />
  <!-- Generator: Sketch 61.2 (89653) - https://sketch.com -->
  <title
     id="title1146">1</title>
  <desc
     id="desc1148">Created with Sketch.</desc>
  <g
     id="Group_6"
     data-name="Group 6"
     transform="matrix(0.60308882,0,0,0.63462001,-103.84752,-47.14054)">
    <path
       id="Path_80"
       data-name="Path 80"
       d="M 1001.142,124.77 H 760.527 a 51.15,51.15 0 0 0 -49.9,39.9 L 589.051,703.938 a 41.34,41.34 0 0 0 38.294,50.382 L 874.7,766.507 a 54.615,54.615 0 0 0 56.43,-44.828 l 68.97,-381.267 5.131,1.466 13.2,-72.265 -5.281,-1.32 19.251,-106.426 a 31.493,31.493 0 0 0 -31.25,-37.1 z"
       transform="translate(-0.099,0.231)"
       fill="#3f3d56" />
    <path
       id="Path_81"
       data-name="Path 81"
       d="M 792.2,136.395 H 764.116 A 35.349,35.349 0 0 0 729.58,164.208 L 612.88,699.076 A 21.9,21.9 0 0 0 632.849,725.6 L 879.4,741.76 a 28.367,28.367 0 0 0 29.773,-23.277 l 99.58,-552.838 a 24.846,24.846 0 0 0 -24.452,-29.25 h -26.643 a 11.726,11.726 0 0 0 -11.323,8.677 v 0 a 10.352,10.352 0 0 1 -10,7.661 H 809.847 A 17.7,17.7 0 0 1 792.2,136.395 Z"
       transform="translate(-0.099,0.231)"
       fill="#ffffff" />
    <path
       id="Path_93"
       data-name="Path 93"
       d="m 928.494,510.313 c 0.99085,0.0341 1.85714,-0.66283 2.036,-1.638 l 54.523,-300.917 c 0.10513,-0.57876 -0.0471,-1.17461 -0.417,-1.632 -0.3667,-0.45399 0.58354,0.008 0,0 l -249.559,-3.659 h -0.023 c -0.92748,0.008 -1.72628,0.65602 -1.925,1.562 l -64.276,291.15 c -0.12708,0.57496 0.003,1.17676 0.356,1.648 0.34986,0.46767 0.8897,0.75537 1.473,0.785 z"
       transform="translate(-0.099,0.231)"
       fill="#e6e6e6"
       sodipodi:nodetypes="cccccccccccc" />
    <path
       id="Path_94"
       data-name="Path 94"
       d="m 713.229,529.535 a 1,1 0 0 0 -0.973,0.773 l -2.323,9.956 a 1,1 0 0 0 0.9,1.225 l 131.23,9.327 a 1.009,1.009 0 0 0 1.053,-0.807 l 2.234,-11.519 a 1,1 0 0 0 -0.922,-1.188 L 713.29,529.537 Z"
       transform="translate(-0.099,0.465)"
       fill="#e6e6e6" />
    <path
       id="Path_95"
       data-name="Path 95"
       d="m 872.666,587.808 a 1,1 0 0 0 1.051,-0.758 l 2.844,-11.543 a 1,1 0 0 0 -0.9,-1.237 L 708.072,562.549 a 0.989,0.989 0 0 0 -1.029,0.713 l -2.955,9.975 a 1,1 0 0 0 0.878,1.28 z"
       transform="translate(-0.099,0.454)"
       fill="#e6e6e6" />
    <path
       id="Path_96"
       data-name="Path 96"
       d="m 863.666,624.808 a 1,1 0 0 0 1.051,-0.758 l 2.844,-11.543 a 1,1 0 0 0 -0.9,-1.237 L 699.072,599.549 a 0.989,0.989 0 0 0 -1.029,0.713 l -2.955,9.975 a 1,1 0 0 0 0.878,1.28 z"
       transform="translate(-0.099,0.454)"
       fill="#e6e6e6" />
    <path
       id="Path_79"
       data-name="Path 79"
       d="m 508.877,752.008 c 0,8.369 -76.605,9.26 -170.889,15.153 -94.2,5.887 -170.889,-6.784 -170.889,-15.153 0,-8.369 77.047,-25.207 170.889,-15.153 94.284,10.102 170.889,6.784 170.889,15.153 z"
       transform="translate(64.123,3.512)"
       fill="#e6e6e6" />
    <path
       id="Path_97"
       data-name="Path 97"
       d="m 786.481,688.283 a 0.989,0.989 0 0 0 1.064,-0.754 l 6.013,-24.051 a 1,1 0 0 0 -0.886,-1.24 l -102.916,-8.656 a 1.018,1.018 0 0 0 -1.06,0.779 l -5.129,23.083 a 1,1 0 0 0 0.883,1.213 z"
       transform="translate(-0.099,0.231)"
       fill="#6c63ff" />
    <path
       id="Path_111"
       data-name="Path 111"
       d="m 315.09,570.537 a 10.743,10.743 0 0 0 1.582,-16.4 l 4.167,-93.018 -21.215,2.381 1.233,90.985 a 10.8,10.8 0 0 0 14.234,16.048 z"
       transform="translate(55.741,19.97)"
       fill="#a0616a" />
    <path
       id="Path_112"
       data-name="Path 112"
       d="m 69.534,574.966 12.075,2.123 11.934,-45.564 -15.821,-3.133 z"
       transform="translate(340,173)"
       fill="#a0616a" />
    <path
       id="Path_113"
       data-name="Path 113"
       d="m 350.232,727.314 h 38.531 V 742.2 h -23.644 a 14.887,14.887 0 0 1 -14.887,-14.887 z"
       transform="rotate(-170.029,398.24107,742.31095)"
       fill="#2f2e41" />
    <path
       id="Path_114"
       data-name="Path 114"
       d="m 36.392,581.01 h 12.26 l 5.832,-47.288 H 36.39 Z"
       transform="translate(340,173)"
       fill="#a0616a" />
    <path
       id="Path_115"
       data-name="Path 115"
       d="m 318.024,730.536 h 38.531 v 14.887 h -23.644 a 14.887,14.887 0 0 1 -14.887,-14.887 z"
       transform="rotate(179.997,365.15742,747.96706)"
       fill="#2f2e41" />
    <path
       id="Path_116"
       data-name="Path 116"
       d="m 371.8,717.09 a 4.735,4.735 0 0 1 -0.572,-0.034 l -14.43,-1.187 a 4.881,4.881 0 0 1 -4.243,-5.659 l 14.325,-70.681 -9,-47.474 a 1.627,1.627 0 0 0 -3.219,0.16 L 341.4,712.842 a 4.924,4.924 0 0 1 -5.21,4.437 l -13.595,-0.506 a 4.888,4.888 0 0 1 -4.536,-4.631 l 1.086,-145.768 70.481,-8.81 4.924,76.041 -0.02,0.081 -17.991,79.675 a 4.886,4.886 0 0 1 -4.739,3.729 z"
       transform="translate(55.741,19.97)"
       fill="#2f2e41" />
    <circle
       id="Ellipse_16"
       data-name="Ellipse 16"
       cx="24.561001"
       cy="24.561001"
       r="24.561001"
       transform="translate(373.568,371.694)"
       fill="#a0616a" />
    <path
       id="Path_117"
       data-name="Path 117"
       d="m 365.53,577.467 a 20.111,20.111 0 0 1 -10.857,-3.106 c -11.9,-7.436 -25.411,-4.481 -32.407,-2.057 a 4.88,4.88 0 0 1 -4.221,-0.481 4.811,4.811 0 0 1 -2.224,-3.552 L 303.1,454.646 c -2.132,-19.038 9.336,-36.937 27.268,-42.56 v 0 q 1.011,-0.317 2.055,-0.6 a 39.569,39.569 0 0 1 32.972,5.723 40.2,40.2 0 0 1 17.167,29.353 l 10.711,114.387 a 4.807,4.807 0 0 1 -1.527,4.007 c -3.756,3.472 -14.654,12.51 -26.216,12.511 z"
       transform="translate(55.741,19.97)"
       fill="#6c63ff" />
    <path
       id="Path_118"
       data-name="Path 118"
       d="m 326.789,479.012 -28.7,-3.156 a 5.717,5.717 0 0 1 -4.905,-7.134 l 7.306,-27.846 a 15.879,15.879 0 1 1 31.556,3.563 l 1.085,28.675 a 5.718,5.718 0 0 1 -6.338,5.9 z"
       transform="translate(55.741,19.97)"
       fill="#6c63ff" />
    <path
       id="Path_119"
       data-name="Path 119"
       d="m 393.156,566.554 a 10.743,10.743 0 0 0 -0.406,-16.468 l -7.073,-92.842 -20.789,4.68 12.2,90.414 a 10.8,10.8 0 0 0 16.064,14.216 z"
       transform="translate(55.741,19.97)"
       fill="#a0616a" />
    <path
       id="Path_120"
       data-name="Path 120"
       d="m 356.919,473.176 a 5.711,5.711 0 0 1 -1.818,-4.4 l 1.085,-28.675 a 15.878256,15.878256 0 1 1 31.556,-3.563 l 7.306,27.846 a 5.717,5.717 0 0 1 -4.905,7.134 l -28.7,3.156 a 5.711,5.711 0 0 1 -4.52,-1.5 z"
       transform="translate(55.741,19.97)"
       fill="#6c63ff" />
    <path
       id="Path_121"
       data-name="Path 121"
       d="m 340.927,401.771 a 5.683,5.683 0 0 1 -1.3,-0.151 l -0.125,-0.03 c -21.594,-3.3 -26.367,-15.812 -27.414,-21.035 -1.084,-5.408 0.15,-10.628 2.94,-12.656 -1.521,-4.8 -1.277,-9.061 0.727,-12.662 3.5,-6.28 11.081,-8.4 12.1,-8.664 6.058,-4.469 13.306,-1.486 14.625,-0.881 11.719,-4.335 16.2,-0.727 17.008,0.079 5.238,0.941 8.431,2.964 9.491,6.016 1.991,5.731 -4.305,12.86 -4.574,13.161 l -0.14,0.156 -9.38,0.447 a 6.358,6.358 0 0 0 -5.981,7.317 v 0 a 29.611,29.611 0 0 0 0.96,3.355 c 1.6,5.006 2.8,9.283 1.254,10.909 a 2.51,2.51 0 0 1 -2.625,0.455 c -1.467,-0.392 -2.462,-0.31 -2.958,0.245 -0.77,0.859 -0.535,3.035 0.662,6.125 a 5.739,5.739 0 0 1 -1.046,5.847 5.568,5.568 0 0 1 -4.226,1.967 z"
       transform="translate(55.741,19.97)"
       fill="#2f2e41" />
  </g>
  <g
     id="Symbols"
     stroke="none"
     stroke-width="1"
     fill="none"
     fill-rule="evenodd"
     transform="matrix(3.7944158,0.53863113,-0.5318659,4.1487819,344.85164,104.95222)">
    <g
       id="Component/UI/Header-Main"
       transform="translate(-171,-46)"
       fill="#000105">
      <g
         id="Middlesbrough-Logo-in-Black"
         transform="translate(171,46)">
        <polyline
           id="Fill-1"
           points="4.6989452 3.45908175 3.28215603 4.89480552 1.86478917 3.45908175 3.28215603 2.02365062 4.6989452 3.45908175" />
        <polyline
           id="Fill-2"
           points="7.17031077 3.45908175 5.7535216 4.89480552 4.33615474 3.45908175 5.7535216 2.02365062 7.17031077 3.45908175" />
        <polyline
           id="Fill-3"
           points="26.9109065 3.45908175 25.4938285 4.89480552 24.0764616 3.45908175 25.4938285 2.02365062 26.9109065 3.45908175" />
        <polyline
           id="Fill-4"
           points="29.3822721 3.45908175 27.9651941 4.89480552 26.5478272 3.45908175 27.9651941 2.02365062 29.3822721 3.45908175" />
        <polyline
           id="Fill-5"
           points="9.64167634 3.45908175 8.22488717 4.89480552 6.80723146 3.45908175 8.22488717 2.02365062 9.64167634 3.45908175" />
        <polyline
           id="Fill-6"
           points="4.6989452 6.01534901 3.28215603 7.45078014 1.86478917 6.01534901 3.28215603 4.57962523 4.6989452 6.01534901" />
        <polyline
           id="Fill-7"
           points="7.17031077 6.01534901 5.7535216 7.45078014 4.33615474 6.01534901 5.7535216 4.57962523 7.17031077 6.01534901" />
        <polyline
           id="Fill-8"
           points="9.64167634 6.01534901 8.22488717 7.45078014 6.80723146 6.01534901 8.22488717 4.57962523 9.64167634 6.01534901" />
        <g
           id="Group-13"
           transform="translate(7.221148)">
          <polyline
             id="Fill-9"
             points="4.27607479 6.01534901 3.47481625 6.82715043 2.67384655 6.01534901 3.47481625 5.20354759 4.27607479 6.01534901" />
          <polyline
             id="Fill-11"
             points="0.995074146 0.204267264 0.194104449 1.01577604 0.995074146 1.82757745 1.79662153 1.01577604 0.995074146 0.204267264" />
          <polyline
             id="Fill-12"
             points="15.7932276 0.204267264 14.9916802 1.01577604 15.7932276 1.82757745 16.5941973 1.01577604 15.7932276 0.204267264" />
        </g>
        <polyline
           id="Fill-14"
           points="24.0481547 3.5260978 23.0143752 4.5737723 21.9803069 3.5260978 23.0143752 2.47842329 24.0481547 3.5260978" />
        <polyline
           id="Fill-15"
           points="21.5097769 5.98462113 20.5814262 6.92547966 19.6530754 5.98462113 20.5814262 5.04405524 21.5097769 5.98462113" />
        <polyline
           id="Fill-16"
           points="19.0568975 11.0114102 18.1288356 11.9519761 17.2004848 11.0114102 18.1288356 10.0708443 19.0568975 11.0114102" />
        <polyline
           id="Fill-17"
           points="16.7677937 13.5114894 15.6233862 14.6706622 14.4795564 13.5114894 15.6233862 12.3520239 16.7677937 13.5114894" />
        <polyline
           id="Fill-18"
           points="24.1550277 11.0114102 23.0109091 12.1708757 21.8667905 11.0114102 23.0109091 9.85194476 24.1550277 11.0114102" />
        <polyline
           id="Fill-19"
           points="14.3085596 18.5687137 13.1638633 19.7281792 12.0200335 18.5687137 13.1638633 17.4092482 14.3085596 18.5687137" />
        <polyline
           id="Fill-20"
           points="19.2732431 18.5687137 18.1291244 19.7281792 16.984717 18.5687137 18.1291244 17.4092482 19.2732431 18.5687137" />
        <polyline
           id="Fill-21"
           points="21.4335216 16.0613184 20.5479201 16.9588652 19.6620297 16.0613184 20.5479201 15.1640642 21.4335216 16.0613184" />
        <polyline
           id="Fill-22"
           points="23.7154043 13.5577275 23.0527917 14.2293513 22.3901792 13.5577275 23.0527917 12.8861038 23.7154043 13.5577275" />
        <g
           id="Group-28"
           transform="translate(2.310767)">
          <polyline
             id="Fill-23"
             points="9.26473243 16.0613184 8.37913088 16.9588652 7.49324049 16.0613184 8.37913088 15.1640642 9.26473243 16.0613184" />
          <polyline
             id="Fill-25"
             points="3.49474662 0.204267264 2.69319923 1.01577604 3.49474662 1.82757745 4.29571631 1.01577604 3.49474662 0.204267264" />
          <polyline
             id="Fill-26"
             points="1.03089104 0.204267264 0.229921341 1.01577604 1.03089104 1.82757745 1.83272727 1.01577604 1.03089104 0.204267264" />
          <polyline
             id="Fill-27"
             points="25.7107518 0.204267264 24.9092044 1.01577604 25.7107518 1.82757745 26.5122992 1.01577604 25.7107518 0.204267264" />
        </g>
        <polyline
           id="Fill-29"
           points="29.6994249 3.4587891 30.3724358 4.14094811 31.0454468 3.4587891 30.3724358 2.77663009 29.6994249 3.4587891" />
        <polyline
           id="Fill-30"
           points="18.7530316 8.51923255 18.0800206 9.20168421 17.4067208 8.51923255 18.0800206 7.83707353 18.7530316 8.51923255" />
        <polyline
           id="Fill-31"
           points="16.3544552 11.0228234 15.6814442 11.7055677 15.0081444 11.0228234 15.6814442 10.3406644 16.3544552 11.0228234" />
        <polyline
           id="Fill-32"
           points="26.9109065 6.01534901 25.4938285 7.45078014 24.0764616 6.01534901 25.4938285 4.57962523 26.9109065 6.01534901" />
        <polyline
           id="Fill-33"
           points="29.3822721 6.01534901 27.9651941 7.45078014 26.5478272 6.01534901 27.9651941 4.57962523 29.3822721 6.01534901" />
        <polyline
           id="Fill-34"
           points="24.4311644 6.01534901 23.0143752 7.45078014 21.5967195 6.01534901 23.0143752 4.57962523 24.4311644 6.01534901" />
        <polyline
           id="Fill-35"
           points="29.6477215 5.98462113 30.3210213 6.66707279 30.9943211 5.98462113 30.3210213 5.30246211 29.6477215 5.98462113" />
        <polyline
           id="Fill-36"
           points="26.9109065 8.54674132 25.4938285 9.98217245 24.0764616 8.54674132 25.4938285 7.11101754 26.9109065 8.54674132" />
        <polyline
           id="Fill-37"
           points="29.3822721 8.54674132 27.9651941 9.98217245 26.5478272 8.54674132 27.9651941 7.11101754 29.3822721 8.54674132" />
        <polyline
           id="Fill-38"
           points="21.9985042 8.54674132 20.5814262 9.98217245 19.1643482 8.54674132 20.5814262 7.11101754 21.9985042 8.54674132" />
        <polyline
           id="Fill-39"
           points="21.9985042 11.0535513 20.5814262 12.4892751 19.1643482 11.0535513 20.5814262 9.61812019 21.9985042 11.0535513" />
        <polyline
           id="Fill-40"
           points="21.9985042 13.4962717 20.5814262 14.9317029 19.1643482 13.4962717 20.5814262 12.060548 21.9985042 13.4962717" />
        <polyline
           id="Fill-41"
           points="19.5459136 13.4962717 18.1291244 14.9317029 16.7114687 13.4962717 18.1291244 12.060548 19.5459136 13.4962717" />
        <polyline
           id="Fill-42"
           points="19.5459136 16.0496125 18.1291244 17.4853363 16.7114687 16.0496125 18.1291244 14.6141814 19.5459136 16.0496125" />
        <polyline
           id="Fill-43"
           points="17.0254442 16.0496125 15.6083662 17.4853363 14.1912882 16.0496125 15.6083662 14.6141814 17.0254442 16.0496125" />
        <polyline
           id="Fill-44"
           points="17.0254442 18.5344741 15.6083662 19.9701978 14.1912882 18.5344741 15.6083662 17.0990429 17.0254442 18.5344741" />
        <polyline
           id="Fill-45"
           points="14.5844075 16.0496125 13.1676183 17.4853363 11.7502515 16.0496125 13.1676183 14.6141814 14.5844075 16.0496125" />
        <polyline
           id="Fill-46"
           points="14.5844075 13.4655439 13.1676183 14.900975 11.7502515 13.4655439 13.1676183 12.0298201 14.5844075 13.4655439" />
        <polyline
           id="Fill-47"
           points="12.1130419 13.4655439 10.6959639 14.900975 9.27888588 13.4655439 10.6959639 12.0298201 12.1130419 13.4655439" />
        <polyline
           id="Fill-48"
           points="24.4311644 8.54674132 23.0143752 9.98217245 21.5967195 8.54674132 23.0143752 7.11101754 24.4311644 8.54674132" />
        <polyline
           id="Fill-49"
           points="29.6477215 8.51923255 30.3210213 9.20168421 30.9943211 8.51923255 30.3210213 7.83736618 29.6477215 8.51923255" />
        <polyline
           id="Fill-50"
           points="26.9109065 11.0535513 25.4938285 12.4892751 24.0764616 11.0535513 25.4938285 9.61812019 26.9109065 11.0535513" />
        <polyline
           id="Fill-51"
           points="29.3822721 11.0535513 27.9651941 12.4892751 26.5478272 11.0535513 27.9651941 9.61812019 29.3822721 11.0535513" />
        <polyline
           id="Fill-52"
           points="29.6477215 11.053844 30.3210213 11.736003 30.9943211 11.053844 30.3210213 10.3719776 29.6477215 11.053844" />
        <polyline
           id="Fill-53"
           points="26.9109065 13.5269996 25.4938285 14.9624308 24.0764616 13.5269996 25.4938285 12.0912758 26.9109065 13.5269996" />
        <polyline
           id="Fill-54"
           points="29.3822721 13.5269996 27.9651941 14.9624308 26.5478272 13.5269996 27.9651941 12.0912758 29.3822721 13.5269996" />
        <polyline
           id="Fill-55"
           points="29.6477215 13.526707 30.3210213 14.2091586 30.9943211 13.526707 30.3210213 12.844548 29.6477215 13.526707" />
        <polyline
           id="Fill-56"
           points="26.8456273 16.0569287 25.4285493 17.4923598 24.0114713 16.0569287 25.4285493 14.6212049 26.8456273 16.0569287" />
        <polyline
           id="Fill-57"
           points="29.3169929 16.0569287 27.9002037 17.4923598 26.4828369 16.0569287 27.9002037 14.6212049 29.3169929 16.0569287" />
        <polyline
           id="Fill-58"
           points="29.6477215 16.0308832 30.3210213 16.7130422 30.9943211 16.0308832 30.3210213 15.3490168 29.6477215 16.0308832" />
        <polyline
           id="Fill-59"
           points="26.9109065 18.5344741 25.4938285 19.9701978 24.0764616 18.5344741 25.4938285 17.0990429 26.9109065 18.5344741" />
        <polyline
           id="Fill-60"
           points="29.3822721 18.5344741 27.9651941 19.9701978 26.5478272 18.5344741 27.9651941 17.0990429 29.3822721 18.5344741" />
        <polyline
           id="Fill-61"
           points="29.6477215 18.5344741 30.3210213 19.2169257 30.9943211 18.5344741 30.3210213 17.852315 29.6477215 18.5344741" />
        <polyline
           id="Fill-62"
           points="26.9109065 21.0442105 25.4938285 22.4796417 24.0764616 21.0442105 25.4938285 19.6084867 26.9109065 21.0442105" />
        <polyline
           id="Fill-63"
           points="29.3822721 21.0442105 27.9651941 22.4796417 26.5478272 21.0442105 27.9651941 19.6084867 29.3822721 21.0442105" />
        <polyline
           id="Fill-64"
           points="29.6477215 21.0442105 30.3210213 21.7266622 30.9943211 21.0442105 30.3210213 20.3620515 29.6477215 21.0442105" />
        <polyline
           id="Fill-65"
           points="23.2451631 21.0383576 23.0525029 21.2332602 22.8601315 21.0383576 23.0525029 20.8431624 23.2451631 21.0383576" />
        <polyline
           id="Fill-66"
           points="23.2451631 18.5344741 23.0525029 18.7296693 22.8601315 18.5344741 23.0525029 18.3392788 23.2451631 18.5344741" />
        <polyline
           id="Fill-67"
           points="23.2451631 26.0461247 23.0525029 26.2413199 22.8601315 26.0461247 23.0525029 25.8509295 23.2451631 26.0461247" />
        <polyline
           id="Fill-68"
           points="23.2451631 23.5422411 23.0525029 23.737729 22.8601315 23.5422411 23.0525029 23.3470459 23.2451631 23.5422411" />
        <polyline
           id="Fill-69"
           points="23.2451631 16.0613184 23.0525029 16.2565136 22.8601315 16.0613184 23.0525029 15.8661232 23.2451631 16.0613184" />
        <polyline
           id="Fill-70"
           points="26.9109065 23.5422411 25.4938285 24.9779649 24.0764616 23.5422411 25.4938285 22.10681 26.9109065 23.5422411" />
        <polyline
           id="Fill-71"
           points="29.3822721 23.5422411 27.9651941 24.9779649 26.5478272 23.5422411 27.9651941 22.10681 29.3822721 23.5422411" />
        <polyline
           id="Fill-72"
           points="29.6477215 23.5422411 30.3210213 24.2246928 30.9943211 23.5422411 30.3210213 22.8603748 29.6477215 23.5422411" />
        <polyline
           id="Fill-73"
           points="27.0368433 26.0461247 27.9649052 26.9863979 28.893256 26.0461247 27.9649052 25.1061441 27.0368433 26.0461247" />
        <polyline
           id="Fill-74"
           points="24.6264242 26.0461247 25.5544861 26.9863979 26.482548 26.0461247 25.5544861 25.1061441 24.6264242 26.0461247" />
        <g
           id="Group-78"
           transform="translate(24.551902)">
          <polyline
             id="Fill-75"
             points="6.19921083 26.0461247 5.76883043 26.482168 5.33845003 26.0461247 5.76883043 25.6100814 6.19921083 26.0461247" />
          <polyline
             id="Fill-77"
             points="1.00633914 0.204267264 0.205080593 1.01577604 1.00633914 1.82757745 1.80788652 1.01577604 1.00633914 0.204267264" />
        </g>
        <polyline
           id="Fill-79"
           points="0.410738878 1.01606868 0.810790458 1.42109145 1.21026435 1.01606868 0.810790458 0.61046062 0.410738878 1.01606868" />
        <polyline
           id="Fill-80"
           points="29.8400928 1.01577604 30.3210213 1.50332512 30.801372 1.01577604 30.3210213 0.528812243 29.8400928 1.01577604" />
        <polyline
           id="Fill-81"
           points="0.410738878 3.5260978 0.810790458 3.93170586 1.21026435 3.5260978 0.810790458 3.12107503 0.410738878 3.5260978" />
        <polyline
           id="Fill-82"
           points="0.410738878 6.03612691 0.810790458 6.44144233 1.21026435 6.03612691 0.810790458 5.63110414 0.410738878 6.03612691" />
        <polyline
           id="Fill-83"
           points="0.410738878 8.54674132 0.810790458 8.95176409 1.21026435 8.54674132 0.810790458 8.14142591 0.410738878 8.54674132" />
        <polyline
           id="Fill-84"
           points="0.410738878 11.0506249 0.810790458 11.4559403 1.21026435 11.0506249 0.810790458 10.6453094 0.410738878 11.0506249" />
        <polyline
           id="Fill-85"
           points="0.410738878 13.560654 0.810790458 13.9659694 1.21026435 13.560654 0.810790458 13.1556312 0.410738878 13.560654" />
        <polyline
           id="Fill-86"
           points="8.80373436 13.560654 8.22170986 14.1506293 7.63910767 13.560654 8.22170986 12.9709713 8.80373436 13.560654" />
        <polyline
           id="Fill-87"
           points="0.410738878 15.9869862 0.810790458 16.3925943 1.21026435 15.9869862 0.810790458 15.5819634 0.410738878 15.9869862" />
        <polyline
           id="Fill-88"
           points="13.3937847 21.0178723 12.9937331 21.4234804 12.5939703 21.0178723 12.9937331 20.6125569 13.3937847 21.0178723" />
        <polyline
           id="Fill-89"
           points="16.0081289 21.0178723 15.6080774 21.4234804 15.2083146 21.0178723 15.6080774 20.6125569 16.0081289 21.0178723" />
        <polyline
           id="Fill-90"
           points="18.5285983 21.0178723 18.1288356 21.4234804 17.7290729 21.0178723 18.1288356 20.6125569 18.5285983 21.0178723" />
        <polyline
           id="Fill-91"
           points="0.410738878 18.4976006 0.810790458 18.9026234 1.21026435 18.4976006 0.810790458 18.0925778 0.410738878 18.4976006" />
        <polyline
           id="Fill-92"
           points="0.410738878 21.0076297 0.810790458 21.4129451 1.21026435 21.0076297 0.810790458 20.6023143 0.410738878 21.0076297" />
        <polyline
           id="Fill-93"
           points="0.410738878 23.5179515 0.810790458 23.9232669 1.21026435 23.5179515 0.810790458 23.1126361 0.410738878 23.5179515" />
        <polyline
           id="Fill-94"
           points="0.410738878 26.021835 0.810790458 26.4271504 1.21026435 26.021835 0.810790458 25.6168122 0.410738878 26.021835" />
        <polyline
           id="Fill-95"
           points="4.6989452 8.51923255 3.28215603 9.95466368 1.86478917 8.51923255 3.28215603 7.08380142 4.6989452 8.51923255" />
        <polyline
           id="Fill-96"
           points="7.17031077 8.51923255 5.7535216 9.95466368 4.33615474 8.51923255 5.7535216 7.08380142 7.17031077 8.51923255" />
        <polyline
           id="Fill-97"
           points="4.6989452 11.0228234 3.28215603 12.4588399 1.86478917 11.0228234 3.28215603 9.58739231 4.6989452 11.0228234" />
        <polyline
           id="Fill-98"
           points="7.17031077 11.0228234 5.7535216 12.4588399 4.33615474 11.0228234 5.7535216 9.58739231 7.17031077 11.0228234" />
        <polyline
           id="Fill-99"
           points="9.27888588 11.0228234 8.22488717 12.0912758 7.17031077 11.0228234 8.22488717 9.95495633 9.27888588 11.0228234" />
        <polyline
           id="Fill-100"
           points="4.6989452 13.5269996 3.28215603 14.9624308 1.86478917 13.5269996 3.28215603 12.0912758 4.6989452 13.5269996" />
        <polyline
           id="Fill-101"
           points="7.17031077 13.5269996 5.7535216 14.9624308 4.33615474 13.5269996 5.7535216 12.0912758 7.17031077 13.5269996" />
        <polyline
           id="Fill-102"
           points="4.6989452 16.0308832 3.28215603 17.4663143 1.86478917 16.0308832 3.28215603 14.595452 4.6989452 16.0308832" />
        <polyline
           id="Fill-103"
           points="7.17031077 16.0308832 5.7535216 17.4663143 4.33615474 16.0308832 5.7535216 14.595452 7.17031077 16.0308832" />
        <polyline
           id="Fill-104"
           points="4.6989452 18.5344741 3.28215603 19.9701978 1.86478917 18.5344741 3.28215603 17.0990429 4.6989452 18.5344741" />
        <polyline
           id="Fill-105"
           points="7.17031077 18.5344741 5.7535216 19.9701978 4.33615474 18.5344741 5.7535216 17.0990429 7.17031077 18.5344741" />
        <polyline
           id="Fill-106"
           points="4.6989452 21.0079224 3.28215603 22.4433535 1.86478917 21.0079224 3.28215603 19.5719059 4.6989452 21.0079224" />
        <polyline
           id="Fill-107"
           points="7.17031077 21.0079224 5.7535216 22.4433535 4.33615474 21.0079224 5.7535216 19.5719059 7.17031077 21.0079224" />
        <polyline
           id="Fill-108"
           points="4.6989452 23.5115133 3.28215603 24.947237 1.86478917 23.5115133 3.28215603 22.0760821 4.6989452 23.5115133" />
        <polyline
           id="Fill-109"
           points="2.19725081 26.0461247 3.28157834 27.1447197 4.36648356 26.0461247 3.28157834 24.9475297 2.19725081 26.0461247" />
        <polyline
           id="Fill-110"
           points="4.66861638 26.0461247 5.75323275 27.1447197 6.83813798 26.0461247 5.75323275 24.9475297 4.66861638 26.0461247" />
        <polyline
           id="Fill-111"
           points="7.17031077 23.5115133 5.7535216 24.947237 4.33615474 23.5115133 5.7535216 22.0760821 7.17031077 23.5115133" />
        <polyline
           id="Fill-112"
           points="9.64167634 8.51923255 8.22488717 9.95466368 6.80723146 8.51923255 8.22488717 7.08380142 9.64167634 8.51923255" />
        <polyline
           id="Fill-113"
           points="12.1130419 8.51923255 10.6959639 9.95466368 9.27888588 8.51923255 10.6959639 7.08380142 12.1130419 8.51923255" />
        <polyline
           id="Fill-114"
           points="14.0676622 8.51923255 13.1673295 9.43141172 12.2672856 8.51923255 13.1673295 7.60705338 14.0676622 8.51923255" />
        <polyline
           id="Fill-115"
           points="12.1433707 11.0228234 10.7265816 12.4588399 9.30892585 11.0228234 10.7265816 9.58739231 12.1433707 11.0228234" />
        <polyline
           id="Fill-116"
           points="14.6147363 11.0228234 13.1976583 12.4588399 11.7802914 11.0228234 13.1976583 9.58739231 14.6147363 11.0228234" />
      </g>
    </g>
  </g>
</svg>
