<?xml version="1.0" encoding="UTF-8" standalone="no"?>
<svg
   xmlns:dc="http://purl.org/dc/elements/1.1/"
   xmlns:cc="http://creativecommons.org/ns#"
   xmlns:rdf="http://www.w3.org/1999/02/22-rdf-syntax-ns#"
   xmlns:svg="http://www.w3.org/2000/svg"
   xmlns="http://www.w3.org/2000/svg"
   xmlns:sodipodi="http://sodipodi.sourceforge.net/DTD/sodipodi-0.dtd"
   xmlns:inkscape="http://www.inkscape.org/namespaces/inkscape"
   width="560px"
   height="454px"
   viewBox="0 0 560 454"
   version="1.1"
   id="svg1243"
   sodipodi:docname="Plane_Chart.svg"
   inkscape:version="1.0.2 (e86c870879, 2021-01-15)">
  <metadata
     id="metadata1249">
    <rdf:RDF>
      <cc:Work
         rdf:about="">
        <dc:format>image/svg+xml</dc:format>
        <dc:type
           rdf:resource="http://purl.org/dc/dcmitype/StillImage" />
        <dc:title>1</dc:title>
      </cc:Work>
    </rdf:RDF>
  </metadata>
  <defs
     id="defs1247" />
  <sodipodi:namedview
     pagecolor="#ffffff"
     bordercolor="#666666"
     borderopacity="1"
     objecttolerance="10"
     gridtolerance="10"
     guidetolerance="10"
     inkscape:pageopacity="0"
     inkscape:pageshadow="2"
     inkscape:window-width="1920"
     inkscape:window-height="1017"
     id="namedview1245"
     showgrid="false"
     inkscape:zoom="0.93035714"
     inkscape:cx="375.7521"
     inkscape:cy="222.61921"
     inkscape:window-x="-8"
     inkscape:window-y="-8"
     inkscape:window-maximized="1"
     inkscape:current-layer="svg1243"
     inkscape:document-rotation="0" />
  <!-- Generator: Sketch 61.2 (89653) - https://sketch.com -->
  <title
     id="title1146">1</title>
  <desc
     id="desc1148">Created with Sketch.</desc>
  <path
     d="m 56.870935,143.17699 a 31.028965,35.608646 0 1 1 31.028966,-35.60865 31.064112,35.648981 0 0 1 -31.028966,35.60865 z m 0,-69.733598 A 29.736092,34.124953 0 1 0 86.607027,107.56834 29.769855,34.163699 0 0 0 56.870935,73.443392 Z"
     fill="#f2f2f2"
     id="path1182"
     style="stroke-width:0.692501" />
  <path
     d="m 267.60933,122.40528 a 15.514483,17.804323 0 1 1 15.51448,-17.80432 15.532156,17.824605 0 0 1 -15.51448,17.80432 z m 0,-34.124952 a 14.221609,16.32063 0 1 0 14.22161,16.320632 14.237705,16.339102 0 0 0 -14.22161,-16.320632 z"
     fill="#f2f2f2"
     id="path1184"
     style="stroke-width:0.692501" />
  <path
     d="m 376.85714,209.20135 a 17.453793,20.029864 0 1 1 17.45379,-20.02986 17.473587,20.052579 0 0 1 -17.45379,20.02986 z m 0,-38.57603 a 16.16092,18.54617 0 1 0 16.16092,18.54617 16.17913,18.567068 0 0 0 -16.16092,-18.54617 z"
     fill="#f2f2f2"
     id="path1186"
     style="stroke-width:0.692501" />
  <path
     d="M 518.4636,411.72553 H 373.01533 a 0.64643678,0.7418468 0 0 1 0,-1.48369 H 518.4636 a 0.64643678,0.7418468 0 0 1 0,1.48369 z"
     fill="#cccccc"
     id="path1188"
     style="stroke-width:0.692501" />
  <ellipse
     cx="440.15433"
     cy="167.42487"
     fill="#ffb8b8"
     id="circle1190"
     rx="15.877152"
     ry="18.220522"
     style="stroke-width:0.692501" />
  <polygon
     points="631.857,424.285 611.124,381.386 628.257,375.567 643.465,420.343 "
     fill="#ffb8b8"
     id="polygon1192"
     transform="matrix(0.64643678,0,0,0.7418468,25.84197,71.959698)" />
  <path
     d="m 428.20921,386.34329 14.47225,-5.64109 3.095,10.45704 -23.58438,9.19289 v 0 a 9.6234138,11.043769 0 0 1 6.01713,-14.00884 z"
     fill="#2f2e41"
     id="path1194"
     style="stroke-width:0.692501" />
  <polygon
     points="657.45,445.19 649.249,398.255 667.321,397.346 669.694,444.575 "
     fill="#ffb8b8"
     id="polygon1196"
     transform="matrix(0.64643678,0,0,0.7418468,25.84197,71.959698)" />
  <path
     d="m 445.07434,399.95327 15.265,-0.88041 0.48304,11.02985 -24.87629,1.43475 v 0 a 9.6234138,11.043769 0 0 1 9.12825,-11.58419 z"
     fill="#2f2e41"
     id="path1198"
     style="stroke-width:0.692501" />
  <path
     d="m 411.65416,286.07894 a 6.5004325,7.4598556 0 0 0 -0.30236,-11.43352 l 7.54651,-25.05528 -11.63038,3.41082 -5.38322,23.27002 a 6.5356504,7.5002714 0 0 0 9.76945,9.80796 z"
     fill="#ffb8b8"
     id="path1200"
     style="stroke-width:0.692501" />
  <path
     d="m 458.01722,391.26824 a 2.9371114,3.3706106 0 0 1 -0.30649,-0.0188 l -10.74416,-1.30548 a 2.8911368,3.3178505 0 0 1 -2.58449,-2.94782 l -8.30331,-84.94871 -6.00826,23.24577 11.20185,45.68515 a 2.9090883,3.3384515 0 0 1 -2.46801,4.22071 l -10.89095,1.4366 a 2.9238336,3.3553731 0 0 1 -3.1438,-2.45954 l -11.90005,-51.41201 a 2.8975947,3.3252615 0 0 1 -0.072,-1.29675 l 5.34857,-46.14193 39.89412,3.6712 2.88466,108.83124 a 2.9092499,3.338637 0 0 1 -2.90771,3.44046 z"
     fill="#2f2e41"
     id="path1202"
     style="stroke-width:0.692501" />
  <path
     d="m 444.22678,286.88662 c -13.36559,0 -28.49782,-5.92644 -29.41417,-6.29048 l -0.26513,-0.10541 15.07795,-88.78725 0.27745,0.0131 c 5.97544,0.27819 22.28219,0.42091 22.44633,0.42236 l 0.29259,0.002 6.28509,78.35285 1.12337,11.46059 -0.13762,0.12787 c -3.84483,3.56724 -9.58101,4.80389 -15.68586,4.80389 z"
     fill="#6c63ff"
     id="path1204"
     style="stroke-width:0.692501" />
  <path
     d="m 420.08073,279.21351 -9.4311,-4.35946 4.8069,-66.72455 a 9.603704,11.021151 0 0 1 4.18511,-8.23711 l 4.96285,-3.87586 v 0 a 3.1471322,3.6116292 0 0 1 3.12043,-4.62888 l 1.42136,0.0524 a 1.6159562,1.8544612 0 0 1 2.47401,1.97379 l -0.31217,7.06928 z"
     fill="#2f2e41"
     id="path1206"
     style="stroke-width:0.692501" />
  <path
     d="m 415.32178,267.25161 -12.3137,-0.59515 3.98893,-29.44566 3.30541,-27.70697 a 5.7689505,6.6204115 0 0 1 7.48422,-5.82031 v 0 a 5.7642768,6.6150479 0 0 1 3.9913,7.1566 l -3.34834,30.02053 z"
     fill="#2f2e41"
     id="path1208"
     style="stroke-width:0.692501" />
  <path
     d="m 434.81968,280.23393 -0.0836,-0.29739 c -0.0572,-0.20358 -5.60645,-20.6319 3.67913,-45.00924 l 4.65637,-26.57717 3.97922,-16.68779 a 1.7384107,1.9949892 0 0 1 1.05454,-1.31524 1.6013403,1.8376881 0 0 1 1.71216,0.50479 v 0 a 11.117665,12.758563 0 0 1 8.31286,0.95394 l 5.58824,3.37826 a 6.3447059,7.2811447 0 0 1 3.22031,8.10319 l -7.63793,37.40603 3.71291,34.93889 z"
     fill="#2f2e41"
     id="path1210"
     style="stroke-width:0.692501" />
  <path
     d="m 442.95197,265.83222 a 6.500426,7.4598482 0 0 0 7.18696,-7.92596 l 17.29613,-14.70383 -6.04587,-3.2895 -18.65058,11.02533 a 6.5356569,7.5002789 0 0 0 0.21336,14.89399 z"
     fill="#ffb8b8"
     id="path1212"
     style="stroke-width:0.692501" />
  <path
     d="m 453.7955,259.25029 -5.84161,-12.51431 14.40721,-10.88141 -7.03064,-28.93927 a 7.6249739,8.7503723 0 0 1 5.83721,-10.92846 v 0 a 7.6456017,8.7740446 0 0 1 8.7269,5.75981 l 9.48633,31.99976 a 2.9084548,3.3377245 0 0 1 -0.97723,3.71865 z"
     fill="#2f2e41"
     id="path1214"
     style="stroke-width:0.692501" />
  <path
     d="m 441.27793,171.28952 c -1.90328,0.28419 -3.33898,-1.95057 -4.00486,-4.01636 -0.66589,-2.06579 -1.17326,-4.47079 -2.82802,-5.58668 -2.26077,-1.52454 -5.15331,0.30907 -7.7386,-0.19392 -2.91959,-0.56803 -4.8179,-4.11892 -4.96665,-7.51295 -0.14876,-3.39403 1.02817,-6.65837 2.18301,-9.78764 l 0.40316,3.88896 a 6.7202081,7.7120687 0 0 1 2.93669,-6.741 l -0.51964,5.70646 a 5.2776262,6.0565708 0 0 1 6.07164,-5.01158 l -0.0818,3.40013 c 3.37214,-0.46017 6.77374,-0.92098 10.15587,-0.5704 3.38212,0.35057 6.78786,1.57859 9.35122,4.13472 3.83439,3.82359 5.2348,10.11954 4.76465,15.92401 -0.47015,5.80446 -2.55805,11.25728 -4.73411,16.52477 -0.54753,1.32532 -1.30477,2.82084 -2.57435,2.98964 -1.14072,0.1517 -2.1845,-0.94262 -2.53912,-2.19606 a 6.936202,7.959942 0 0 1 0.0308,-3.91027 c 0.32082,-1.95646 0.72525,-3.95622 0.42361,-5.9167 -0.30164,-1.96048 -1.53061,-3.8978 -3.25269,-4.13807 -1.72209,-0.24026 -3.48422,2.0187 -2.65627,3.76814 z"
     fill="#2f2e41"
     id="path1216"
     style="stroke-width:0.692501" />
  <path
     d="m 233.54854,371.35213 -6.18041,-2.98645 -4.23974,-35.55531 h -56.45975 l -4.59557,35.41005 -5.52935,3.17268 a 1.3130424,1.5068392 0 0 0 0.58727,2.85456 h 75.90818 a 1.3129713,1.5067576 0 0 0 0.50937,-2.89553 z"
     fill="#e6e6e6"
     id="path1218"
     style="stroke-width:0.692501" />
  <path
     d="M 333.88139,337.54085 H 56.535448 a 5.4947643,6.3057571 0 0 1 -5.482431,-6.3057 V 286.35342 H 339.36382 v 44.88173 a 5.4948161,6.3058165 0 0 1 -5.48243,6.3057 z"
     fill="#cccccc"
     id="path1220"
     style="stroke-width:0.692501" />
  <path
     d="M 339.65372,307.5656 H 50.79986 V 115.52617 a 6.6314394,7.6101983 0 0 1 6.624037,-7.60139 H 333.02968 a 6.631504,7.6102725 0 0 1 6.62404,7.60139 z"
     fill="#3f3d56"
     id="path1222"
     style="stroke-width:0.692501" />
  <path
     d="M 322.40161,293.62736 H 68.051958 A 5.1122225,5.8667545 0 0 1 62.945327,287.7672 V 127.72318 a 5.112494,5.867066 0 0 1 5.106631,-5.86052 H 322.40161 a 5.112494,5.867066 0 0 1 5.10663,5.86052 V 287.7672 a 5.1122225,5.8667545 0 0 1 -5.10663,5.86016 z"
     fill="#ffffff"
     id="path1224"
     style="stroke-width:0.692501" />
  <path
     d="M 320.00751,374.61858 H 73.7151 a 0.64643678,0.7418468 0 0 1 0,-1.48369 h 246.29241 a 0.64643678,0.7418468 0 0 1 0,1.48369 z"
     fill="#cccccc"
     id="path1226"
     style="stroke-width:0.692501" />
  <path
     d="M 298.50648,273.74203 H 91.947048 a 0.64643678,0.7418468 0 0 1 -0.646437,-0.74185 v -113.6163 a 0.64643678,0.7418468 0 0 1 1.292873,0 V 272.25833 H 298.50648 a 0.64643957,0.74185 0 0 1 0,1.4837 z"
     fill="#3f3d56"
     id="path1228"
     style="stroke-width:0.692501" />
  <path
     d="m 136.07978,265.58171 h -18.78739 a 1.9210938,2.2046352 0 0 1 -1.91895,-2.20199 v -29.72097 a 1.9210938,2.2046352 0 0 1 1.91895,-2.20199 h 18.78739 a 1.9210873,2.2046277 0 0 1 1.91895,2.20199 v 29.72097 a 1.9210873,2.2046277 0 0 1 -1.91895,2.20199 z"
     fill="#6c63ff"
     id="path1230"
     style="stroke-width:0.692501" />
  <path
     d="m 170.34093,265.58171 h -18.78739 a 1.9210938,2.2046352 0 0 1 -1.91895,-2.20199 v -57.91115 a 1.9210938,2.2046352 0 0 1 1.91895,-2.20199 h 18.78739 a 1.9210873,2.2046277 0 0 1 1.91895,2.20199 v 57.91115 a 1.9210873,2.2046277 0 0 1 -1.91895,2.20199 z"
     fill="#6c63ff"
     id="path1232"
     style="stroke-width:0.692501" />
  <path
     d="m 204.60208,265.58171 h -18.78739 a 1.9210938,2.2046352 0 0 1 -1.91895,-2.20199 v -29.72097 a 1.9210938,2.2046352 0 0 1 1.91895,-2.20199 h 18.78739 a 1.9210873,2.2046277 0 0 1 1.91895,2.20199 v 29.72097 a 1.9210873,2.2046277 0 0 1 -1.91895,2.20199 z"
     fill="#6c63ff"
     id="path1234"
     style="stroke-width:0.692501" />
  <path
     d="m 238.86323,265.58171 h -18.78739 a 1.8791012,2.1564448 0 0 1 -1.91895,-2.10224 v -69.23835 a 1.8791012,2.1564448 0 0 1 1.91895,-2.10224 h 18.78739 a 1.8790948,2.1564374 0 0 1 1.91895,2.10224 v 69.23835 a 1.8790948,2.1564374 0 0 1 -1.91895,2.10224 z"
     fill="#6c63ff"
     id="path1236"
     style="stroke-width:0.692501" />
  <path
     d="m 273.12438,265.58171 h -18.78739 a 1.9210938,2.2046352 0 0 1 -1.91895,-2.20199 v -89.06871 a 1.9210938,2.2046352 0 0 1 1.91895,-2.20199 h 18.78739 a 1.9210873,2.2046277 0 0 1 1.91895,2.20199 v 89.06871 a 1.9210873,2.2046277 0 0 1 -1.91895,2.20199 z"
     fill="#6c63ff"
     id="path1238"
     style="stroke-width:0.692501" />
  <ellipse
     cx="126.6861"
     cy="218.10352"
     fill="#3f3d56"
     id="circle1240"
     rx="3.8786206"
     ry="4.4510808"
     style="stroke-width:0.692501" />
  <ellipse
     cx="160.94725"
     cy="189.17149"
     fill="#3f3d56"
     id="circle1242"
     rx="3.8786206"
     ry="4.4510808"
     style="stroke-width:0.692501" />
  <ellipse
     cx="195.20839"
     cy="218.10352"
     fill="#3f3d56"
     id="circle1244"
     rx="3.8786206"
     ry="4.4510808"
     style="stroke-width:0.692501" />
  <ellipse
     cx="229.46954"
     cy="175.07642"
     fill="#3f3d56"
     id="circle1246"
     rx="3.8786206"
     ry="4.4510808"
     style="stroke-width:0.692501" />
  <ellipse
     cx="263.73068"
     cy="158.75578"
     fill="#3f3d56"
     id="circle1248"
     rx="3.8786206"
     ry="4.4510808"
     style="stroke-width:0.692501" />
  <polygon
     points="368.374,118.573 315.585,139.842 262.126,198.344 209,158.552 156.6,197.8 155.4,196.2 209,156.053 261.874,195.656 314.415,138.158 314.626,138.072 367.626,116.718 "
     fill="#3f3d56"
     id="polygon1250"
     transform="matrix(0.64643678,0,0,0.7418468,25.84197,71.959698)" />
  <g
     transform="matrix(0.10129763,0.05528331,-0.05203543,0.12556852,237.28186,106.02888)"
     id="g1271">
    <path
       d="m 157.98695,184.38488 15.38788,-16.18471 c 9.01133,-9.01133 24.18529,-5.8854 24.18529,-5.8854 l 45.02946,6.16135 22.80617,-22.31567 c 12.01512,-11.80056 22.86694,6.25375 18.14672,12.47586 l -11.70942,13.61004 48.49336,8.98159 16.46066,-19.18912 c 17.59356,-21.02645 30.68334,-2.08353 22.74478,9.07336 l -10.63664,13.45688 72.86283,9.50247 c 62.65024,-60.29014 88.22733,-85.29891 104.71135,-70.44132 16.59028,14.95339 -12.75624,44.75856 -69.82804,103.5468 l 10.36069,75.06977 15.2651,-12.72081 c 9.01133,-7.50944 25.01187,4.53795 8.49108,20.20051 l -20.99733,19.80177 8.8588,49.13702 13.11954,-10.08475 c 11.586,-9.22589 25.65553,2.97466 9.99297,19.71 l -20.84417,20.99734 c -0.85822,0.64367 6.80502,43.09845 6.80502,43.09845 4.72022,20.8119 -7.01958,28.41564 -7.01958,28.41564 l -14.31509,12.47587 -54.37876,-153.60343 c -4.50567,-13.51701 -15.92502,-28.19577 -35.00611,-26.45363 -10.08411,1.07278 -35.55799,18.2695 -38.99088,22.34606 l -58.97684,56.70849 c -1.50189,1.07278 9.07336,73.72104 9.07336,73.72104 0,2.14556 -18.69861,26.66819 -18.69861,26.66819 l -37.36621,-66.51729 -18.45305,8.58285 10.7898,-16.79799 -67.28375,-37.97951 25.22769,-18.45304 c 12.01512,2.78922 75.00838,9.87019 76.29571,9.22652 0,0 51.29689,-50.87264 54.2256,-53.94965 16.9499,-17.80812 22.65302,-24.46187 25.22769,-33.25865 2.57678,-8.80401 -1.81285,-21.70583 -28.41564,-38.04088 -36.68901,-22.52835 -151.64143,-61.09202 -151.64143,-61.09202 z"
       id="path3166"
       style="fill:#000000;stroke:none" />
  </g>
</svg>
