<?xml version="1.0" encoding="UTF-8" standalone="no"?>
<svg
   xmlns:dc="http://purl.org/dc/elements/1.1/"
   xmlns:cc="http://creativecommons.org/ns#"
   xmlns:rdf="http://www.w3.org/1999/02/22-rdf-syntax-ns#"
   xmlns:svg="http://www.w3.org/2000/svg"
   xmlns="http://www.w3.org/2000/svg"
   xmlns:sodipodi="http://sodipodi.sourceforge.net/DTD/sodipodi-0.dtd"
   xmlns:inkscape="http://www.inkscape.org/namespaces/inkscape"
   width="560px"
   height="454px"
   viewBox="0 0 560 454"
   version="1.1"
   id="svg1243"
   sodipodi:docname="pong_image.svg"
   inkscape:version="1.0.2 (e86c870879, 2021-01-15)">
  <metadata
     id="metadata1249">
    <rdf:RDF>
      <cc:Work
         rdf:about="">
        <dc:format>image/svg+xml</dc:format>
        <dc:type
           rdf:resource="http://purl.org/dc/dcmitype/StillImage" />
        <dc:title>1</dc:title>
      </cc:Work>
    </rdf:RDF>
  </metadata>
  <defs
     id="defs1247" />
  <sodipodi:namedview
     pagecolor="#ffffff"
     bordercolor="#666666"
     borderopacity="1"
     objecttolerance="10"
     gridtolerance="10"
     guidetolerance="10"
     inkscape:pageopacity="0"
     inkscape:pageshadow="2"
     inkscape:window-width="1920"
     inkscape:window-height="1017"
     id="namedview1245"
     showgrid="false"
     inkscape:zoom="0.93035714"
     inkscape:cx="375.7521"
     inkscape:cy="148.05646"
     inkscape:window-x="-8"
     inkscape:window-y="-8"
     inkscape:window-maximized="1"
     inkscape:current-layer="svg1243" />
  <!-- Generator: Sketch 61.2 (89653) - https://sketch.com -->
  <title
     id="title1146">1</title>
  <desc
     id="desc1148">Created with Sketch.</desc>
  <path
     d="m 136.5075,238.23356 a 5.1165603,6.4866356 0 1 0 -10.18375,0.85281 l -14.70017,24.40529 a 7.1272568,9.0357417 0 0 0 0.96329,9.9216 l 1.15315,1.70539 5.29092,-1.34158 5.99666,-6.70789 -0.70558,-7.60227 7.40755,-14.75733 -0.01,-0.0106 a 5.1124202,6.4813868 0 0 0 4.7875,-6.46543 z"
     fill="#ffb9b9"
     id="path725"
     style="stroke-width:0.59083" />
  <polygon
     points="25.468,405.984 88.8,380.265 95.549,405.331 30.041,422.968 "
     fill="#ffb8b8"
     id="polygon727"
     transform="matrix(0.52473667,0,0,0.66524683,19.087074,76.169948)" />
  <path
     d="m 26.823845,363.37822 -7.736771,-36.43032 0.363453,-0.12408 a 11.583646,14.68543 0 0 1 14.196224,10.36137 l 1.98e-4,6.6e-4 4.725296,22.25043 z"
     fill="#2f2e41"
     id="path729"
     style="stroke-width:0.59083" />
  <polygon
     points="103.054,409.91 136.185,350.121 157.179,365.388 117.278,420.254 "
     fill="#ffb8b8"
     id="polygon731"
     transform="matrix(0.52473667,0,0,0.66524683,19.087074,76.169948)" />
  <path
     d="m 77.269298,366.67075 -24.067638,-22.18951 0.221379,-0.38595 a 11.583651,14.685437 0 0 1 16.180143,-3.24002 l 5.31e-4,5.4e-4 14.699648,13.5527 z"
     fill="#2f2e41"
     id="path733"
     style="stroke-width:0.59083" />
  <path
     d="m 144.07534,300.16134 -18.78295,-23.13238 a 9.4852762,12.025175 0 0 0 -12.41964,-0.87952 l -35.465026,49.94916 3.174753,6.26053 33.862713,-29.06752 22.92804,38.01132 21.86979,-13.86268 z"
     fill="#2f2e41"
     id="path735"
     style="stroke-width:0.59083" />
  <path
     d="m 135.96245,305.08051 -13.75687,-1.34158 -9.96265,-3.06195 a 5.1175259,6.4878596 0 1 0 -0.97076,8.41918 l -0.002,0.009 5.99665,3.13033 25.74978,11.17982 3.17466,-3.13034 z"
     fill="#ffb9b9"
     id="path737"
     style="stroke-width:0.59083" />
  <polygon
     points="271.131,426.11 253.653,426.11 172.315,395.86 53.332,417.371 49.971,391.826 158.871,344.099 254.326,375.693 285.92,416.699 "
     fill="#2f2e41"
     id="polygon739"
     transform="matrix(0.52473667,0,0,0.66524683,19.087074,76.169948)" />
  <ellipse
     cx="152.54114"
     cy="227.26907"
     fill="#ffb9b9"
     id="circle741"
     rx="13.756801"
     ry="17.440496"
     style="stroke-width:0.59083" />
  <path
     d="m 188.13597,296.90136 a 79.041609,100.2068 0 0 1 -3.87659,30.99491 l -1.02999,4.01581 -4.93835,28.62031 -5.29107,1.78876 -3.88012,-6.26069 -7.76025,-7.15506 -5.64381,-11.62699 -4.83956,-10.22285 -1.50973,-3.19296 -5.29109,-33.53941 -20.10608,-14.31013 -6.70203,-1.34158 1.41096,-4.91912 5.99655,-10.28542 5.99652,-0.89442 1.7637,-1.78876 1.41096,0.89437 7.77794,3.79865 25.21721,-13.50717 3.68965,0.7647 12.69856,13.41578 a 78.972406,100.11906 0 0 1 4.90662,34.75127 z"
     fill="#cccccc"
     id="path743"
     style="stroke-width:0.59083" />
  <polygon
     points="251.153,377.131 248.276,372.332 240.209,331.999 242.226,331.999 263.065,293.683 314.825,325.949 289.281,342.754 "
     opacity="0.1"
     style="isolation:isolate"
     id="polygon745"
     transform="matrix(0.52473667,0,0,0.66524683,19.087074,76.169948)" />
  <polygon
     points="230.126,341.41 219.371,344.099 248.276,375.693 289.281,338.721 314.825,321.915 263.065,289.649 242.226,327.965 "
     fill="#cccccc"
     id="polygon747"
     transform="matrix(0.52473667,0,0,0.66524683,19.087074,76.169948)" />
  <path
     d="m 141.84115,214.30132 -1.49052,0.72702 a 2.0807488,2.6379166 0 0 1 -0.55639,-3.66329 q 0.012,-0.0225 0.0245,-0.0448 l -2.75444,-0.16341 a 20.799218,26.368681 0 0 1 31.05046,-3.1729 c 0.12541,-0.54757 1.49245,0.51776 2.05059,1.59798 0.18753,-0.89101 1.46931,3.41618 1.92267,6.4608 0.20989,-1.01373 1.01689,0.6228 0.30989,2.19312 0.44796,-0.083 0.6503,1.37005 0.30352,2.17957 0.4901,-0.2919 0.40748,1.44262 -0.12389,2.60178 0.69932,-0.0788 -0.0596,18.182 -10.55439,16.85151 -0.73063,-4.25591 -0.52474,-3.99148 -1.38508,-9.46406 -0.40044,-0.53885 -0.83896,-1.02966 -1.27677,-1.51959 l -2.36792,-2.64988 c -2.75344,-3.0813 -5.25819,-6.88427 -8.92625,-8.03588 -2.52081,-0.79143 -4.11469,-0.97011 -2.74093,-4.57125 -1.24117,0.65664 -2.40021,1.63313 -3.6525,2.243 0.0168,-0.50319 0.19185,-1.06627 0.16749,-1.56972 z"
     fill="#2f2e41"
     id="path749"
     style="stroke-width:0.59083" />
  <ellipse
     cx="159.41954"
     cy="229.28145"
     fill="#ffb9b9"
     id="circle751"
     rx="2.4691694"
     ry="3.1303456"
     style="stroke-width:0.59083" />
  <rect
     x="-165.51402"
     y="52.387959"
     width="14.364047"
     height="11.354799"
     transform="matrix(0.05245809,-0.99862313,0.99645478,0.08413008,0,0)"
     fill="#e6e6e6"
     style="isolation:isolate;stroke-width:0.590978"
     id="rect753" />
  <path
     d="m 36.973058,162.966 13.739092,1.15998 -0.914984,17.41804 -13.739083,-1.15998 z m 13.101949,1.86686 -12.544379,-1.05911 -0.835412,15.90339 12.544379,1.05911 z"
     fill="#cccccc"
     id="path755"
     style="stroke-width:0.59083" />
  <rect
     x="76.773895"
     y="137.95236"
     width="11.490546"
     height="14.25569"
     transform="matrix(0.96484245,-0.26282894,0.16710299,0.98593945,0,0)"
     fill="#e6e6e6"
     style="isolation:isolate;stroke-width:0.592254"
     id="rect757" />
  <path
     d="m 100.43203,106.00639 2.89264,17.06708 -13.462264,3.6672 -2.892631,-17.06708 z m 2.18155,16.48449 -2.641098,-15.58299 -12.29163,3.34832 2.641101,15.58299 z"
     fill="#cccccc"
     id="path759"
     style="stroke-width:0.59083" />
  <rect
     x="-43.160992"
     y="195.35979"
     width="12.848266"
     height="13.045277"
     transform="matrix(0.64413994,-0.76490767,0.59423608,0.80429067,0,0)"
     fill="#e6e6e6"
     style="isolation:isolate;stroke-width:0.599091"
     id="rect761" />
  <path
     d="m 104.91125,178.84232 -10.049524,11.93369 -9.413108,-12.74052 10.049531,-11.93367 z m -10.021864,10.86088 9.175654,-10.89596 -8.594578,-11.63263 -9.17566,10.89598 z"
     fill="#cccccc"
     id="path763"
     style="stroke-width:0.59083" />
  <path
     d="M 524.55387,76.16995 H 189.04631 a 9.2345726,11.70734 0 0 0 -9.23459,11.70734 v 236.99565 a 9.2345996,11.707373 0 0 0 9.23459,11.70739 h 335.50756 a 9.2346095,11.707386 0 0 0 9.23457,-11.70739 V 87.87729 a 9.2345888,11.70736 0 0 0 -9.23457,-11.70734 z"
     fill="#3f3d56"
     id="path765"
     style="stroke-width:0.59083" />
  <rect
     x="192.70589"
     y="98.812706"
     width="329.21521"
     height="235.43951"
     fill="#ffffff"
     id="rect767"
     style="stroke-width:0.59083" />
  <ellipse
     cx="356.51868"
     cy="86.158287"
     fill="#ffffff"
     id="circle769"
     rx="3.3765597"
     ry="4.2807102"
     style="stroke-width:0.59083" />
  <rect
     style="fill:#003380;stroke-width:0.59083"
     id="rect807"
     width="161.63011"
     height="235.30176"
     x="192.70589"
     y="97.482208" />
  <path
     d="m 543.03205,328.01889 h -32.12931 v -2.93478 a 0.45896617,0.58186479 0 0 0 -0.45893,-0.58188 h -11.0158 a 0.45897667,0.5818781 0 0 0 -0.45904,0.58185 v 2.93481 h -6.88473 v -2.93478 a 0.45897667,0.5818781 0 0 0 -0.45899,-0.58188 h -11.01574 a 0.45897142,0.58187145 0 0 0 -0.45898,0.58188 v 0 2.93478 h -6.88484 v -2.93478 a 0.45897142,0.58187145 0 0 0 -0.45898,-0.58188 h -11.0158 a 0.45897667,0.5818781 0 0 0 -0.45898,0.58188 v 0 2.93478 h -6.88482 v -2.93478 a 0.45897667,0.5818781 0 0 0 -0.45899,-0.58188 h -11.01576 a 0.45896617,0.58186479 0 0 0 -0.45898,0.58185 v 2.93481 h -6.88483 v -2.93478 a 0.45897667,0.5818781 0 0 0 -0.45898,-0.58188 h -11.01575 a 0.45897142,0.58187145 0 0 0 -0.45899,0.58188 v 0 2.93478 h -6.88487 v -2.93478 a 0.45897142,0.58187145 0 0 0 -0.45898,-0.58188 h -11.01575 a 0.45897667,0.5818781 0 0 0 -0.45898,0.58188 v 0 2.93478 h -6.88483 v -2.93478 a 0.45897667,0.5818781 0 0 0 -0.45899,-0.58188 h -86.29004 a 0.45897142,0.58187145 0 0 0 -0.45898,0.58188 v 0 2.93478 h -6.88487 v -2.93478 a 0.45897142,0.58187145 0 0 0 -0.45898,-0.58188 h -11.01572 a 0.45897667,0.5818781 0 0 0 -0.45899,0.58188 v 0 2.93478 h -6.88486 v -2.93478 a 0.45896617,0.58186479 0 0 0 -0.45895,-0.58188 h -11.0158 a 0.45897142,0.58187145 0 0 0 -0.45898,0.58188 v 0 2.93478 h -6.88486 v -2.93478 a 0.45897142,0.58187145 0 0 0 -0.45899,-0.58188 h -11.01574 a 0.45897667,0.5818781 0 0 0 -0.45899,0.58188 v 0 2.93478 h -6.88483 v -2.93478 a 0.45897142,0.58187145 0 0 0 -0.45898,-0.58188 h -11.01576 a 0.45897667,0.5818781 0 0 0 -0.45899,0.58188 v 0 2.93478 h -6.88485 v -2.93478 a 0.45897667,0.5818781 0 0 0 -0.45899,-0.58188 h -11.01577 a 0.45897667,0.5818781 0 0 0 -0.45898,0.58185 v 2.93481 h -6.88484 v -2.93478 a 0.45897142,0.58187145 0 0 0 -0.45897,-0.58188 h -11.01575 a 0.45898716,0.5818914 0 0 0 -0.45899,0.58188 v 0 2.93478 h -21.11355 a 11.015755,13.965474 0 0 0 -11.01572,13.96547 v 6.31486 a 11.01575,13.965467 0 0 0 11.01572,13.96543 h 366.27362 a 11.01576,13.96548 0 0 0 11.01574,-13.96543 v -6.31486 a 11.015744,13.96546 0 0 0 -11.01574,-13.96547 z"
     fill="#3f3d56"
     id="path789"
     style="stroke-width:0.59083" />
  <rect
     style="fill:#808080;fill-rule:evenodd;stroke-width:0.59083"
     id="rect798"
     width="4.6205821"
     height="67.039818"
     x="372.30493"
     y="177.0551" />
  <ellipse
     style="fill:#ffdd55;stroke-width:0.59083"
     id="path800"
     cx="455.73209"
     cy="235.30815"
     rx="10.524659"
     ry="13.993749" />
  <text
     xml:space="preserve"
     style="font-style:normal;font-weight:normal;font-size:23.6331px;line-height:1.25;font-family:sans-serif;fill:#ff6600;fill-opacity:1;stroke:none;stroke-width:0.59083"
     x="220.92276"
     y="110.42587"
     id="text811"
     transform="scale(0.88813567,1.1259541)"><tspan
       sodipodi:role="line"
       id="tspan809"
       x="220.92276"
       y="110.42587"
       style="stroke-width:0.59083">&lt;</tspan></text>
  <text
     xml:space="preserve"
     style="font-style:normal;font-weight:normal;font-size:23.6331px;line-height:1.25;font-family:sans-serif;fill:#ff6600;fill-opacity:1;stroke:none;stroke-width:0.59083"
     x="374.10938"
     y="283.26657"
     id="text815"
     transform="scale(0.88813567,1.1259541)"><tspan
       sodipodi:role="line"
       id="tspan813"
       x="374.10938"
       y="283.26657"
       style="stroke-width:0.59083">&gt;</tspan></text>
  <rect
     style="fill:#d40055;stroke-width:0.59083"
     id="rect979"
     width="90.871445"
     height="3.25436"
     x="213.66493"
     y="206.99521" />
  <ellipse
     style="fill:#008000;stroke-width:0.59083"
     id="path817"
     cx="212.12476"
     cy="207.97153"
     rx="6.1607761"
     ry="8.1358995" />
  <ellipse
     style="fill:#008000;stroke-width:0.593063"
     id="path819"
     cx="244.35381"
     cy="178.21109"
     rx="6.5592084"
     ry="8.3155851" />
  <ellipse
     style="fill:#008000;stroke-width:0.593063"
     id="path819-6"
     cx="244.46877"
     cy="208.29697"
     rx="6.5592084"
     ry="8.3155851" />
  <ellipse
     style="fill:#008000;stroke-width:0.593063"
     id="path819-6-9"
     cx="244.46877"
     cy="235.63359"
     rx="6.5592084"
     ry="8.3155851" />
  <ellipse
     style="fill:#008000;stroke-width:0.593063"
     id="path819-2"
     cx="273.21909"
     cy="179.00772"
     rx="6.5592084"
     ry="8.3155851" />
  <ellipse
     style="fill:#008000;stroke-width:0.593063"
     id="path819-2-5"
     cx="272.70569"
     cy="207.64609"
     rx="6.5592084"
     ry="8.3155851" />
  <ellipse
     style="fill:#008000;stroke-width:0.593063"
     id="path819-2-7"
     cx="273.21909"
     cy="235.63359"
     rx="6.5592084"
     ry="8.3155851" />
  <ellipse
     style="fill:#008000;stroke-width:0.593063"
     id="path819-2-7-0"
     cx="301.96939"
     cy="208.94783"
     rx="6.5592084"
     ry="8.3155851" />
  <rect
     style="fill:#808080;fill-rule:evenodd;stroke-width:0.59083"
     id="rect798-6"
     width="4.6205821"
     height="67.039818"
     x="503.47818"
     y="115.5477" />
  <text
     xml:space="preserve"
     style="font-style:normal;font-weight:normal;font-size:23.6331px;line-height:1.25;font-family:sans-serif;fill:#000000;fill-opacity:1;stroke:none;stroke-width:0.59083"
     x="461.97485"
     y="111.00394"
     id="text971"
     transform="scale(0.88813567,1.1259541)"><tspan
       sodipodi:role="line"
       id="tspan969"
       x="461.97485"
       y="111.00394"
       style="stroke-width:0.59083">1 : 0</tspan></text>
</svg>
