<?xml version="1.0" encoding="UTF-8" standalone="no"?>
<svg
   xmlns:dc="http://purl.org/dc/elements/1.1/"
   xmlns:cc="http://creativecommons.org/ns#"
   xmlns:rdf="http://www.w3.org/1999/02/22-rdf-syntax-ns#"
   xmlns:svg="http://www.w3.org/2000/svg"
   xmlns="http://www.w3.org/2000/svg"
   xmlns:sodipodi="http://sodipodi.sourceforge.net/DTD/sodipodi-0.dtd"
   xmlns:inkscape="http://www.inkscape.org/namespaces/inkscape"
   width="560px"
   height="454px"
   viewBox="0 0 560 454"
   version="1.1"
   id="svg1243"
   sodipodi:docname="Recipe_Finder.svg"
   inkscape:version="1.0.2 (e86c870879, 2021-01-15)">
  <metadata
     id="metadata1249">
    <rdf:RDF>
      <cc:Work
         rdf:about="">
        <dc:format>image/svg+xml</dc:format>
        <dc:type
           rdf:resource="http://purl.org/dc/dcmitype/StillImage" />
        <dc:title>1</dc:title>
      </cc:Work>
    </rdf:RDF>
  </metadata>
  <defs
     id="defs1247">
    <linearGradient
       id="a7d70b19-b507-4394-a133-55f51a2376ed"
       x1="323.00662"
       y1="814.32904"
       x2="323.00662"
       y2="813.88037"
       gradientTransform="matrix(-0.45881816,0,0,0.48442001,296.46104,9.9770763)"
       gradientUnits="userSpaceOnUse">
      <stop
         offset="0"
         stop-color="gray"
         stop-opacity="0.25"
         id="stop2119" />
      <stop
         offset="0.53514"
         stop-color="gray"
         stop-opacity="0.12"
         id="stop2121" />
      <stop
         offset="1"
         stop-color="gray"
         stop-opacity="0.1"
         id="stop2123" />
    </linearGradient>
  </defs>
  <sodipodi:namedview
     pagecolor="#ffffff"
     bordercolor="#666666"
     borderopacity="1"
     objecttolerance="10"
     gridtolerance="10"
     guidetolerance="10"
     inkscape:pageopacity="0"
     inkscape:pageshadow="2"
     inkscape:window-width="1920"
     inkscape:window-height="1017"
     id="namedview1245"
     showgrid="false"
     inkscape:zoom="0.65786185"
     inkscape:cx="221.75204"
     inkscape:cy="338.91098"
     inkscape:window-x="-8"
     inkscape:window-y="-8"
     inkscape:window-maximized="1"
     inkscape:current-layer="svg1243" />
  <!-- Generator: Sketch 61.2 (89653) - https://sketch.com -->
  <title
     id="title1146">1</title>
  <desc
     id="desc1148">Created with Sketch.</desc>
  <path
     d="M 335.88254,71.925679 V 367.43157 a 12.574118,13.275748 0 0 1 -12.5762,13.27311 H 209.67543 a 12.574118,13.275748 0 0 1 -12.5762,-13.27311 V 71.925679 a 12.5751,13.276785 0 0 1 12.5762,-13.277953 h 17.0038 v 2.305839 a 10.358494,10.936494 0 0 0 10.35553,10.93336 h 57.78815 a 10.355526,10.93336 0 0 0 10.35552,-10.93336 v -2.305839 h 18.12791 a 12.5751,13.276785 0 0 1 12.5762,13.277953 z"
     fill="#f2f2f2"
     id="path2130"
     style="stroke-width:0.471445" />
  <path
     d="m 353.00178,118.15183 h 1.12619 a 1.0514552,1.110126 0 0 1 1.05146,1.11013 v 38.96521 a 1.0514598,1.1101308 0 0 1 -1.05146,1.11013 h -1.12619"
     fill="none"
     stroke="#3f3d56"
     stroke-miterlimit="10"
     id="path2132"
     style="stroke-width:0.471445" />
  <path
     d="m 194.66165,99.445061 h -0.81419 a 0.68972757,0.72821407 0 0 1 -0.68972,-0.728214 V 86.614693 a 0.68972757,0.72821407 0 0 1 0.68972,-0.728214 h 0.81419"
     fill="none"
     stroke="#3f3d56"
     stroke-miterlimit="10"
     id="path2134"
     style="stroke-width:0.471445" />
  <path
     d="m 194.53367,134.30999 h -0.69497 a 0.77750866,0.82089331 0 0 1 -0.77751,-0.82089 v -21.95828 a 0.77750866,0.82089331 0 0 1 0.77751,-0.8209 h 0.82296"
     fill="none"
     stroke="#3f3d56"
     stroke-miterlimit="10"
     id="path2136"
     style="stroke-width:0.471445" />
  <path
     d="m 194.53367,166.37145 h -0.68432 a 0.73989475,0.78118055 0 0 1 -0.73989,-0.78117 v -22.24163 a 0.73989016,0.78117571 0 0 1 0.73989,-0.78117 h 0.68432"
     fill="none"
     stroke="#3f3d56"
     stroke-miterlimit="10"
     id="path2138"
     style="stroke-width:0.471445" />
  <rect
     x="194.66165"
     y="41.079262"
     width="158.34012"
     height="339.75949"
     rx="16.377033"
     fill="none"
     stroke="#3f3d56"
     stroke-miterlimit="10"
     id="rect2140"
     style="stroke-width:0.471445" />
  <rect
     x="257.64008"
     y="52.678703"
     width="22.111425"
     height="4.7404084"
     rx="1.1662652"
     fill="#f2f2f2"
     id="rect2142"
     style="stroke-width:0.471445" />
  <ellipse
     cx="285.64145"
     cy="55.048901"
     fill="#f2f2f2"
     id="circle2144"
     rx="2.5466747"
     ry="2.6887782"
     style="stroke-width:0.471445" />
  <rect
     x="258.55771"
     y="51.225445"
     width="22.111425"
     height="4.7404084"
     rx="1.1662652"
     fill="none"
     stroke="#3f3d56"
     stroke-miterlimit="10"
     id="rect2146"
     style="stroke-width:0.471445" />
  <ellipse
     cx="286.55908"
     cy="53.595638"
     fill="none"
     stroke="#3f3d56"
     stroke-miterlimit="10"
     id="circle2148"
     rx="2.5466747"
     ry="2.6887782"
     style="stroke-width:0.471445" />
  <path
     d="M 343.22363,63.206118 V 358.71201 a 12.574118,13.275748 0 0 1 -12.5762,13.27311 H 217.01652 a 12.574118,13.275748 0 0 1 -12.5762,-13.27311 V 63.206118 a 12.5751,13.276785 0 0 1 12.5762,-13.277952 h 17.0038 v 2.305839 a 10.358494,10.936494 0 0 0 10.35553,10.93336 H 302.164 a 10.355526,10.93336 0 0 0 10.35552,-10.93336 v -2.305839 h 18.12791 a 12.5751,13.276785 0 0 1 12.5762,13.277952 z"
     fill="none"
     stroke="#3f3d56"
     stroke-miterlimit="10"
     id="path2150"
     style="stroke-width:0.471445" />
  <rect
     x="208.40909"
     y="78.169861"
     width="14.223363"
     height="1.93768"
     fill="none"
     stroke="#3f3d56"
     stroke-miterlimit="10"
     id="rect2152"
     style="stroke-width:0.471445" />
  <rect
     x="208.40909"
     y="81.560799"
     width="14.223363"
     height="1.93768"
     fill="none"
     stroke="#3f3d56"
     stroke-miterlimit="10"
     id="rect2154"
     style="stroke-width:0.471445" />
  <rect
     x="208.40909"
     y="84.951736"
     width="14.223363"
     height="1.93768"
     fill="none"
     stroke="#3f3d56"
     stroke-miterlimit="10"
     id="rect2156"
     style="stroke-width:0.471445" />
  <path
     d="m 336.72443,83.014053 h -0.42131 l -0.15818,-0.139436 a 3.4963504,3.6914452 0 0 0 0.81661,-2.370267 3.4107762,3.601096 0 1 0 -3.39755,3.625123 3.529734,3.7266916 0 0 0 2.23861,-0.86437 l 0.15794,0.139465 v 0.446083 l 2.6337,2.788535 0.79009,-0.83656 z m -3.16045,0 a 2.3770726,2.5097123 0 1 1 2.37031,-2.509713 2.3638541,2.4957561 0 0 1 -2.37031,2.509713 z"
     fill="none"
     stroke="#3f3d56"
     stroke-miterlimit="10"
     id="path2158"
     style="stroke-width:0.471445" />
  <path
     d="m 413.76489,115.46974 a 17.870999,18.868193 0 0 1 17.84624,-17.882086 c 0.54314,0 1.07947,0.02989 1.61026,0.07999 a 23.74372,25.06861 0 0 1 41.04426,-0.02049 c 0.44781,-0.03551 0.89864,-0.05951 1.35503,-0.05951 a 17.870999,18.868193 0 0 1 17.84623,17.882096"
     fill="#f2f2f2"
     id="path2160"
     style="stroke-width:0.471445" />
  <path
     d="m 417.48703,114.01832 a 17.871004,18.868198 0 0 1 17.84624,-17.882085 c 0.54313,0 1.07947,0.02989 1.61026,0.07999 a 23.74372,25.06861 0 0 1 41.04428,-0.02049 c 0.44781,-0.03551 0.8986,-0.0595 1.35503,-0.0595 a 17.870999,18.868193 0 0 1 17.84623,17.882085"
     fill="none"
     stroke="#3f3d56"
     stroke-miterlimit="10"
     id="path2162"
     style="stroke-width:0.471445" />
  <path
     d="m 366.0478,222.52656 a 17.870999,18.868193 0 0 1 17.84625,-17.88208 c 0.54313,0 1.07946,0.0299 1.61026,0.08 a 23.74372,25.06861 0 0 1 41.04427,-0.0205 c 0.44781,-0.0355 0.89862,-0.0595 1.35501,-0.0595 a 17.870999,18.868193 0 0 1 17.84625,17.88209"
     fill="#f2f2f2"
     id="path2164"
     style="stroke-width:0.471445" />
  <path
     d="m 369.76994,221.07514 a 17.871004,18.868198 0 0 1 17.84624,-17.88208 c 0.54314,0 1.07947,0.0299 1.61026,0.08 a 23.74372,25.06861 0 0 1 41.04428,-0.0205 c 0.4478,-0.0355 0.89861,-0.0595 1.35501,-0.0595 a 17.870999,18.868193 0 0 1 17.84624,17.88208"
     fill="none"
     stroke="#3f3d56"
     stroke-miterlimit="10"
     id="path2166"
     style="stroke-width:0.471445" />
  <path
     d="M 67.357183,65.574482 A 17.870999,18.868193 0 0 1 85.203425,47.692393 c 0.543135,0 1.079466,0.02989 1.610259,0.07999 a 23.74372,25.06861 0 0 1 41.044276,-0.02049 c 0.44781,-0.03551 0.89862,-0.05951 1.35501,-0.05951 a 17.870999,18.868193 0 0 1 17.84624,17.882089"
     fill="#f2f2f2"
     id="path2168"
     style="stroke-width:0.471445" />
  <path
     d="M 71.079318,64.123058 A 17.871004,18.868198 0 0 1 88.925559,46.240974 c 0.543136,0 1.079466,0.02989 1.610264,0.07999 a 23.74372,25.06861 0 0 1 41.044267,-0.02049 c 0.44781,-0.03551 0.89862,-0.0595 1.35502,-0.0595 a 17.870999,18.868193 0 0 1 17.84624,17.882084"
     fill="none"
     stroke="#3f3d56"
     stroke-miterlimit="10"
     id="path2170"
     style="stroke-width:0.471445" />
  <rect
     x="209.09731"
     y="127.5855"
     width="109.19872"
     height="63.943443"
     rx="5.7569017"
     fill="#6c63ff"
     id="rect2172"
     style="stroke-width:0.471445" />
  <rect
     x="215.06195"
     y="115.47501"
     width="109.19872"
     height="63.943443"
     rx="5.7569017"
     fill="none"
     stroke="#3f3d56"
     stroke-miterlimit="10"
     id="rect2174"
     style="stroke-width:0.471445" />
  <rect
     x="-330.22531"
     y="-301.00787"
     width="109.19872"
     height="63.943443"
     rx="5.7569017"
     transform="scale(-1)"
     fill="#6c63ff"
     id="rect2178"
     style="stroke-width:0.471445" />
  <rect
     x="-324.26068"
     y="-288.89737"
     width="109.19872"
     height="63.943443"
     rx="5.7569017"
     transform="scale(-1)"
     fill="none"
     stroke="#3f3d56"
     stroke-miterlimit="10"
     id="rect2180"
     style="stroke-width:0.471445" />
  <path
     d="m 148.45522,404.23701 -1.7e-4,4.8e-4 c 0,0 -0.14428,0.0847 -0.39078,0.21671 q 0.19911,-0.10889 0.39095,-0.21735 z"
     fill="url(#a7d70b19-b507-4394-a133-55f51a2376ed)"
     id="path2184"
     style="fill:url(#a7d70b19-b507-4394-a133-55f51a2376ed);stroke-width:0.471445" />
  <path
     d="m 93.733974,353.47166 c -3.442334,10.44894 0.57444,27.4103 2.439719,34.98123 1.863197,7.57321 2.437619,16.65924 2.437619,16.65924 7.314938,1.21072 12.622588,-0.30438 12.622588,-0.30438 l -3.01204,-15.59617 c 2.15146,-9.23822 0,-33.92271 0,-33.92271 0,0 4.87524,-9.54033 5.30552,-24.07799 0.42384,-14.31049 3.76507,-18.93528 3.87048,-19.07839 l 0.002,-0.002 c 6.88466,3.78662 15.63462,44.37165 15.63462,44.37165 -0.71645,9.84245 0.14414,24.98659 3.01204,33.16402 a 38.889156,41.059154 0 0 1 2.15146,16.20267 c 1.00256,0.89498 2.39673,1.04716 3.90275,0.79048 4.09636,-0.69962 9.006,-4.42489 9.006,-4.42489 0,0 -1.57704,-44.21946 -2.72588,-45.88446 -1.14674,-1.66502 0,-11.20536 0,-11.20536 l -1.8632,-15.44626 c 0,0 0.28616,-26.19958 -2.43972,-30.74259 -2.35155,-3.92288 -2.89372,-10.81692 -2.99914,-12.62731 -0.0151,-0.28621 -0.0215,-0.44522 -0.0215,-0.44522 l -4.15017,-5.24945 c 0,0 -40.161271,-3.18011 -43.173288,0 -0.740115,0.7814 -1.196221,2.55545 -1.4673,4.79062 -0.828332,6.86904 0.120494,18.07437 0.120494,18.07437 0,0 1.204788,8.32964 2.925953,16.80917 a 34.873919,36.819869 0 0 1 0,15.44625 43.753992,46.195445 0 0 1 -1.579147,17.71776 z"
     fill="#575a89"
     id="path2186"
     style="stroke-width:0.471445" />
  <path
     d="m 96.244728,419.87692 c 1.79218,2.49864 12.334322,1.43788 14.128612,0.65877 1.0951,-0.47704 1.01335,-2.65313 0.71644,-4.89511 -0.18717,-1.42651 -0.46256,-2.88028 -0.57444,-3.94109 -0.28616,-2.7258 0.86059,-8.25465 0.86059,-8.25465 0,0 -2.36659,2.65086 -2.93893,0 -0.25131,-1.15873 -1.13392,-1.75272 -2.04733,-2.0543 a 5.3579454,5.6569164 0 0 0 -3.72367,0.24657 c -1.86262,0.85269 -4.971558,2.67237 -4.413966,5.13324 0.789571,3.47769 -2.007329,8.4114 -2.007329,8.4114 a 3.5852372,3.7852919 0 0 0 -0.522792,0.95175 3.4457473,3.6380185 0 0 0 0.522815,3.74342 z"
     fill="#cbceda"
     id="path2188"
     style="stroke-width:0.471445" />
  <path
     d="m 96.244728,419.87692 c 1.79218,2.49864 12.334322,1.43788 14.128612,0.65877 1.0951,-0.47704 1.01335,-2.65313 0.71644,-4.89511 -1.13177,0.55941 -3.0572,1.02384 -6.26653,0.71049 a 18.036335,19.042754 0 0 0 -2.25408,-0.073 52.74418,55.687282 0 0 1 -6.84722,-0.14458 3.4457473,3.6380185 0 0 0 0.522778,3.74344 z"
     opacity="0.1"
     id="path2190"
     style="stroke-width:0.471445" />
  <path
     d="m 133.03463,356.50186 c -0.71644,9.84244 0.14414,24.98659 3.01205,33.16402 a 38.889156,41.059154 0 0 1 2.15145,16.20267 c 1.00257,0.89497 2.39673,1.04716 3.90275,0.79048 -0.86487,-6.38748 -4.55249,-33.9068 -6.91479,-55.64741 -2.68932,-24.75943 -15.27535,-41.79575 -15.27535,-41.79575 l -2.51073,2.91433 c 6.88466,3.78662 15.63462,44.37166 15.63462,44.37166 z"
     opacity="0.1"
     id="path2192"
     style="stroke-width:0.471445" />
  <path
     d="m 100.54763,197.3441 1.7513,9.08603 8.57567,15.21912 10.5787,-4.77017 c 0,0 14.37821,-15.90056 5.34209,-18.17205 a 7.951672,8.3953718 0 0 1 -3.00127,-1.41063 c -1.7728,-1.41287 -2.3322,-3.46632 -2.34082,-5.4766 a 15.893177,16.780009 0 0 1 1.46946,-6.51468 l -18.50253,-6.13308 a 29.547889,31.196649 0 0 1 1.32743,7.91393 c 0.14203,5.3199 -1.72974,7.9412 -3.2659,9.19053 a 5.5570358,5.8671159 0 0 1 -1.93413,1.0676 z"
     fill="#fbbebe"
     id="path2194"
     style="stroke-width:0.471445" />
  <path
     d="m 104.42025,179.17203 a 29.547889,31.196649 0 0 1 1.32743,7.91393 14.22061,15.014114 0 0 0 1.07573,1.20844 14.641484,15.458472 0 0 0 14.62991,3.52539 15.893177,16.780009 0 0 1 1.46946,-6.51468 z"
     opacity="0.1"
     id="path2196"
     style="stroke-width:0.471445" />
  <path
     d="m 102.29892,176.67338 a 14.62938,15.445693 0 1 0 14.62991,-15.44626 14.57568,15.388997 0 0 0 -14.62991,15.44626 z"
     fill="#fbbebe"
     id="path2198"
     style="stroke-width:0.471445" />
  <path
     d="m 100.54763,197.3441 1.7513,9.08603 8.57567,15.21912 10.5787,-4.77017 c 0,0 14.37821,-15.90056 5.34209,-18.17205 a 7.951672,8.3953718 0 0 1 -3.00127,-1.41063 c 1.63293,4.73383 -5.10326,14.58536 -5.10326,14.58536 -0.78315,1.21753 -2.58177,0.4543 -2.58177,0.4543 -4.33737,-0.69281 -12.32569,-13.86755 -13.62735,-16.05956 a 5.5570358,5.8671159 0 0 1 -1.93411,1.0676 z"
     opacity="0.1"
     id="path2200"
     style="stroke-width:0.471445" />
  <path
     d="m 92.266664,285.42411 c 2.545193,0.61104 16.637246,3.90698 21.979276,3.08243 5.87995,-0.9086 17.3128,-1.51282 17.3128,-1.51282 0,0 7.28053,0.41569 9.5202,-0.66555 -0.0151,-0.28622 -0.0215,-0.44522 -0.0215,-0.44522 l -4.15017,-5.24945 c 0,0 -40.161268,-3.18011 -43.173286,0 -0.740114,0.78139 -1.196221,2.55543 -1.467309,4.79061 z"
     opacity="0.1"
     id="path2202"
     style="stroke-width:0.471445" />
  <path
     d="m 118.69158,212.33605 c 0,0 7.56739,-11.06899 4.716,-15.3777 l 12.78253,5.5345 c 0,0 7.69384,-0.98463 10.47023,11.13783 a 19.864211,20.972625 0 0 1 0.4753,6.15284 c -0.10085,1.82786 0.13447,5.04583 2.10664,9.21028 3.15547,6.66309 2.43832,21.95791 -4.01604,23.47225 -6.45435,1.51434 -8.74926,0.75715 -8.74926,0.75715 0,0 0.86058,27.7124 4.58978,30.89251 3.72919,3.18011 -9.50818,2.42294 -9.50818,2.42294 0,0 -11.43268,0.60574 -17.31333,1.51434 -5.88066,0.90861 -22.375161,-3.18011 -22.375161,-3.18011 0,0 2.438316,-11.66041 3.298903,-19.08067 0.860587,-7.42026 2.868613,-23.22067 2.868613,-23.22067 L 83.407679,221.64925 c 0,0 -2.58177,-12.64473 6.45437,-18.24779 9.036139,-5.60305 12.436701,-6.98065 12.436701,-6.98065 0,0 9.07788,15.61237 13.81108,16.36955 0,-1e-5 1.79805,0.76277 2.58175,-0.45431 z"
     fill="#3f3d56"
     id="path2204"
     style="stroke-width:0.471445" />
  <path
     d="m 135.47296,216.72764 c 0,0 0.14343,4.99731 -0.71714,6.96595 -0.86056,1.96865 -4.01603,12.87188 -4.01603,12.87188 h 7.17152 c 0,0 -3.87262,-4.39158 -3.58576,-6.51165 0.28686,-2.12008 1.14741,-13.32618 1.14741,-13.32618 z"
     opacity="0.1"
     id="path2206"
     style="stroke-width:0.471445" />
  <path
     d="m 114.24524,254.43467 c 0,0 15.83727,-4.08871 17.31333,-7.57169 1.47606,-3.48298 5.5445,-11.27727 5.5445,-11.27727 l -1.6717,-2.37738 -7.70366,6.38582 c 0,0 -9.17958,7.72311 -13.48247,8.4803 -4.3029,0.75719 0,6.36022 0,6.36022 z"
     fill="#fbbebe"
     id="path2208"
     style="stroke-width:0.471445" />
  <path
     d="m 114.24524,254.43467 c 0,0 15.83727,-4.08871 17.31333,-7.57169 1.47606,-3.48298 5.5445,-11.27727 5.5445,-11.27727 l -1.6717,-2.37738 -7.70366,6.38582 c 0,0 -9.17958,7.72311 -13.48247,8.4803 -4.3029,0.75719 0,6.36022 0,6.36022 z"
     opacity="0.05"
     id="path2210"
     style="stroke-width:0.471445" />
  <path
     d="m 100.54763,234.74902 v 9.07241 h 1.38121 a 40.196715,42.439674 0 0 1 19.50299,5.32895 l 2.58819,1.51737 0.6971,0.40885 4.44489,-10.57387 -4.15879,-3.93653 c 0,0 -0.0752,0.009 -0.21299,0.0204 -1.01763,0.10448 -5.41736,0.49291 -7.28265,-0.17264 -1.77067,-0.63376 -3.97161,-2.64859 -9.1889,-1.24025 -2.56885,0.69281 -4.76333,3.73436 -7.25686,2.78487 z"
     fill="#fbbebe"
     id="path2212"
     style="stroke-width:0.471445" />
  <path
     d="m 86.706577,218.24198 -2.868609,3.40727 v 8.25314 c 0,0 2.43832,26.04663 10.18357,28.92387 7.745252,2.87725 21.571572,-1.66577 21.571572,-1.66577 0,0 3.57091,-9.99464 1.90039,-10.60037 -1.67052,-0.60574 -14.76446,-4.25734 -14.76446,-4.25734 0,0 0.18519,-15.27764 -2.68342,-19.82065 0,0 1.86459,-14.23478 -4.58978,-14.53765 -6.454374,-0.30287 -8.749263,10.2975 -8.749263,10.2975 z"
     opacity="0.1"
     id="path2214"
     style="stroke-width:0.471445" />
  <path
     d="m 86.276288,218.24198 -2.868609,3.40727 v 8.25314 c 0,0 2.438316,26.04663 10.183566,28.92387 7.745245,2.87725 21.571565,-1.66577 21.571565,-1.66577 0,0 3.57092,-9.99464 1.90039,-10.60037 -1.67052,-0.60574 -14.76445,-4.25734 -14.76445,-4.25734 0,0 0.18518,-15.27764 -2.683425,-19.82065 0,0 1.864595,-14.23478 -4.589774,-14.53765 -6.454369,-0.30287 -8.749263,10.2975 -8.749263,10.2975 z"
     fill="#3f3d56"
     id="path2216"
     style="stroke-width:0.471445" />
  <path
     d="m 106.31139,183.23802 a 5.7261011,6.045615 0 0 1 0.32702,-2.94841 c 0.40445,-0.90405 1.35113,-1.61731 2.27409,-1.38786 1.22849,0.30211 1.75773,1.98984 2.9604,2.39416 1.01333,0.34073 2.12134,-0.41795 2.60541,-1.41969 0.48408,-0.99945 0.497,-2.17156 0.49916,-3.29369 q 0.003,-1.89782 0.009,-3.79568 c 0.002,-1.37653 0.0409,-2.86438 0.84553,-3.9456 1.00041,-1.347 3.34983,-1.93533 4.91823,-1.88082 a 4.1598978,4.3920183 0 0 1 2.80764,1.19482 c 0.84122,0.75414 1.81153,1.30839 2.95609,1.11077 a 2.5523549,2.6947752 0 0 0 2.05896,-1.88081 0.34361351,0.36278699 0 0 0 0.0108,-0.0477 14.628894,15.44518 0 1 0 -21.75988,20.50261 39.538113,41.744323 0 0 1 -0.51202,-4.6021 z"
     opacity="0.1"
     id="path2218"
     style="stroke-width:0.471445" />
  <path
     d="m 126.51397,168.81196 a 2.5556768,2.6982824 0 0 0 2.05948,-1.88131 c 0.12057,-0.48889 0.0889,-1.01048 0.22522,-1.49474 0.33488,-1.18974 1.53793,-1.8101 2.34429,-2.71324 1.61629,-1.81028 1.51129,-4.78861 0.36716,-6.96347 -0.92335,-1.75519 -2.71459,-3.23727 -4.58827,-2.89419 -1.16,0.21239 -2.16362,1.08543 -3.33858,1.16406 -1.13117,0.0757 -2.16692,-0.59331 -3.19806,-1.09012 a 12.057163,12.729948 0 0 0 -7.92844,-0.74292 4.5678927,4.8227791 0 0 0 -2.1815,1.16167 18.582099,19.618972 0 0 0 -1.16368,1.72696 c -1.338,1.79898 -3.73101,2.15031 -5.86266,2.55867 -2.13165,0.40836 -4.544134,1.29652 -5.244749,3.46095 -0.464545,1.43516 -0.0139,2.99385 0.252992,4.48409 a 1.2483066,1.3179615 0 0 1 -0.05689,0.92572 c -0.332501,0.58072 -1.165012,0.33771 -1.794034,0.47707 -1.209444,0.26796 -1.520271,1.91305 -1.56479,3.21693 q -0.07643,2.23845 -0.115163,4.47811 a 5.4831569,5.7891146 0 0 0 0.125175,1.6619 5.5615597,5.8718923 0 0 0 1.219827,2.0842 l 4.736172,6.00723 c 2.09994,2.66351 4.33008,5.76802 3.90687,9.20462 0.99537,0.47157 2.17735,-0.43561 2.50377,-1.53473 0.32642,-1.09911 0.0628,-2.28324 -0.15836,-3.4112 a 39.722338,41.938827 0 0 1 -0.7488,-5.91387 5.7072987,6.0257635 0 0 1 0.32841,-2.94818 c 0.40333,-0.9053 1.35111,-1.61718 2.2738,-1.38937 1.22858,0.30334 1.75721,1.99029 2.95937,2.39484 1.01341,0.34103 2.1227,-0.41883 2.60593,-1.41924 0.48324,-1.00041 0.49618,-2.17133 0.49869,-3.29432 l 0.008,-3.79581 c 0.003,-1.37535 0.0415,-2.86421 0.8455,-3.94636 1.00033,-1.34645 3.35083,-1.93462 4.91957,-1.88081 a 4.1656835,4.3981268 0 0 1 2.80651,1.19534 c 0.84168,0.7544 1.81104,1.30857 2.95675,1.11152 z"
     fill="#3f3d56"
     id="path2220"
     style="stroke-width:0.471445" />
  <path
     d="m 123.20965,216.34905 -4.49172,19.48106 c 0,0 -3.54039,-0.0218 4.49172,-19.48106 z"
     opacity="0.1"
     id="path2222"
     style="stroke-width:0.471445" />
  <path
     d="m 107.86258,213.09322 c 0,0 5.88065,10.16828 3.58576,20.68183 l -1.09562,0.0845 c 0,0 1.95621,-4.86578 -2.49014,-20.76634 z"
     opacity="0.1"
     id="path2224"
     style="stroke-width:0.471445" />
  <path
     d="m 104.13339,270.6381 c 0,0 -7.220807,-2.52164 -7.74525,3.33154 0,0 1.362589,-4.013 7.74525,-3.33154 z"
     opacity="0.1"
     id="path2226"
     style="stroke-width:0.471445" />
  <path
     d="m 125.00253,237.01978 c 0,0 1.43431,10.60037 -1.14744,14.84051 0,0 5.25151,2.27151 12.62188,1.81721 l 0.86059,-16.65775 z"
     opacity="0.1"
     id="path2228"
     style="stroke-width:0.471445" />
  <path
     d="m 124.02002,250.66775 0.6971,0.40885 4.44489,-10.57387 -4.15878,-3.93653 h -0.21515 a 0.13252045,0.13991503 0 0 0 0.002,0.0204 c 0.0646,0.48838 1.2242,9.59259 -0.77021,14.08109 z"
     opacity="0.1"
     id="path2230"
     style="stroke-width:0.471445" />
  <path
     d="m 125.00253,236.56547 c 0,0 1.43431,10.60037 -1.14744,14.84052 0,0 5.25151,2.27151 12.62188,1.81721 l 5.02007,-16.65773 z"
     fill="#3f3d56"
     id="path2232"
     style="stroke-width:0.471445" />
  <path
     d="m 136.49075,417.30391 a 3.2480885,3.4293304 0 0 0 2.7853,2.99994 c 3.89533,0.61437 13.27698,-1.2098 15.6464,-0.0197 3.01204,1.51511 14.91608,0.45431 15.4905,-1.05853 a 2.2635886,2.3898958 0 0 0 -0.20653,-1.82175 4.5795788,4.8351172 0 0 0 -1.92342,-2.18289 4.7654781,5.0313897 0 0 0 -0.86271,-0.40434 c -2.24186,-0.79047 -6.47805,-2.46688 -7.62051,-4.22275 0,0 -5.2786,-4.87648 -6.78518,-7.51386 a 3.4455821,3.6378441 0 0 0 -2.75759,-1.81322 c -1.25645,-0.0593 -2.65598,0.60791 -3.22824,3.5143 0,0 -6.88036,4.1455 -8.74356,0.51109 0,0 -0.28611,8.9743 -1.42854,10.50077 -0.002,0.002 -0.004,0.007 -0.006,0.009 a 1.9091424,2.0156717 0 0 0 -0.35946,1.50191 z"
     fill="#cbceda"
     id="path2234"
     style="stroke-width:0.471445" />
  <path
     d="m 136.49075,417.30391 a 3.2480885,3.4293304 0 0 0 2.7853,2.99994 c 3.89533,0.61437 13.27698,-1.2098 15.6464,-0.0197 3.01204,1.51511 14.91608,0.45431 15.4905,-1.05853 a 2.2635886,2.3898958 0 0 0 -0.20653,-1.82175 4.5795788,4.8351172 0 0 0 -1.92342,-2.18289 c -1.94059,1.35836 -6.24997,2.68946 -15.72715,1.12666 -9.04043,-1.49012 -13.51547,0.44025 -15.69918,-0.55466 -0.002,0.002 -0.004,0.007 -0.006,0.009 a 1.9091424,2.0156717 0 0 0 -0.35946,1.5019 z"
     opacity="0.1"
     id="path2236"
     style="stroke-width:0.471445" />
  <g
     opacity="0.1"
     id="g2246"
     transform="matrix(0.45881816,0,0,0.48442001,48.933574,33.608027)">
    <path
       d="m 219.04105,321.67135 c -0.009,-0.0501 -0.0174,-0.10054 -0.0268,-0.15 -0.443,-2.34276 -1.11573,-4.76718 -0.9653,-7.09881 a 45.60409,45.60409 0 0 0 0.9653,5.69207 3.38839,3.38839 0 0 1 0.0268,1.55674 z"
       transform="translate(-111.51074,-48.78194)"
       id="path2238" />
    <path
       d="m 237.2832,350.93339 a 9.1354,9.1354 0 0 0 -0.76759,3.57228 10.76385,10.76385 0 0 1 0.76759,-4.979 c 0.8791,-1.86884 2.94479,-3.33837 4.95576,-2.86811 2.6777,0.6262 3.82984,4.10859 6.45,4.94373 2.20879,0.704 4.62651,-0.86462 5.67973,-2.92976 1.05322,-2.06514 1.08138,-4.48235 1.08688,-6.80056 q 0.009,-3.9179 0.0184,-7.83577 c 0.007,-2.83918 0.0906,-5.91267 1.84279,-8.14659 2.18029,-2.77951 7.30319,-3.99369 10.72227,-3.88258 a 9.07894,9.07894 0 0 1 6.11682,2.46757 c 1.83466,1.55734 3.94735,2.70132 6.44446,2.29454 a 5.57021,5.57021 0 0 0 4.48867,-3.88362 c 0.26273,-1.00923 0.19376,-2.08595 0.49089,-3.08563 0.72982,-2.456 3.35188,-3.73665 5.10939,-5.601 a 10.23456,10.23456 0 0 0 2.63678,-6.6074 10.65727,10.65727 0 0 1 -2.63678,8.01414 c -1.75751,1.86437 -4.37957,3.145 -5.10939,5.601 -0.29713,0.99968 -0.22816,2.0764 -0.49089,3.08563 a 5.57021,5.57021 0 0 1 -4.48867,3.88362 c -2.49711,0.40677 -4.6098,-0.7372 -6.44446,-2.29454 a 9.079,9.079 0 0 0 -6.11682,-2.46758 c -3.41908,-0.1111 -8.542,1.10308 -10.72227,3.88259 -1.75224,2.23392 -1.836,5.30741 -1.84279,8.14659 q -0.009,3.91785 -0.0184,7.83577 c -0.005,2.31821 -0.0337,4.73538 -1.08688,6.80056 -1.05322,2.06518 -3.47094,3.63379 -5.67973,2.92976 -2.62012,-0.83514 -3.77226,-4.31753 -6.45,-4.94374 -2.01096,-0.47029 -4.07666,0.99926 -4.95576,2.8681 z"
       transform="translate(-111.51074,-48.78194)"
       id="path2240" />
    <path
       d="m 211.59145,342.32619 a 12.12287,12.12287 0 0 0 2.65858,4.30247 q 5.16124,6.20041 10.32261,12.40086 c 4.34546,5.22043 8.943,11.262 8.60758,17.9314 -0.31345,-6.11379 -4.56962,-11.67371 -8.60758,-16.52466 q -5.16125,-6.20041 -10.32261,-12.40087 a 12.12269,12.12269 0 0 1 -2.65858,-4.30247 11.94551,11.94551 0 0 1 -0.27281,-3.42949 8.50743,8.50743 0 0 0 0.27281,2.02276 z"
       transform="translate(-111.51074,-48.78194)"
       id="path2242" />
    <path
       d="m 238.54467,374.86269 a 7.34444,7.34444 0 0 0 0.30864,-1.67277 8.3752,8.3752 0 0 1 -0.30864,3.07951 c -0.71139,2.26892 -3.28755,4.14162 -5.457,3.16816 a 13.61224,13.61224 0 0 0 0.107,-1.36773 c 2.1466,0.86714 4.65018,-0.97517 5.35,-3.20717 z"
       transform="translate(-111.51074,-48.78194)"
       id="path2244" />
  </g>
  <path
     d="m 153.96068,404.45066 c 0,0 -1.49879,2.78465 -6.93191,0.33041"
     opacity="0.1"
     id="path2248"
     style="stroke-width:0.471445" />
  <path
     d="m 108.95054,404.63707 c 0,0 -4.68652,5.82404 -10.590514,1.90969"
     opacity="0.1"
     id="path2250"
     style="stroke-width:0.471445" />
  <path
     d="m 95.313111,335.7539 c 0,0 3.310428,2.18342 3.418003,3.43276 0.107574,1.24933 -1.709002,-0.90861 -1.709002,-0.90861 z"
     opacity="0.1"
     id="path2252"
     style="stroke-width:0.471445" />
  <path
     d="m 94.006686,352.49794 a 6.912715,7.2984414 0 0 0 4.07899,1.68067 c 2.474174,0.11357 2.268224,3.52083 0.65003,2.49864 -1.618192,-1.0222 -4.72902,-4.17931 -4.72902,-4.17931 z"
     opacity="0.1"
     id="path2254"
     style="stroke-width:0.471445" />
  <path
     d="m 93.376738,354.68313 c 0,0 1.589346,8.24078 2.880199,6.65073"
     opacity="0.1"
     id="path2256"
     style="stroke-width:0.471445" />
  <path
     d="m 55.223792,346.37487 a 9.5491621,10.082001 0 1 0 1.27166,-19.33574 l 0.239012,5.18921 -2.325359,-4.4472 a 9.5131357,10.043965 0 0 0 -4.901857,5.67867 9.3637766,9.8862713 0 0 0 -0.549265,2.72722 9.5473406,10.080078 0 0 0 6.265809,10.18784 z"
     fill="#57b894"
     id="path2258"
     style="stroke-width:0.471445" />
  <path
     d="m 66.729731,406.56087 c -0.820853,-4.4132 2.736075,-8.32563 6.249502,-10.86869 3.513428,-2.54307 7.618676,-5.04174 8.817453,-9.35747 1.722862,-6.20245 -3.409019,-11.88273 -7.403325,-16.78116 a 57.489915,60.697827 0 0 1 -7.581323,-11.89608 c -0.830956,-1.71122 -1.594659,-3.50008 -1.81335,-5.40916 -0.314933,-2.74931 0.521649,-5.48514 1.364484,-8.10761 q 4.211597,-13.10438 9.005875,-25.98916"
     fill="none"
     stroke="#3f3d56"
     stroke-miterlimit="10"
     id="path2260"
     style="stroke-width:0.471445" />
  <path
     d="m 55.617054,345.03887 a 9.5491621,10.082001 0 1 0 1.271656,-19.33574 l 0.239017,5.1892 -2.32536,-4.44719 a 9.5131357,10.043965 0 0 0 -4.901861,5.67867 9.3639418,9.8864457 0 0 0 -0.549265,2.72721 9.5473498,10.080088 0 0 0 6.265813,10.18785 z"
     fill="none"
     stroke="#3f3d56"
     stroke-miterlimit="10"
     id="path2262"
     style="stroke-width:0.471445" />
  <path
     d="m 65.562589,316.35949 a 9.5380174,10.070235 0 0 1 6.873064,-6.39321 l 0.78624,4.93323 1.457665,-5.18119 a 9.5480059,10.08078 0 1 1 -9.116978,6.64116 z"
     fill="#57b894"
     id="path2264"
     style="stroke-width:0.471445" />
  <path
     d="m 66.08694,314.57815 a 9.5380037,10.07022 0 0 1 6.873064,-6.39319 l 0.786236,4.93322 1.457665,-5.18119 a 9.5480059,10.08078 0 1 1 -9.116978,6.64116 z"
     fill="none"
     stroke="#3f3d56"
     stroke-miterlimit="10"
     id="path2266"
     style="stroke-width:0.471445" />
  <path
     d="m 72.71712,369.65354 a 9.5480059,10.08078 0 0 0 8.450971,-17.93453 l -1.120076,3.98158 -0.794214,-4.99138 a 0.16613806,0.17540849 0 0 0 -0.02432,-0.01 9.5485264,10.08133 0 1 0 -6.512374,18.95407 z"
     fill="#57b894"
     id="path2268"
     style="stroke-width:0.471445" />
  <path
     d="m 73.171446,367.84923 a 9.5480059,10.08078 0 0 0 8.450972,-17.93453 l -1.120072,3.98158 -0.794237,-4.99138 a 0.16601417,0.17527769 0 0 0 -0.02432,-0.01 9.5485264,10.08133 0 1 0 -6.512374,18.95407 z"
     fill="none"
     stroke="#3f3d56"
     stroke-miterlimit="10"
     id="path2270"
     style="stroke-width:0.471445" />
  <path
     d="m 62.775943,386.39637 a 9.5440188,10.076571 0 1 0 1.840127,-7.89478 l 4.25447,6.76083 -5.813204,-3.58841 a 9.4591649,9.9869822 0 0 0 -0.281393,4.72236 z"
     fill="#57b894"
     id="path2272"
     style="stroke-width:0.471445" />
  <path
     d="m 63.169201,385.06036 a 9.5440234,10.076576 0 1 0 1.840131,-7.89477 l 4.254465,6.76083 -5.813198,-3.58844 a 9.4592292,9.98705 0 0 0 -0.281398,4.72238 z"
     fill="none"
     stroke="#3f3d56"
     stroke-miterlimit="10"
     id="path2274"
     style="stroke-width:0.471445" />
  <path
     d="m 53.471983,412.53865 c 0,0 8.426406,-3.48652 10.965914,-5.39577 2.539508,-1.90926 12.961935,-4.18901 13.591924,-1.12699 0.629989,3.06203 12.663322,15.22912 3.149952,15.31014 -9.51337,0.081 -22.10484,1.64797 -24.639453,0.0179 -2.534612,-1.63009 -3.068337,-8.80527 -3.068337,-8.80527 z"
     fill="#656380"
     id="path2276"
     style="stroke-width:0.471445" />
  <path
     d="m 81.349549,420.26013 c -9.513369,0.081 -22.104835,1.648 -24.639452,0.0179 -1.930248,-1.2414 -2.699434,-5.69584 -2.956799,-7.75094 -0.178233,0.008 -0.281306,0.0116 -0.281306,0.0116 0,0 0.533711,7.17517 3.068333,8.80527 2.534621,1.63009 15.126087,0.0632 24.639452,-0.0179 2.746133,-0.0234 3.694698,-1.05493 3.642613,-2.58275 -0.381503,0.92307 -1.428856,1.49946 -3.472841,1.51686 z"
     opacity="0.2"
     id="path2278"
     style="stroke-width:0.471445" />
  <line
     x1="72.248901"
     y1="420.92871"
     x2="197.04745"
     y2="420.92871"
     fill="none"
     stroke="#3f3d56"
     stroke-miterlimit="10"
     id="line2280"
     style="stroke-width:0.471445" />
  <path
     d="m 279.04235,143.40768 v 9.95623 a 5.2383127,5.3745499 0 0 1 -5.23803,5.37426 h -34.52728 a 5.2383228,5.3745601 0 0 1 -5.23803,-5.37426 v -1.27765 a 102.27076,104.9306 0 0 1 9.16815,-43.42435 l 1.05988,-2.39395 h 24.73266 a 5.1135756,5.2465686 0 0 1 4.93375,3.86705 l 1.5048,5.66154 a 102.27581,104.93577 0 0 1 3.6041,27.61113 z"
     style="fill:#eedc9a;stroke-width:0.129502"
     id="path2328" />
  <path
     d="m 275.43825,115.79655 -1.5048,-5.66154 a 5.1144258,5.2474405 0 0 0 -4.09633,-3.79635 v -0.0707 h -9.20523 v 8.39523 h 4.68161 a 102.27197,104.93184 0 0 0 -6.72721,37.42307 v 1.27765 a 5.238103,5.3743348 0 0 0 5.23803,5.37426 h 9.98 a 5.238103,5.3743348 0 0 0 5.23803,-5.37426 v -9.95623 a 102.27581,104.93577 0 0 0 -3.6041,-27.61113 z"
     style="fill:#e88604;stroke-width:0.129502"
     id="path2330" />
  <path
     d="m 263.7003,115.7126 a 3.0684099,3.1482126 0 0 0 3.06841,3.14821 h -27.61569 a 3.0684099,3.1482126 0 0 1 -3.06841,-3.14821 v -4.19762 a 5.1140166,5.247021 0 0 1 5.11402,-5.24702 h 27.61569 a 5.1140166,5.247021 0 0 0 -5.11402,5.24702 z"
     style="fill:#ece9c0;stroke-width:0.129502"
     id="path2332" />
  <path
     d="m 263.7003,112.56439 h 6.13682 v 3.14821 a 3.0684099,3.1482126 0 0 1 -3.06841,3.14821 v 0 a 3.0684099,3.1482126 0 0 1 -3.06841,-3.14821 z"
     style="fill:#eebe33;stroke-width:0.129502"
     id="path2334" />
  <path
     d="m 244.26704,139.84889 v 0 a 16.356008,16.781392 0 0 0 1.11213,6.08236 l 3.51158,9.26462 a 10.228033,10.494042 0 0 0 9.53257,6.69051 h 20.78199 a 10.228033,10.494042 0 0 0 9.53258,-6.69051 l 3.51157,-9.26462 a 16.356008,16.781392 0 0 0 1.11214,-6.08236 v 0 z"
     style="fill:#379ec3;stroke-width:0.129502"
     id="path2336" />
  <path
     d="m 293.3616,139.84889 c 0,1.89023 -2.38697,3.6139 -6.30942,4.91646 -4.49266,1.49146 -10.99897,2.42937 -18.23786,2.42937 -7.23889,0 -13.7452,-0.93791 -18.23786,-2.42937 -3.92245,-1.30256 -6.30942,-3.02623 -6.30942,-4.91646 0,-4.05726 10.99002,-7.34583 24.54728,-7.34583 13.55726,0 24.54728,3.28857 24.54728,7.34583 z"
     style="fill:#8acce7;stroke-width:0.129502"
     id="path2338" />
  <path
     d="m 287.22478,144.04651 a 1.5616238,1.6022382 0 0 1 -0.1726,0.71884 c -4.49266,1.49146 -10.99897,2.42937 -18.23786,2.42937 -7.23889,0 -13.7452,-0.93791 -18.23786,-2.42937 a 1.5616238,1.6022382 0 0 1 -0.1726,-0.71884 c 0,-2.89768 8.24251,-5.24702 18.41046,-5.24702 10.16794,0 18.41046,2.34934 18.41046,5.24702 z"
     style="fill:#eedc9a;stroke-width:0.129502"
     id="path2340" />
  <path
     d="m 277.54152,124.6242 8.14096,-13.66803 a 2.9818552,3.0594067 0 0 1 4.07851,-1.02809 v 0 a 2.9818552,3.0594067 0 0 1 1.01022,4.21875 l -8.14095,13.66802 a 2.9818552,3.0594067 0 0 1 -4.07852,1.02809 v 0 a 2.9818552,3.0594067 0 0 1 -1.01022,-4.21874 z"
     style="fill:#a6b2bc;stroke-width:0.129502"
     id="path2342" />
  <path
     d="m 235.44043,155.1553 a 4.1880804,4.2970032 0 0 1 -0.37862,-1.79149 v -1.27787 a 101.07771,103.70653 0 0 1 4.97992,-32.17573 h 22.3972 c -0.93989,3.02807 -1.75352,6.12218 -2.42287,9.21732 l 1.99703,0.45464 c 0.70318,-3.25166 1.57048,-6.50112 2.57681,-9.67196 h 2.17881 a 4.0958159,4.202339 0 0 0 4.09122,-4.19761 v -3.14821 a 1.0227739,1.049374 0 0 0 -1.02281,-1.04941 h -5.11402 a 4.0958159,4.202339 0 0 1 4.09122,-4.19762 h 0.18516 a 4.1000669,4.2067007 0 0 1 3.947,3.09313 l 1.50512,5.66226 c 0.35696,1.34269 0.69231,2.71286 0.99683,4.07246 l 1.99367,-0.47 c -0.31064,-1.38701 -0.6528,-2.78486 -1.01693,-4.1547 l -1.50512,-5.66226 a 6.1503028,6.310259 0 0 0 -5.92057,-4.6397 h -27.80085 a 6.1437697,6.3035556 0 0 0 -6.13682,6.29643 v 4.19762 a 4.0983537,4.2049429 0 0 0 2.88754,4.01197 103.11481,105.7966 0 0 0 -4.93315,32.36137 v 1.27787 a 6.219181,6.3809286 0 0 0 0.56241,2.66086 z m 33.37389,-41.54151 v 2.09881 a 2.04561,2.0988119 0 0 1 -4.09122,0 v -2.09881 z m -31.7069,2.09881 v -4.19762 a 4.0958159,4.202339 0 0 1 4.09121,-4.19762 h 23.04529 a 6.1123021,6.2712695 0 0 0 -1.56642,4.19762 v 4.19762 a 4.0667708,4.1725386 0 0 0 0.54905,2.0988 h -24.07353 a 2.0479501,2.1012128 0 0 1 -2.0456,-2.0988 z"
     id="path2352"
     style="stroke-width:0.129502" />
  <path
     d="m 284.38922,133.09233 -0.4657,2.04372 c 6.21135,1.49007 8.41528,3.47007 8.41528,4.71284 0,1.06842 -1.478,2.30829 -4.21084,3.40382 -0.47756,-1.56079 -2.39885,-2.8513 -5.73216,-3.84365 l -0.57008,2.01566 c 2.84087,0.84573 4.2194,1.86646 4.36297,2.51234 -4.06371,1.2687 -9.99795,2.20826 -17.37437,2.20826 -7.37673,0 -13.31116,-0.93964 -17.37489,-2.20842 0.20442,-0.99039 3.1214,-2.67313 9.33224,-3.55216 l -0.27955,-2.07908 c -3.11617,0.44105 -5.76444,1.12511 -7.65842,1.97827 -1.86637,0.84066 -2.98277,1.83671 -3.33267,2.96891 -2.73305,-1.09557 -4.21119,-2.33547 -4.21119,-3.40395 0,-0.44239 0.3514,-2.01413 4.87324,-3.66497 3.44453,-1.25751 8.27457,-2.13608 13.60034,-2.47383 l -0.12622,-2.09483 c -5.51137,0.34952 -10.54011,1.2698 -14.15988,2.59129 -5.15172,1.88084 -6.23309,4.10647 -6.23309,5.64234 a 17.311103,17.761327 0 0 0 1.18169,6.4627 l 2.06989,5.46108 1.90652,-0.76066 -2.0699,-5.46108 a 15.376025,15.775921 0 0 1 -0.58556,-1.8904 c 1.31174,0.89944 3.12744,1.70297 5.42353,2.39006 4.72685,1.41455 10.99288,2.19353 17.64392,2.19353 6.65103,0 12.91707,-0.77898 17.64392,-2.19353 2.29608,-0.68709 4.11179,-1.49062 5.42353,-2.39006 a 15.376025,15.775921 0 0 1 -0.58557,1.8904 l -3.51158,9.26459 a 9.1931146,9.4322074 0 0 1 -1.36165,2.43962 l 1.60362,1.30292 a 11.235279,11.527485 0 0 0 1.66455,-2.98188 l 3.51158,-9.26459 a 17.311103,17.761327 0 0 0 1.18168,-6.4627 c 0,-3.79243 -6.2623,-5.86101 -9.99518,-6.75656 z"
     id="path2354"
     style="stroke-width:0.129502" />
  <path
     d="m 276.26989,124.97001 a 20.970077,21.515463 0 0 0 -11.56408,10.54637 l -2.94312,6.03805 1.82962,0.93872 2.94324,-6.0383 a 18.918251,19.410273 0 0 1 9.67297,-9.21105 4.054051,4.159488 0 0 0 0.19832,0.59848 c -2.82128,2.43711 -5.3566,5.75905 -7.19523,9.4485 l -3.01092,6.00128 1.81875,0.96063 3.01223,-6.00384 c 1.7066,-3.42447 4.04381,-6.49877 6.63769,-8.75306 a 4.0770219,4.1830563 0 0 0 0.35619,0.24702 3.9924949,4.0963309 0 0 0 0.42194,0.22381 q -0.61414,1.18026 -1.28081,2.45568 -1.67326,3.20441 -3.44778,6.64383 l -2.31941,4.48886 1.80739,0.98304 2.32085,-4.49174 q 1.76502,-3.44162 3.44203,-6.63281 c 0.52868,-1.01245 1.03702,-1.98602 1.51656,-2.90904 a 18.67196,19.157577 0 0 1 -2.26006,10.33736 l -1.43638,2.70223 1.79589,1.00496 1.43626,-2.70198 a 20.717632,21.256452 0 0 0 2.44303,-12.32517 3.9678721,4.0710678 0 0 0 1.03795,-1.15978 l 8.14091,-13.66806 a 4.0046449,4.1087969 0 0 0 -6.83419,-4.28505 l -8.14091,13.66807 a 4.0337394,4.1386481 0 0 0 -0.39893,0.89299 z m 2.14438,0.20138 8.14092,-13.66801 a 1.9590685,2.0100196 0 1 1 3.34327,2.09625 l -8.14091,13.66801 a 1.9590707,2.0100218 0 1 1 -3.34328,-2.09625 z"
     id="path2356"
     style="stroke-width:0.129502" />
  <path
     d="m 294.26652,236.77464 h -26.03005 v 39.00895 h 26.03005 z"
     style="fill:#ad6643;stroke-width:0.126721"
     id="path2484" />
  <path
     d="m 285.25611,244.03968 c 0,-4.0124 -7.17178,-7.26504 -16.0185,-7.26504 -8.84671,0 -16.01849,3.25264 -16.01849,7.26504 0,1.84228 1.51275,3.52415 4.00462,4.80477 v 22.83294 h 24.02775 v -22.83294 c 2.49188,-1.28062 4.00462,-2.96249 4.00462,-4.80477 z"
     style="fill:#fbe9d8;stroke-width:0.126721"
     id="path2486" />
  <path
     d="m 264.23184,276.81015 h -7.37765 c -1.66154,0 -2.90773,-1.59115 -2.58186,-3.29779 v 0 c 0.6599,-3.45435 3.55736,-5.94117 6.9225,-5.94117 h 3.03701 z"
     style="fill:#f7b030;stroke-width:0.126721"
     id="path2488" />
  <path
     d="m 302.27576,276.81015 c 4.97637,0 9.0104,-13.32849 9.0104,-29.76999 0,-16.44151 -4.03403,-29.76999 -9.0104,-29.76999 h -4.00462 v 59.53998 z"
     style="fill:#ad6643;stroke-width:0.126721"
     id="path2490" />
  <path
     d="m 307.28154,247.04016 c 0,16.4415 -4.03465,29.76999 -9.0104,29.76999 -3.32759,0 -6.2347,-5.9617 -7.79526,-14.82853 q -0.17519,-0.99704 -0.32787,-2.04028 a 85.389088,87.555076 0 0 1 -0.88477,-12.15693 c -10e-4,-0.24766 -0.002,-0.4953 -0.002,-0.74425 q 0,-0.69869 0.01,-1.38969 a 84.883378,87.036538 0 0 1 0.84473,-11.2818 q 0.16331,-1.14204 0.35289,-2.22632 c 1.55931,-8.89123 4.47017,-14.87218 7.80277,-14.87218 4.97575,0 9.01041,13.32848 9.01041,29.76999 z"
     style="fill:#c48669;stroke-width:0.126721"
     id="path2492" />
  <path
     d="m 272.24109,276.81015 h -9.59095 c -2.16,0 -3.78012,-2.47566 -3.3565,-5.12916 v 0 c 0.85848,-5.37413 4.62459,-9.24257 8.99939,-9.24257 h 3.94806 z"
     style="fill:#e09f2c;stroke-width:0.126721"
     id="path2494" />
  <path
     d="m 286.25727,276.81015 h 7.37764 c 1.66154,0 2.90773,-1.59115 2.58186,-3.29779 v 0 c -0.65989,-3.45487 -3.55736,-5.94117 -6.92249,-5.94117 h -3.03701 z"
     style="fill:#f7b030;stroke-width:0.126721"
     id="path2496" />
  <path
     d="m 278.24802,276.81015 h 9.59095 c 2.16,0 3.78011,-2.47566 3.35649,-5.12916 v 0 c -0.85848,-5.37413 -4.62459,-9.24257 -8.99938,-9.24257 h -3.94806 z"
     style="fill:#e09f2c;stroke-width:0.126721"
     id="path2498" />
  <path
     d="m 281.88347,276.81015 h -13.27783 a 2.0023118,2.0531026 0 0 1 -1.95952,-1.63105 l -1.20138,-5.86495 c -1.10365,-5.38709 2.21831,-10.67768 7.38352,-11.75813 v 0 a 12.090709,12.397403 0 0 1 4.83383,0 v 0 c 5.16459,1.08045 8.48655,6.37104 7.38353,11.75813 l -1.20139,5.86495 a 2.0023118,2.0531026 0 0 1 -1.96076,1.63105 z"
     style="fill:#f7b030;stroke-width:0.126721"
     id="path2500" />
  <path
     d="m 276.87844,243.8884 a 1.0011559,1.0265513 0 1 0 0.73685,-1.90888 c -2.31855,-0.94121 -5.29361,-1.4595 -8.37768,-1.4595 -3.08406,0 -6.05912,0.51829 -8.37767,1.4595 a 1.0011559,1.0265513 0 1 0 0.73685,1.90888 c 2.08992,-0.84818 4.8033,-1.31528 7.64082,-1.31528 2.83753,0 5.55104,0.4671 7.64083,1.31528 z"
     id="path2502"
     style="stroke-width:0.126721" />
  <path
     d="m 302.27576,216.24362 h -4.00462 c -2.92413,0 -5.45794,3.26495 -7.32746,9.44171 -0.88603,2.92758 -1.56781,6.34485 -2.02272,10.06277 h -20.68449 v 0.0151 c -4.04067,0.10972 -7.81979,0.88028 -10.73065,2.20054 -3.40994,1.54651 -5.28786,3.70432 -5.28786,6.07591 0,2.03912 1.41627,3.94927 4.00462,5.42352 v 18.88419 a 8.2204913,8.4290123 0 0 0 -2.93276,4.96812 3.7147889,3.8090186 0 0 0 0.7759,3.16422 3.6029096,3.6943014 0 0 0 2.78847,1.35697 h 36.78072 a 3.5892688,3.6803145 0 0 0 2.23407,-0.79929 4.267427,4.3756749 0 0 0 2.40216,0.79929 h 4.00462 c 2.92412,0 5.45793,-3.26495 7.32746,-9.4417 1.73087,-5.71867 2.6841,-13.3027 2.6841,-21.35484 0,-8.05213 -0.95323,-15.63617 -2.6841,-21.35484 -1.86953,-6.17675 -4.40334,-9.4417 -7.32746,-9.4417 z m -45.42157,59.53997 a 1.6078563,1.6486413 0 0 1 -1.24256,-0.6086 1.719235,1.7628452 0 0 1 -0.35678,-1.4649 6.1902723,6.3472949 0 0 1 3.65998,-4.64103 14.001541,14.356705 0 0 0 -0.60908,2.44615 5.8851697,6.0344535 0 0 0 0.84722,4.26838 z m 6.37649,0 h -0.58054 c -0.59181,0 -1.16384,-0.29641 -1.60923,-0.83406 -0.65865,-0.79494 -0.94246,-1.95469 -0.75925,-3.10237 0.50057,-3.13765 2.0899,-5.76409 4.24639,-7.2019 a 10.779946,11.053391 0 0 0 -0.0632,4.88035 l 1.20139,5.86418 a 2.9469023,3.0216538 0 0 0 0.11088,0.39354 z m 2.37024,-13.92862 c -2.28339,0.76786 -4.23889,2.48477 -5.57844,4.78117 a 7.8928625,8.0930734 0 0 0 -1.79758,0.5057 v -18.29739 a 1.0011559,1.0265513 0 0 0 -0.55251,-0.91772 c -2.22569,-1.1441 -3.45212,-2.52455 -3.45212,-3.88705 0,-1.48759 1.49285,-3.01768 4.09561,-4.19821 2.9006,-1.31578 6.77945,-2.04028 10.92173,-2.04028 4.14229,0 8.02177,0.7245 10.92174,2.04028 2.60301,1.18053 4.09561,2.71073 4.09561,4.19834 0,1.3625 -1.22642,2.74295 -3.45212,3.88704 a 1.0011559,1.0265513 0 0 0 -0.55251,0.9176 v 8.52462 a 10.378607,10.641872 0 0 0 -2.38875,-0.8188 13.015902,13.346065 0 0 0 -5.23405,0 10.373101,10.636226 0 0 0 -6.62991,4.62909 c -0.14153,0.22097 -0.27181,0.4472 -0.3967,0.67561 z m 18.46369,7.24809 -1.20139,5.86507 a 1.0057863,1.0312991 0 0 1 -0.97975,0.81546 h -13.27783 a 1.0057863,1.0312991 0 0 1 -0.97976,-0.81546 l -1.20139,-5.86507 a 8.7210692,8.9422883 0 0 1 1.2467,-6.79628 8.3839296,8.596597 0 0 1 5.35618,-3.74487 11.025229,11.304897 0 0 1 4.43337,0 8.3839296,8.596597 0 0 1 5.35618,3.74487 8.7210692,8.9422883 0 0 1 1.24769,6.79628 z m 5.38384,5.84647 c -0.44589,0.53804 -1.01742,0.83406 -1.60923,0.83406 h -3.12736 a 2.9507818,3.0256315 0 0 0 0.11087,-0.39342 l 1.20139,-5.86493 a 10.779946,11.053391 0 0 0 -0.0626,-4.88037 c 2.15661,1.43718 3.74545,4.06438 4.2464,7.20203 0.18271,1.14768 -0.10112,2.30705 -0.7595,3.10263 z m -4.56026,-13.09456 c -0.12515,-0.22841 -0.25517,-0.45464 -0.39671,-0.67561 a 10.583218,10.851674 0 0 0 -2.23883,-2.52249 v -9.19366 c 2.58836,-1.47426 4.00462,-3.38441 4.00462,-5.42353 0,-2.37159 -1.87792,-4.52966 -5.28786,-6.07591 -0.12289,-0.0558 -0.25029,-0.10881 -0.37543,-0.16258 h 8.10248 c -0.28746,2.94929 -0.43688,6.05731 -0.43688,9.23897 0,7.25708 0.76714,14.08711 2.17751,19.54541 -1.33842,-2.27125 -3.28229,-3.96839 -5.5489,-4.7306 z m 9.98928,13.3195 a 1.6078563,1.6486413 0 0 1 -1.24256,0.60912 h -2.29878 a 5.8852949,6.0345819 0 0 0 0.84723,-4.26853 14.011803,14.367226 0 0 0 -0.60907,-2.446 6.1900218,6.3470381 0 0 1 3.65996,4.64116 1.7191098,1.7627169 0 0 1 -0.35678,1.46477 z m 3.39367,0.60912 a 2.2832611,2.3411785 0 0 1 -1.22817,-0.41292 3.7304321,3.8250583 0 0 0 0.1563,-2.05516 8.2034714,8.4115611 0 0 0 -4.47103,-5.96246 50.192201,51.465378 0 0 1 -1.2363,-5.40595 c 1.38247,-0.3978 4.44889,-0.93325 8.46489,0.43923 v 0 a 1.0011559,1.0265513 0 1 0 0.63299,-1.94659 v 0 l -0.0111,-0.004 -0.0141,-0.004 c -4.30935,-1.46669 -7.65884,-0.99601 -9.4036,-0.52405 a 84.817175,86.968651 0 0 1 -0.89654,-12.17105 c 1.22379,-0.42678 4.38969,-1.19092 8.69103,0.27922 v 0 a 1.0011559,1.0265513 0 1 0 0.63298,-1.9466 v 0 l -0.011,-0.003 -0.0145,-0.005 c -4.21399,-1.43381 -7.51017,-0.96611 -9.29086,-0.46899 a 83.723913,85.84766 0 0 1 0.8555,-11.24626 c 1.14119,-0.38496 4.41059,-1.184 8.82882,0.32606 v 0 a 1.0011559,1.0265513 0 1 0 0.63298,-1.9466 v 0 l -0.0111,-0.004 -0.0141,-0.004 c -4.05381,-1.37967 -7.257,-1.0449 -9.07511,-0.60732 a 49.268509,50.518254 0 0 1 1.36633,-5.81183 c 1.51638,-5.01098 3.54071,-8.00081 5.41588,-8.00081 1.87516,0 3.8995,2.98983 5.41512,7.99709 1.67293,5.52772 2.59413,12.89477 2.59413,20.74635 0,7.85158 -0.9212,15.21927 -2.59413,20.74634 -1.51562,5.00726 -3.53996,7.99709 -5.41512,7.99709 z m 9.41975,-7.99709 c -1.51563,5.00726 -3.53996,7.99709 -5.41513,7.99709 h -0.23264 c 1.34918,-1.58229 2.54882,-4.06244 3.55547,-7.38859 1.73088,-5.71866 2.6841,-13.3027 2.6841,-21.35484 0,-8.05213 -0.95322,-15.63617 -2.6841,-21.35483 -1.00665,-3.32616 -2.20629,-5.8063 -3.55547,-7.38861 h 0.23264 c 1.87517,0 3.8995,2.98983 5.41513,7.99709 1.67292,5.52772 2.59411,12.89478 2.59411,20.74635 0,7.85158 -0.92119,15.21927 -2.59411,20.74634 z"
     id="path2504"
     style="stroke-width:0.126721" />
</svg>
