<?xml version="1.0" encoding="UTF-8" standalone="no"?>
<svg
   xmlns:dc="http://purl.org/dc/elements/1.1/"
   xmlns:cc="http://creativecommons.org/ns#"
   xmlns:rdf="http://www.w3.org/1999/02/22-rdf-syntax-ns#"
   xmlns:svg="http://www.w3.org/2000/svg"
   xmlns="http://www.w3.org/2000/svg"
   xmlns:sodipodi="http://sodipodi.sourceforge.net/DTD/sodipodi-0.dtd"
   xmlns:inkscape="http://www.inkscape.org/namespaces/inkscape"
   width="560px"
   height="454px"
   viewBox="0 0 560 454"
   version="1.1"
   id="svg1243"
   sodipodi:docname="TT2_Phone.svg"
   inkscape:version="1.0.2 (e86c870879, 2021-01-15)">
  <metadata
     id="metadata1249">
    <rdf:RDF>
      <cc:Work
         rdf:about="">
        <dc:format>image/svg+xml</dc:format>
        <dc:type
           rdf:resource="http://purl.org/dc/dcmitype/StillImage" />
        <dc:title>1</dc:title>
      </cc:Work>
    </rdf:RDF>
  </metadata>
  <defs
     id="defs1247" />
  <sodipodi:namedview
     pagecolor="#ffffff"
     bordercolor="#666666"
     borderopacity="1"
     objecttolerance="10"
     gridtolerance="10"
     guidetolerance="10"
     inkscape:pageopacity="0"
     inkscape:pageshadow="2"
     inkscape:window-width="1920"
     inkscape:window-height="1017"
     id="namedview1245"
     showgrid="false"
     inkscape:zoom="0.93035714"
     inkscape:cx="375.7521"
     inkscape:cy="148.05646"
     inkscape:window-x="-8"
     inkscape:window-y="-8"
     inkscape:window-maximized="1"
     inkscape:current-layer="svg1243" />
  <!-- Generator: Sketch 61.2 (89653) - https://sketch.com -->
  <title
     id="title1146">1</title>
  <desc
     id="desc1148">Created with Sketch.</desc>
  <path
     id="a55003b0-0446-4784-a3ce-c481a9759178"
     data-name="Path 339"
     d="m 367.77757,123.34737 h -2.21375 V 63.38176 A 35.102374,34.706637 0 0 0 330.46144,28.675124 H 201.9704 A 35.102374,34.706637 0 0 0 166.86803,63.38176 V 392.3572 a 35.102374,34.706637 0 0 0 35.10237,34.70664 H 330.46381 A 35.102374,34.706637 0 0 0 365.56619,392.3572 V 166.03173 h 2.21138 z"
     fill="#3f3d56"
     style="stroke-width:0.589196" />
  <path
     id="ad332593-d547-4870-8db7-c0503e6eb31e"
     data-name="Path 340"
     d="m 358.40943,61.05938 v 333.62194 a 26.623053,26.32291 0 0 1 -26.61298,26.31881 H 200.66266 A 26.627201,26.327011 0 0 1 174.03309,394.67839 V 61.05938 a 26.626608,26.326425 0 0 1 26.62957,-26.318223 h 15.90687 A 12.659134,12.516418 0 0 0 228.2806,51.97203 h 74.76023 a 12.659134,12.516418 0 0 0 11.70869,-17.233216 h 17.03923 a 26.623053,26.32291 0 0 1 26.61831,26.31295 z"
     fill="#e6e6e6"
     style="stroke-width:0.589196" />
  <path
     d="M 344.43723,403.58513 H 188.00532 a 5.0422688,4.9854232 0 0 1 -5.03664,-4.97985 V 73.450259 a 5.0422688,4.9854232 0 0 1 5.03664,-4.979852 h 156.43191 a 5.0422688,4.9854232 0 0 1 5.03663,4.979852 V 398.60528 a 5.0422688,4.9854232 0 0 1 -5.03663,4.97985 z"
     fill="#ffffff"
     id="path68"
     style="stroke-width:0.589196" />
  <ellipse
     id="aec4df6d-8b06-4bbe-8d40-2c8bcc37cf40"
     data-name="Ellipse 60"
     cx="265.03619"
     cy="135.63689"
     fill="#ffffff"
     rx="37.264572"
     ry="36.844456"
     style="stroke-width:0.589196" />
  <rect
     id="a528162f-764e-4523-bc44-e6dc5465582a"
     data-name="Rectangle 25-2"
     x="200.12463"
     y="248.32916"
     width="132.19327"
     height="130.70294"
     fill="#e6e6e6"
     style="stroke-width:0.589196" />
  <rect
     id="ac408f88-9589-4a26-924c-e7a781ddb6bc"
     data-name="Rectangle 25-3"
     x="202.22638"
     y="251.09444"
     width="126.60023"
     height="125.17297"
     fill="#ffffff"
     style="stroke-width:0.589196" />
  <g
     id="be47c712-4ebf-4226-80ad-879612060a69"
     data-name="Group 22"
     transform="matrix(0.59254514,0,0,0.5858649,39.030369,28.675118)">
    <rect
       id="fadc6105-0551-448d-b6d9-436c4cc2b7a7"
       data-name="Rectangle 28"
       x="319.41537"
       y="400.26669"
       width="83.167999"
       height="6.2509999"
       fill="#e6e6e6" />
    <rect
       id="a4376b16-bb23-442d-8938-a8bcab4f190c"
       data-name="Rectangle 29"
       x="319.41537"
       y="418.61871"
       width="128.429"
       height="6.2509999"
       fill="#6c63ff" />
    <rect
       id="ae6c1c25-1aef-4af7-84b7-a99cb79f7c28"
       data-name="Rectangle 30"
       x="320.75031"
       y="436.0957"
       width="104.667"
       height="6.2509999"
       fill="#e6e6e6" />
    <rect
       id="ad31106a-9486-4fc6-9d92-2d07f7dcec19"
       data-name="Rectangle 31"
       x="319.41537"
       y="455.27173"
       width="61.103001"
       height="6.2509999"
       fill="#e6e6e6" />
    <rect
       id="e133e237-d12d-4331-8259-b0f1b7869d24"
       data-name="Rectangle 32"
       x="319.41537"
       y="474.00269"
       width="92.220001"
       height="6.2509999"
       fill="#6c63ff" />
    <rect
       id="a9ae706b-b3a6-4b62-8ac7-3a7f4cd0039d"
       data-name="Rectangle 38"
       x="319.41537"
       y="492.85071"
       width="83.167999"
       height="6.2509999"
       fill="#e6e6e6" />
    <rect
       id="bd082349-b2f2-4b60-be0c-57e16efac88b"
       data-name="Rectangle 39"
       x="319.41537"
       y="511.20172"
       width="128.429"
       height="6.2509999"
       fill="#6c63ff" />
    <rect
       id="ac0416d6-b57f-4bc7-9ff0-bb8dbe215cb0"
       data-name="Rectangle 40"
       x="320.75031"
       y="528.67871"
       width="104.667"
       height="6.2509999"
       fill="#e6e6e6" />
    <rect
       id="b9702d28-4113-492b-a4b0-dbfc92fa702e"
       data-name="Rectangle 41"
       x="319.41537"
       y="547.85571"
       width="61.103001"
       height="6.2509999"
       fill="#e6e6e6" />
    <rect
       id="b41357bb-831a-49ca-b340-115c840dd657"
       data-name="Rectangle 42"
       x="319.41537"
       y="566.58673"
       width="92.220001"
       height="6.2509999"
       fill="#e6e6e6" />
  </g>
  <g
     id="ac800076-fc8a-4256-a3b5-70e496d28429"
     data-name="Group 23"
     transform="matrix(0.59254514,0,0,0.5858649,39.030369,28.675118)">
    <path
       id="b13647df-bb42-4a02-9bba-2700c526619d"
       data-name="Path 385"
       d="m 928.72737,595.02549 a 9.1300024,9.1300024 0 1 1 -15.85178,-9.0636 q 0.0305,-0.0534 0.0618,-0.10638 a 9.82561,9.82561 0 0 1 0.86,-1.22 l -7.68,-54.74 -0.23,-1.64 -1.56,-11.17 -0.23,-1.61 0.85,0.04 14.88,0.68 3.99,0.18 0.5,10.19 2.83,57.29 a 9.118,9.118 0 0 1 1.58,11.17 z"
       transform="translate(-235.95901,-109.99949)"
       fill="#ffb8b8" />
    <path
       id="bd34735f-0976-456f-8e45-072b5e73a744"
       data-name="Path 386"
       d="m 905.93136,528.75147 18.895,-1.733 a 3.73,3.73 0 0 0 3.364,-4.037 l -3.5,-39.292 a 14.326002,14.326002 0 0 0 -28.5385,2.54782 q 0.0362,0.4059 0.0955,0.80918 l 5.666,38.54 a 3.724,3.724 0 0 0 3.678,3.181 2.6391,2.6391 0 0 0 0.33999,-0.016 z"
       transform="translate(-235.95901,-109.99949)"
       fill="#6c63ff" />
    <path
       id="f1e660d0-c56f-45d1-8714-e8a3d2ffeea9"
       data-name="Path 387"
       d="m 920.25336,497.00849 a 26.316,26.316 0 0 0 -9.679,-30.288 c -7.125,-4.875 -16.875,-6.625 -27.375,5.875 -21,25 -26.5,52.5 -26.5,52.5 l 43,7 c 0,0 14.623,-17.87502 20.554,-35.087 z"
       transform="translate(-235.95901,-109.99949)"
       fill="#6c63ff" />
    <path
       id="eb60bd0b-2a6b-4db7-a453-977e2259822f"
       data-name="Path 388"
       d="m 850.70637,778.61446 h -12.26 l -5.832,-47.288 h 18.094 z"
       transform="translate(-235.95901,-109.99949)"
       fill="#ffb8b8" />
    <path
       id="b4104c20-2c86-47e7-b6b0-d86d656d7ba2"
       data-name="Path 389"
       d="m 814.80537,789.99748 h 38.531 v -14.887 h -23.644 a 14.887,14.887 0 0 0 -14.887,14.887 z"
       transform="translate(-235.95901,-109.99949)"
       fill="#2f2e41" />
    <path
       id="b4e48bf6-fea8-48c3-adaa-b392a855b3f6"
       data-name="Path 390"
       d="m 951.50037,767.92147 -11.64,3.848 -20.38,-43.068 17.18,-5.679 z"
       transform="translate(-235.95901,-109.99949)"
       fill="#ffb8b8" />
    <path
       id="a6908023-9fbc-48a9-be4c-c86c0c45ebaf"
       data-name="Path 391"
       d="m 920.9833,789.99738 36.58442,-12.09206 -4.67194,-14.13491 -22.44951,7.42012 a 14.887,14.887 0 0 0 -9.463,18.80685 z"
       transform="translate(-235.95901,-109.99949)"
       fill="#2f2e41" />
    <circle
       id="a687fec6-02c9-4040-89ed-32d713123e7f"
       data-name="Ellipse 65"
       cx="657.30133"
       cy="319.76099"
       r="24.561001"
       fill="#ffb8b8" />
    <path
       id="badfc474-5669-4d61-bc01-f70cc92406de"
       data-name="Path 392"
       d="m 871.75536,765.45145 11.385,-75.145 a 3.5,3.5 0 0 1 6.862,-0.3 l 17.338,71.612 a 4.533,4.533 0 0 0 5.088,3.385 l 47.825,-7.686 a 4.5,4.5 0 0 0 3.593,-5.75 l -62.361,-205.6 a 3.50013,3.50013 0 0 1 -0.061,-1.8 l 2.076,-9 a 4.484,4.484 0 0 0 -2.327,-5.014 c -8.492,-4.333 -30,-13.341 -46.231,-3.474 a 4.551,4.551 0 0 0 -2.079,2.927 l -48.716,228.97 a 4.5,4.5 0 0 0 4,5.419 l 58.757,5.262 q 0.2,0.018 0.4,0.018 a 4.508,4.508 0 0 0 4.448,-3.825 z"
       transform="translate(-235.95901,-109.99949)"
       fill="#2f2e41" />
    <path
       id="eb685785-93ca-4296-839e-b201e57ae5bb"
       data-name="Path 393"
       d="m 909.54637,412.40748 a 18.57992,18.57992 0 0 1 -4.855,-4.22 6.3,6.3 0 0 1 -0.97,-6.1 c 1.241,-2.738 4.928,-3.6 7.786,-2.671 2.858,0.929 5.065,3.172 7.153,5.333 1.839,1.9 3.731,3.892 4.6,6.391 0.869,2.499 0.424,5.668 -1.746,7.185 -2.13,1.488 -5.192,0.879 -7.24,-0.719 -2.048,-1.598 -3.316,-3.97 -4.525,-6.27 z"
       transform="translate(-235.95901,-109.99949)"
       fill="#2f2e41" />
    <path
       id="a7ccb8bb-f2b9-4447-b454-9c546e399f41"
       data-name="Path 394"
       d="m 917.86536,405.40949 c 0.136,-6.92 8.024,-11.883 14.837,-10.656 6.813,1.227 12.049,7.035 14.67,13.441 5.538,13.535 1.381,28.979 -3.955,42.6 -5.336,13.621 -11.94,27.439 -11.161,42.043 a 43.925,43.925 0 0 0 25.515,37 c -7.688,3.485 -16.878,-0.115 -23.339,-5.548 -14.348,-12.065 -19.886,-33.546 -13.161,-51.044 3.317,-8.631 9.163,-16.015 13.727,-24.056 4.564,-8.041 7.913,-17.518 5.556,-26.459 -2.357,-8.941 -12.385,-16.179 -20.958,-12.72 z"
       transform="translate(-235.95901,-109.99949)"
       fill="#2f2e41" />
    <path
       id="bd42e2a1-f38b-413b-b655-cc202f14f4c1"
       data-name="Path 395"
       d="m 891.78738,440.65949 c 2.141,-3.618 4.3,-8.368 0.388,-11.531 a 8.064,8.064 0 0 0 -6.05,-1.6 c -4.412,0.532 -9.217,0.751 -13.488,-0.852 a 12.644,12.644 0 0 1 -7.335,-6.591 c -2.2,-5.224 0.556,-11.572 5.165,-14.874 a 17.4,17.4 0 0 1 19.258,-0.341 c 5.97,-2.637 13.213,-1.464 18.637,2.166 5.424,3.63 9.135,9.443 11.151,15.65 a 30.206,30.206 0 0 1 0.923,16.615 24.692,24.692 0 0 1 -15.316,16.879 8.892,8.892 0 0 1 -8.782,-1.3 c 0,0 -3.385,-2.955 -4.444,-6.514 -0.81501,-2.737 -1.25001,-5.77401 -0.107,-7.707 z"
       transform="translate(-235.95901,-109.99949)"
       fill="#2f2e41" />
    <path
       id="a0cecca8-8fe0-4420-9365-651f9eef8dd5"
       data-name="Path 397"
       d="m 818.92536,462.57548 a 10.52375,10.52375 0 0 1 0.239,1.64 l 42.957,24.782 10.441,-6.011 11.131,14.572 -17.45,12.438 a 8,8 0 0 1 -9.6,-0.234 l -44.3,-34.946 a 10.5,10.5 0 1 1 6.576,-12.241 z"
       transform="translate(-235.95901,-109.99949)"
       fill="#ffb8b8" />
    <path
       id="b21f2b01-13d8-4bae-8637-c810de2f9faf"
       data-name="Path 398"
       d="m 863.55837,490.17149 13.884,17.994 a 4.5,4.5 0 0 0 6.8,0.373 l 15.717,-16.321 a 12.500004,12.500004 0 0 0 -14.92566,-20.05555 q -0.20382,0.15171 -0.40133,0.31156 l -19.712,11.022 a 4.5,4.5 0 0 0 -1.365,6.676 z"
       transform="translate(-235.95901,-109.99949)"
       fill="#6c63ff" />
  </g>
  <g
     id="b22d1c68-5a77-444f-a5cc-3f82f20a89dd"
     data-name="Group 24"
     transform="matrix(0.59254514,0,0,0.5858649,39.030369,28.675118)">
    <path
       id="e5b1612b-0075-49ae-a43a-e875f9772667"
       data-name="Path 552"
       d="m 359.66036,533.05647 a 10.0905,10.0905 0 0 0 -1.411,0.787 l -44.852,-19.143 -1.6,-11.815 -17.922,-0.11 1.059,27.1 59.2,15.658 a 10.60584,10.60584 0 0 0 0.448,1.208 10.235,10.235 0 1 0 5.079,-13.682 z"
       transform="translate(-235.95901,-109.99949)"
       fill="#a0616a" />
    <path
       id="aa9c986c-d78a-4457-b2bb-b0791fabccea"
       data-name="Path 553"
       d="m 287.35738,778.61549 h 12.26 l 5.832,-47.288 h -18.094 z"
       transform="translate(-235.95901,-109.99949)"
       fill="#a0616a" />
    <path
       id="b210f84f-9c85-4cf8-a59b-65b7d4fb35d0"
       data-name="Path 554"
       d="m 308.37435,775.1125 h -23.644 v 14.882 h 38.531 a 14.887,14.887 0 0 0 -14.887,-14.887 h -6e-5 z"
       transform="translate(-235.95901,-109.99949)"
       fill="#2f2e41" />
    <path
       id="f66096e0-a946-448d-a2e8-3cde5fe284ed"
       data-name="Path 555"
       d="m 239.67733,775.1515 12.2,1.2 10.441,-46.488 -18.007,-1.769 z"
       transform="translate(-235.95901,-109.99949)"
       fill="#a0616a" />
    <path
       id="fcefb2c9-d6d5-4bec-a5f5-cc8066a5bb74"
       data-name="Path 556"
       d="m 260.94371,773.7281 -23.52578,-2.3171 -1.45893,14.81255 38.33734,3.77594 A 14.88422,14.88422 0 0 0 260.94272,773.728 Z"
       transform="translate(-235.95901,-109.99949)"
       fill="#2f2e41" />
    <circle
       id="b1d8892c-f39d-4126-8224-86b256c1ff9d"
       data-name="Ellipse 84"
       cx="47.985352"
       cy="318.16898"
       r="24.561001"
       fill="#a0616a" />
    <path
       id="ac2d3eab-b9a5-4eb5-9d63-fe405943fbfc"
       data-name="Path 557"
       d="m 302.35738,769.0525 a 4.471,4.471 0 0 0 4.415,-3.7 c 6.341,-35.219 27.088,-150.4 27.584,-153.593 a 1.41628,1.41628 0 0 0 0.016,-0.222 v -8.588 a 1.489,1.489 0 0 0 -0.279,-0.872 l -2.74,-3.838 a 1.47889,1.47889 0 0 0 -1.144,-0.625 c -15.622,-0.732 -66.784,-2.879 -69.256,0.209 v 0 c -2.482,3.1 -1.6,12.507 -1.4,14.36 l -0.01,0.193 -22.985,147 a 4.512,4.512 0 0 0 3.715,5.135 l 14.356,2.365 a 4.521,4.521 0 0 0 5.025,-3.093 c 4.44,-14.188 19.329,-61.918 24.489,-80.387 a 0.5,0.5 0 0 1 0.981,0.139 c -0.258,17.606 -0.881,62.523 -1.1,78.037 l -0.023,1.671 a 4.518,4.518 0 0 0 4.093,4.536 l 13.843,1.254 a 4.174,4.174 0 0 0 0.42,0.019 z"
       transform="translate(-235.95901,-109.99949)"
       fill="#2f2e41" />
    <path
       id="bbed60f3-1a89-4078-91d7-bc96163e326a"
       data-name="Path 99"
       d="m 299.53237,462.38749 c 4.286,2.548 6.851,7.23 8.323,12 a 113.686,113.686 0 0 1 4.884,27.159 l 1.556,27.6 19.255,73.17 c -16.689,14.121 -26.315,10.911 -48.781,-0.639 -22.466,-11.55 -25.032,3.851 -25.032,3.851 l -4.492,-62.258 -6.418,-68.032 a 30.17178,30.17178 0 0 1 4.862,-4.674 49.659,49.659 0 0 1 42.442,-9 z"
       transform="translate(-235.95901,-109.99949)"
       fill="#e6e6e6" />
    <path
       id="ff536e95-7831-431c-8ca8-0e166a93b4bb"
       data-name="Path 558"
       d="m 305.78634,547.8335 a 10.5284,10.5284 0 0 0 -1.5,0.7 l -44.35,-22.2 -0.736,-12.026 -18.294,-1.261 -0.98,27.413 59.266,19.6 a 10.49972,10.49972 0 1 0 6.593,-12.232 z"
       transform="translate(-235.95901,-109.99949)"
       fill="#a0616a" />
    <path
       id="ed99b844-bab2-4090-afff-3e8d6994d5eb"
       data-name="Path 101"
       d="m 249.14736,475.5445 c -10.911,3.851 -12.834,45.574 -12.834,45.574 12.837,-7.06 28.241,4.493 28.241,4.493 0,0 3.209,-10.912 7.06,-25.032 a 24.52994,24.52994 0 0 0 -5.134,-23.106 c 0,0 -6.42095,-5.78199 -17.333,-1.929 z"
       transform="translate(-235.95901,-109.99949)"
       fill="#e6e6e6" />
    <path
       id="a410275c-d14b-4b59-9c0e-be849f4d4fe2"
       data-name="Path 102"
       d="m 261.92635,434.6645 c 3.06,-2.448 7.235,2 7.235,2 l 2.448,-22.031 c 0,0 15.3,1.833 25.094,-0.612 9.794,-2.445 11.323,8.875 11.323,8.875 a 78.58449,78.58449 0 0 0 0.306,-13.771 c -0.612,-5.508 -8.568,-11.017 -22.645,-14.689 -14.077,-3.672 -21.421,12.241 -21.421,12.241 -9.79794,4.89499 -5.40396,30.435 -2.34,27.987 z"
       transform="translate(-235.95901,-109.99949)"
       fill="#2f2e41" />
  </g>
  <path
     class="cls-1"
     d="m 283.47696,181.44809 c 0,-6.69211 -5.31009,-12.11444 -11.85684,-12.11444 -6.54675,0 -11.85683,5.42233 -11.85683,12.11444 v 7.03274 h -1.96612 v -7.03274 c 0,-6.69211 -5.31008,-12.11444 -11.85684,-12.11444 -6.54674,0 -11.85683,5.42233 -11.85683,12.11444 v 9.03637 l 49.39346,0.20788 z"
     id="path219"
     style="fill:#5f5f63;stroke-width:0.255893" />
  <path
     class="cls-2"
     d="m 282.03636,188.48083 v -6.35401 c 0,-6.04344 -4.66169,-10.94482 -10.4084,-10.94482 -5.74671,0 -10.41362,4.90138 -10.41362,10.94482 v 6.35401 z"
     id="path221"
     style="fill:#1a2d4b;stroke-width:0.255893" />
  <path
     class="cls-2"
     d="m 256.35918,188.48083 v -6.35401 c 0,-6.04344 -4.66168,-10.94482 -10.411,-10.94482 -5.74932,0 -10.411,4.90138 -10.411,10.94482 v 6.35401 z"
     id="path223"
     style="fill:#1a2d4b;stroke-width:0.255893" />
  <polygon
     class="cls-3"
     points="224.68,226.06 119.45,316.5 217.2,316.5 345.73,316.5 445.67,316.5 340.45,226.06 322.9,226.06 282.14,260.93 242.24,226.06 "
     id="polygon225"
     style="fill:#85858c"
     transform="matrix(0.26145169,0,0,0.25045364,184.90966,125.11606)" />
  <path
     class="cls-4"
     d="m 248.24372,181.73361 v -1.39753 c 0,-1.33241 -1.0275,-2.41186 -2.29554,-2.41186 -1.26804,0 -2.29555,1.07945 -2.29555,2.41186 v 1.39753 z"
     id="path227"
     style="fill:#142238;stroke-width:0.255893" />
  <path
     class="cls-5"
     d="m 245.94556,185.83855 a 21.904422,20.983006 0 0 1 9.97961,2.22403 l -7.68145,-6.32897 h -4.59109 l -7.68406,6.32646 a 21.899194,20.977997 0 0 1 9.97699,-2.22152 z"
     id="path229"
     style="fill:#3b3b3f;stroke-width:0.255893" />
  <polygon
     class="cls-6"
     points="235.41,244.86 232.12,244.86 231.74,250.4 235.69,250.4 "
     id="polygon231"
     style="fill:#d8d8e6"
     transform="matrix(0.26145169,0,0,0.25045364,184.90966,125.11606)" />
  <polygon
     class="cls-6"
     points="230.98,261.04 236.25,261.04 235.79,252.25 231.61,252.25 "
     id="polygon233"
     style="fill:#d8d8e6"
     transform="matrix(0.26145169,0,0,0.25045364,184.90966,125.11606)" />
  <polygon
     class="cls-7"
     points="235.14,239.62 232.5,239.62 232.25,243.01 235.31,243.01 "
     id="polygon235"
     style="fill:#aaacb7"
     transform="matrix(0.26145169,0,0,0.25045364,184.90966,125.11606)" />
  <polygon
     class="cls-7"
     points="234.94,235.8 232.77,235.8 232.63,237.76 235.04,237.76 "
     id="polygon237"
     style="fill:#aaacb7"
     transform="matrix(0.26145169,0,0,0.25045364,184.90966,125.11606)" />
  <polygon
     class="cls-6"
     points="236.34,262.89 230.85,262.89 229.73,278.87 237.17,278.87 "
     id="polygon239"
     style="fill:#d8d8e6"
     transform="matrix(0.26145169,0,0,0.25045364,184.90966,125.11606)" />
  <polygon
     class="cls-7"
     points="234.61,229.62 233.2,229.62 233.11,230.85 234.68,230.85 "
     id="polygon241"
     style="fill:#aaacb7"
     transform="matrix(0.26145169,0,0,0.25045364,184.90966,125.11606)" />
  <polygon
     class="cls-7"
     points="234.78,232.71 232.98,232.71 232.9,233.94 234.84,233.94 "
     id="polygon243"
     style="fill:#aaacb7"
     transform="matrix(0.26145169,0,0,0.25045364,184.90966,125.11606)" />
  <polygon
     class="cls-7"
     points="234.49,227.76 234.42,226.91 233.46,226.91 233.32,227.76 "
     id="polygon245"
     style="fill:#aaacb7"
     transform="matrix(0.26145169,0,0,0.25045364,184.90966,125.11606)" />
  <polygon
     class="cls-6"
     points="232.25,243.01 232.3,242.46 235.28,242.46 235.31,243.01 "
     id="polygon247"
     style="fill:#d8d8e6"
     transform="matrix(0.26145169,0,0,0.25045364,184.90966,125.11606)" />
  <path
     class="cls-4"
     d="m 273.92089,181.73361 v -1.39753 c 0,-1.33241 -1.02489,-2.41186 -2.29293,-2.41186 -1.26804,0 -2.29554,1.07945 -2.29554,2.41186 v 1.39753 z"
     id="path249"
     style="fill:#142238;stroke-width:0.255893" />
  <path
     class="cls-5"
     d="m 271.62535,185.83855 a 21.904422,20.983006 0 0 1 9.97962,2.22403 l -7.68408,-6.32897 h -4.58847 l -7.68407,6.32646 a 21.899194,20.977997 0 0 1 9.977,-2.22152 z"
     id="path251"
     style="fill:#3b3b3f;stroke-width:0.255893" />
  <polygon
     class="cls-6"
     points="333.63,244.86 330.34,244.86 329.95,250.4 333.91,250.4 "
     id="polygon253"
     style="fill:#d8d8e6"
     transform="matrix(0.26145169,0,0,0.25045364,184.90966,125.11606)" />
  <polygon
     class="cls-6"
     points="329.2,261.04 334.46,261.04 334.01,252.25 329.83,252.25 "
     id="polygon255"
     style="fill:#d8d8e6"
     transform="matrix(0.26145169,0,0,0.25045364,184.90966,125.11606)" />
  <polygon
     class="cls-7"
     points="333.36,239.62 330.72,239.62 330.47,243.01 333.53,243.01 "
     id="polygon257"
     style="fill:#aaacb7"
     transform="matrix(0.26145169,0,0,0.25045364,184.90966,125.11606)" />
  <polygon
     class="cls-7"
     points="333.15,235.8 330.99,235.8 330.84,237.76 333.26,237.76 "
     id="polygon259"
     style="fill:#aaacb7"
     transform="matrix(0.26145169,0,0,0.25045364,184.90966,125.11606)" />
  <polygon
     class="cls-6"
     points="334.56,262.89 329.07,262.89 327.95,278.87 335.39,278.87 "
     id="polygon261"
     style="fill:#d8d8e6"
     transform="matrix(0.26145169,0,0,0.25045364,184.90966,125.11606)" />
  <polygon
     class="cls-7"
     points="332.83,229.62 331.42,229.62 331.33,230.85 332.9,230.85 "
     id="polygon263"
     style="fill:#aaacb7"
     transform="matrix(0.26145169,0,0,0.25045364,184.90966,125.11606)" />
  <polygon
     class="cls-7"
     points="333,232.71 331.2,232.71 331.12,233.94 333.06,233.94 "
     id="polygon265"
     style="fill:#aaacb7"
     transform="matrix(0.26145169,0,0,0.25045364,184.90966,125.11606)" />
  <polygon
     class="cls-7"
     points="332.7,227.76 332.64,226.91 331.68,226.91 331.54,227.76 "
     id="polygon267"
     style="fill:#aaacb7"
     transform="matrix(0.26145169,0,0,0.25045364,184.90966,125.11606)" />
  <polygon
     class="cls-6"
     points="330.47,243.01 330.52,242.46 333.5,242.46 333.53,243.01 "
     id="polygon269"
     style="fill:#d8d8e6"
     transform="matrix(0.26145169,0,0,0.25045364,184.90966,125.11606)" />
  <path
     class="cls-8"
     d="m 219.73504,167.77333 a 19.446777,18.628741 0 0 1 0.30066,4.1425 c 4.70613,-0.35313 7.79127,-2.14889 9.70247,-5.63771 a 16.965599,16.251936 0 0 0 1.32556,-3.05553 c 1.45629,-4.86632 2.80277,-9.85286 4.10741,-14.67408 0.87064,-3.22835 1.77264,-6.56439 2.7008,-9.83782 0,-0.0275 0,-0.0475 0.0157,-0.0676 a 1.8092457,1.7331392 0 0 0 -0.19608,-0.0551 c -1.60531,-0.35814 -3.2603,-0.32308 -5.10354,-0.25045 -0.74252,0.0301 -0.78435,0.17783 -0.80527,0.64116 a 6.1493439,5.8906694 0 0 1 -0.27452,1.34995 c -0.0523,0.18032 -0.10197,0.34813 -0.13858,0.50091 -1.0092,4.32282 -2.01318,8.60558 -3.03022,12.94344 l -0.98829,4.22015 -1.13208,-0.66872 a 1.6393021,1.5703444 0 0 1 -0.81312,-1.22722 v -0.0275 a 79.371504,76.03272 0 0 0 -1.68636,-8.37016 c -0.30851,-1.16461 -0.59873,-2.34926 -0.87848,-3.50636 -0.27975,-1.15709 -0.58826,-2.40185 -0.90462,-3.594 -0.52291,-2.00364 -1.36216,-2.58218 -3.5479,-2.46948 a 12.889568,12.347365 0 0 0 -3.23154,0.65369 c 1.07195,3.7568 2.14652,7.59625 3.18448,11.30297 0.82096,2.9253 1.67068,5.94827 2.50993,8.92116 0.36081,1.26729 1.19484,2.00362 2.55439,2.23905 a 9.4384061,9.0413764 0 0 0 1.25497,0.1653 1.4066101,1.3474406 0 0 1 1.08763,0.46584 1.5033472,1.4401084 0 0 1 0.23792,1.17213 5.989858,5.7378928 0 0 1 -5.75193,4.71103 z"
     id="path271"
     style="fill:#ff6600;stroke-width:0.255893" />
  <path
     class="cls-8"
     d="m 253.07274,143.21635 a 2.8445943,2.7249356 0 0 1 1.83016,0.54098 c 0.69284,0.52344 1.04581,1.35746 1.09548,2.54711 0.0523,1.44261 0.0497,2.90527 0.0471,4.31782 0,0.8841 0,1.79826 0,2.69488 0,0.60109 0,1.20469 0,1.78825 a 28.388424,27.194256 0 0 0 0.14119,3.96217 c 0.19347,1.40004 0.94384,2.18896 2.23018,2.34926 a 7.244826,6.9400706 0 0 0 4.61201,-0.8265 c 0.0967,-0.0501 0.16471,-0.0927 0.21178,-0.12272 a 0.92815352,0.8891105 0 0 0 -0.0706,-0.11522 5.4225079,5.1944084 0 0 1 -0.64578,-1.79074 l -0.0131,-0.0626 c -0.31636,-1.45263 -0.28498,-2.89524 -0.26145,-4.29278 0.0131,-0.63114 0.0261,-1.28232 0,-1.91096 -0.034,-1.05941 -0.0157,-2.12885 0,-3.16072 0.0313,-1.85587 0.0627,-3.61154 -0.18825,-5.37724 -0.31635,-2.21652 -1.38046,-3.94966 -2.99362,-4.87883 -1.61316,-0.92919 -3.7466,-1.02186 -5.96894,-0.25046 -1.24452,0.43578 -2.32953,1.22221 -3.47993,2.05121 l -1.24973,0.90164 -0.4497,-1.12955 c -0.65102,-1.68805 -1.86153,-2.36177 -4.05512,-2.25409 a 15.577292,14.922028 0 0 1 -1.60269,0 h -0.0811 c 0,0.0351 0,0.0777 0,0.13525 0.0183,7.82668 0.0183,15.52813 0,22.91651 h 0.0235 a 30.24996,28.977487 0 0 0 5.8356,0.0301 2.2301829,2.1363695 0 0 0 0.26145,-0.0376 1.7412682,1.6680212 0 0 0 0,-0.2204 c -0.0313,-3.87703 -0.0261,-7.81666 -0.0183,-11.62857 0,-0.92667 0,-1.85586 0,-2.78504 0,-0.0526 0,-0.10769 0,-0.16279 -0.0183,-0.40073 -0.0496,-1.14458 0.70069,-1.68305 0.83665,-0.6036 1.77264,-1.19216 2.93873,-1.41757 a 5.673502,5.4348442 0 0 1 1.15038,-0.12773 z"
     id="path273"
     style="fill:#ff6600;stroke-width:0.255893" />
  <path
     class="cls-9"
     d="m 297.01231,165.40404 a 16.542049,15.846201 0 0 0 -2.35307,0.17531 c -3.43024,0.47837 -5.80684,2.26661 -7.05919,5.31463 -1.71251,4.16003 -1.78833,8.48787 -0.22485,12.8633 1.08241,3.03049 3.39887,4.86882 6.89448,5.45989 a 16.395636,15.705948 0 0 0 3.55313,0.14275 16.654472,15.953897 0 0 0 7.84355,-2.19647 l 0.10981,-0.0651 a 10.261979,9.8303056 0 0 0 -1.26281,-2.9278 1.4850456,1.4225767 0 0 0 -0.12027,-0.15277 1.2026777,1.1520868 0 0 0 -0.14641,0.0475 19.255917,18.445911 0 0 1 -5.36238,1.25227 c -3.29167,0.32058 -5.47218,-1.14458 -6.15195,-4.09992 -0.0863,-0.36567 -0.26146,-1.12705 0.24315,-1.69808 0.45492,-0.51593 1.15822,-0.54849 1.64452,-0.52595 1.29157,0.0551 2.61452,0.0425 3.90087,0.0301 0.55427,0 1.10593,0 1.6576,0 h 1.61315 c 1.3491,0 2.74525,0 4.1231,0.0175 a 1.011818,0.96925559 0 0 0 0.13334,0 c 0,-0.025 0.0183,-0.0551 0.0287,-0.0977 a 17.517263,16.780394 0 0 0 0.29805,-5.6277 c -0.24576,-2.10381 -1.05887,-3.85198 -2.41319,-5.19691 -1.82756,-1.83833 -4.07081,-2.71492 -6.94939,-2.71492 z m 8.78478,21.82453 z m -11.76533,-11.7563 a 1.3830795,1.3248998 0 0 1 -1.46413,-1.70809 l 0.0627,-0.35314 a 10.021443,9.5998885 0 0 1 0.47585,-1.90095 c 0.60394,-1.50272 1.78309,-2.34925 3.41194,-2.40685 1.77264,-0.0651 3.10605,0.66119 3.8538,2.0988 a 5.5558483,5.3221397 0 0 1 0.24576,0.56602 c 0.42878,1.13206 0.73729,2.13136 0.1804,2.88773 -0.55689,0.75637 -1.60531,0.81147 -2.82629,0.81147 h -1.95828 c -0.61964,0 -1.2602,0 -1.88244,0 z"
     id="path275"
     style="fill:#071456;stroke-width:0.255893" />
  <path
     class="cls-8"
     d="m 277.3616,137.83911 c -0.45754,0 -0.93077,0.02 -1.4223,0.0601 -3.61587,0.29804 -6.16764,1.90846 -7.5821,4.78868 -1.90075,3.84447 -2.16221,8.15477 -0.78435,12.8082 1.09548,3.67165 3.60542,5.70283 7.67883,6.20874 2.81584,0.35064 5.60553,0 8.52595,-1.03688 1.44583,-0.51844 2.22233,-1.0018 2.36874,-1.47517 0.14642,-0.47335 -0.24837,-1.34744 -1.2262,-2.61974 a 1.2131358,1.1621049 0 0 0 -0.10458,-0.12022 1.2183648,1.167114 0 0 0 -0.14641,0.0451 c -2.16482,0.80396 -4.02113,1.20218 -5.84607,1.25227 h -0.28498 c -3.07467,0 -4.90221,-1.50272 -5.43296,-4.4731 -0.0497,-0.2755 -0.16472,-0.92168 0.28498,-1.42258 0.4497,-0.50091 1.16084,-0.48337 1.39092,-0.47836 1.37524,0.0301 2.77923,0.0225 4.13617,0.0175 1.09287,0 2.18573,0 3.28122,0 1.30725,-0.0125 2.67203,-0.0226 4.0159,0.0326 a 1.2052923,1.1545913 0 0 0 0.28236,-0.015 1.3700068,1.312377 0 0 0 0.0941,-0.31056 18.18658,17.421556 0 0 0 0.19871,-5.55005 c -0.31636,-2.46947 -1.4223,-4.43303 -3.28645,-5.83808 -1.68113,-1.26729 -3.6551,-1.87339 -6.1415,-1.87339 z m -2.774,10.04319 a 1.6157715,1.5478036 0 0 1 -1.24451,-0.47587 1.5294924,1.4651538 0 0 1 -0.2876,-1.28983 c 0.0313,-0.17281 0.0575,-0.35064 0.0863,-0.54098 a 9.150809,8.7658776 0 0 1 0.20132,-1.04188 c 0.54905,-1.96607 1.91643,-3.05054 3.8538,-3.05555 h 0.005 c 1.91644,0 3.39887,1.13707 3.98191,3.04302 0,0.0376 0.0235,0.0751 0.0366,0.11521 a 2.8759686,2.7549901 0 0 1 0.10196,0.34061 c 0.18302,0.81399 0.36866,1.6555 -0.15687,2.27663 -0.52551,0.62112 -1.41706,0.61862 -2.28247,0.61862 h -2.44719 c -0.5935,0 -1.15561,0 -1.72034,0 z m -0.0601,-1.80327 z"
     id="path277"
     style="fill:#ff6600;stroke-width:0.255893" />
  <path
     class="cls-9"
     d="m 195.32852,188.81394 h 0.0157 a 39.649149,37.981295 0 0 0 5.87744,0.0601 1.5687102,1.5027219 0 0 0 0.42877,-0.0601 1.7595699,1.685553 0 0 0 0.0497,-0.50091 c -0.0366,-4.72355 -0.0471,-9.51723 -0.0575,-14.17067 0,-3.81691 -0.0157,-7.76406 -0.0392,-11.64859 0,-0.62113 0.0366,-1.2673 0.54643,-1.73314 0.50983,-0.46585 1.19745,-0.48839 1.74911,-0.46084 l 0.69808,0.0351 c 1.53734,0.0802 2.98839,0.15779 4.395,-0.16529 0.99091,-0.22792 1.16607,-0.4433 1.16607,-1.42508 0,-0.31557 0,-0.62864 0,-0.94421 0,-0.7163 0,-1.45513 0,-2.19147 -7.49058,0.02 -15.17988,0.0226 -23.49928,0 a 24.315007,23.292189 0 0 0 0,4.75862 c 1.06412,-0.0225 2.1439,-0.0225 3.18449,-0.0251 1.17914,0 2.3949,0 3.58711,-0.0325 a 1.9033683,1.8233025 0 0 1 1.44322,0.43078 1.9138263,1.8333207 0 0 1 0.49415,1.37499 c -0.0236,3.31601 -0.0209,6.68962 -0.0184,9.95303 q 0,1.653 0,3.31099 v 0 3.18327 c 0,3.34105 0,6.7948 0,10.19346 z"
     id="path279"
     style="fill:#071456;stroke-width:0.255893" />
  <path
     class="cls-9"
     d="m 206.82716,166.72894 a 7.3206469,7.0127021 0 0 1 0.87849,3.34606 c 0.0157,1.78322 0.0209,3.59651 0.0261,5.34718 0,1.85586 0,3.77434 0.0313,5.66025 0.0157,1.78323 0.24054,3.11564 0.72684,4.32033 0.97259,2.39434 2.87596,3.71422 5.33099,3.71674 h 0.0261 c 3.98452,0 6.68009,-0.94172 8.74033,-3.05555 l 0.8105,-0.82899 0.66147,0.9417 c 0.59088,0.829 1.11379,1.55281 1.89815,1.91597 1.21574,0.59357 2.42103,1.11953 2.97008,0.94672 0.46277,-0.14526 0.95953,-0.94171 1.60793,-2.17895 a 4.5780191,4.3854432 0 0 0 0.17779,-0.40825 l 0.0235,-0.0626 c -1.2079,-1.3274 -1.30725,-2.89274 -1.30725,-4.38795 0.0131,-2.27161 0,-4.50817 0,-6.88998 v -1.40755 a 15.637426,14.979632 0 0 1 -6.15981,1.58537 c 0,1.03938 0,2.08628 0,3.10313 v 1.25226 c 0,2.50454 -0.65101,3.35859 -3.16356,4.12497 -1.55302,0.47335 -3.12173,0.273 -4.30611,-0.551 a 4.6669126,4.4705975 0 0 1 -1.84585,-3.67916 c -0.0131,-3.34607 0,-6.74221 0,-10.08827 a 7.2239103,6.920034 0 0 0 -0.217,-1.80577 c -0.26146,-1.00182 -0.86018,-1.58037 -1.79095,-1.75318 a 6.9258554,6.6345169 0 0 0 -5.11923,0.83652 z"
     id="path281"
     style="fill:#071456;stroke-width:0.255893" />
  <path
     class="cls-9"
     d="m 323.32481,187.39888 a 0.92030994,0.88159678 0 0 0 0.35034,0.20036 22.435169,21.491427 0 0 0 9.06192,1.78824 h 0.0575 a 11.747024,11.252882 0 0 0 3.30475,-0.40574 c 3.20279,-0.78892 5.32839,-2.8727 5.68919,-5.57008 0.42356,-3.1983 -0.93339,-5.63271 -4.03681,-7.23311 a 21.300469,20.404458 0 0 0 -2.93872,-1.16711 l -0.5229,-0.17532 c -0.22223,-0.0776 -0.4497,-0.15027 -0.67716,-0.22291 a 10.944368,10.48399 0 0 1 -2.27724,-0.92667 c -0.98829,-0.57354 -1.44845,-1.4376 -1.30726,-2.4294 0.14118,-0.9918 0.86017,-1.69808 1.98965,-1.96606 a 4.4995836,4.3103072 0 0 1 1.20529,-0.10769 c 2.54654,0.0525 4.8447,0.91415 6.55982,1.65549 l 0.1255,0.0475 c 0.0183,-0.02 0.0418,-0.0475 0.0706,-0.0851 a 7.2552844,6.9500883 0 0 0 1.3883,-3.63909 c 0,-0.0175 0,-0.0351 0,-0.0526 -4.73488,-1.75317 -8.44488,-2.14138 -12.02677,-1.25226 -2.90996,0.71629 -4.9885,2.88272 -5.29963,5.50998 -0.38956,3.32602 0.73207,5.33216 3.87733,6.92505 a 24.053556,23.041735 0 0 0 2.94917,1.17211 c 0.58304,0.20788 1.187,0.42076 1.77788,0.6587 a 9.3599704,8.9662404 0 0 1 1.49027,0.70878 c 0.98306,0.6086 1.4589,1.53027 1.30726,2.52457 -0.15164,0.99431 -0.83141,1.66301 -2.01841,2.02116 a 6.7193084,6.436658 0 0 1 -3.2054,0.13524 16.821801,16.114187 0 0 1 -5.27086,-1.68805 1.1503874,1.1019961 0 0 0 -0.14903,-0.0676 1.7229667,1.6504894 0 0 0 -0.11242,0.16279 11.765326,11.270414 0 0 0 -1.30726,3.07056 c -0.0811,0.30806 -0.0497,0.40073 -0.0471,0.40073 z"
     id="path283"
     style="fill:#071456;stroke-width:0.255893" />
  <path
     class="cls-8"
     d="m 206.97358,151.32854 c 1.00135,0 1.97134,0.0175 2.92303,0.0501 0.12027,0 0.20916,0 0.26145,0 a 2.2223393,2.1288559 0 0 0 0,-0.25045 c -0.034,-3.32853 -0.0419,-6.71466 -0.0497,-9.98809 0,-2.89524 0,-5.89067 -0.0392,-8.83601 0,-0.47586 0.0523,-1.07695 0.52291,-1.50272 0.5229,-0.46835 1.26803,-0.41074 1.66544,-0.38069 a 21.360603,20.462062 0 0 0 4.9336,-0.0676 c 1.11377,-0.16781 1.61577,-0.64116 1.85368,-1.75317 a 6.8683358,6.5794175 0 0 0 -0.034,-2.02617 c -0.0313,-0.25046 -0.0627,-0.51844 -0.0863,-0.78893 0,-0.015 0,-0.0275 0,-0.0401 h -0.1621 c -2.88904,0.0251 -5.82252,0.0226 -8.66189,0.02 h -5.80684 c -2.95179,0 -6.01339,0 -9.00963,0 h -0.10458 a 22.586811,21.63669 0 0 0 0,4.73608 c 0.74253,0 1.49028,0 2.21449,0 1.38047,0 2.808,0.0176 4.18323,-0.0726 0.58304,-0.0376 1.24713,-0.0175 1.72559,0.41325 0.47845,0.43078 0.5229,1.01934 0.5229,1.6004 -0.0209,3.18577 -0.0209,6.42664 -0.0235,9.55981 0,3.0355 0,6.17619 -0.0183,9.26679 0,0.0451 0,0.0827 0,0.1152 h 0.10196 c 1.08764,-0.0375 2.10208,-0.0551 3.08775,-0.0551 z m -11.76533,-20.65241 z"
     id="path285"
     style="fill:#ff6600;stroke-width:0.255893" />
  <path
     class="cls-9"
     d="m 311.39216,170.81383 q 0,2.14139 0,4.28276 c 0,3.41869 0,6.9551 0,10.4339 0,2.89524 1.45889,3.24338 1.93735,3.35608 1.83016,0.43829 3.57927,0.16029 5.32054,-0.85405 -0.84449,-1.40003 -1.23666,-3.02548 -1.23143,-5.09423 0.0183,-6.58442 0.0287,-13.5846 0.0313,-22.02239 0,-0.20286 0,-0.40573 0,-0.60859 a 12.060766,11.553427 0 0 0 -0.19608,-2.77253 c -0.27453,-1.12954 -0.80266,-1.6029 -2.01841,-1.81328 a 10.594022,10.148382 0 0 0 -2.03671,-0.0877 c -0.5229,0 -1.07457,0.015 -1.63146,-0.0251 a 1.8301618,1.7531755 0 0 0 -0.18824,0 2.0916135,2.0036291 0 0 0 -0.0131,0.28301 c 0.0287,3.71924 0.0235,7.49858 0.0209,11.1527 q 0,1.89092 0,3.77685 z"
     id="path287"
     style="fill:#071456;stroke-width:0.255893" />
  <polygon
     class="cls-6"
     points="237.78,282.25 229.34,282.24 227.6,306.82 239.05,306.82 "
     id="polygon289"
     style="fill:#d8d8e6"
     transform="matrix(0.26145169,0,0,0.25045364,184.90966,125.11606)" />
  <polygon
     class="cls-6"
     points="336.35,282.25 327.91,282.24 326.17,306.82 337.62,306.82 "
     id="polygon291"
     style="fill:#d8d8e6"
     transform="matrix(0.26145169,0,0,0.25045364,184.90966,125.11606)" />
  <polygon
     class="cls-6"
     points="239.64,316.5 239.4,311.84 227.49,311.84 227.16,316.5 "
     id="polygon295"
     style="fill:#d8d8e6"
     transform="matrix(0.26145169,0,0,0.25045364,184.90966,125.11606)" />
  <polygon
     class="cls-6"
     points="338.2,316.5 337.96,311.84 326.06,311.84 325.73,316.5 "
     id="polygon297"
     style="fill:#d8d8e6"
     transform="matrix(0.26145169,0,0,0.25045364,184.90966,125.11606)" />
</svg>
