<?xml version="1.0" encoding="UTF-8" standalone="no"?>
<svg
   xmlns:dc="http://purl.org/dc/elements/1.1/"
   xmlns:cc="http://creativecommons.org/ns#"
   xmlns:rdf="http://www.w3.org/1999/02/22-rdf-syntax-ns#"
   xmlns:svg="http://www.w3.org/2000/svg"
   xmlns="http://www.w3.org/2000/svg"
   xmlns:sodipodi="http://sodipodi.sourceforge.net/DTD/sodipodi-0.dtd"
   xmlns:inkscape="http://www.inkscape.org/namespaces/inkscape"
   width="560px"
   height="454px"
   viewBox="0 0 560 454"
   version="1.1"
   id="svg1243"
   sodipodi:docname="website.svg"
   inkscape:version="1.0.2 (e86c870879, 2021-01-15)">
  <metadata
     id="metadata1249">
    <rdf:RDF>
      <cc:Work
         rdf:about="">
        <dc:format>image/svg+xml</dc:format>
        <dc:type
           rdf:resource="http://purl.org/dc/dcmitype/StillImage" />
        <dc:title>1</dc:title>
      </cc:Work>
    </rdf:RDF>
  </metadata>
  <defs
     id="defs1247">
    <linearGradient
       id="a7d70b19-b507-4394-a133-55f51a2376ed"
       x1="323.00662"
       y1="814.32904"
       x2="323.00662"
       y2="813.88037"
       gradientTransform="matrix(-0.45881816,0,0,0.48442001,296.46104,9.9770763)"
       gradientUnits="userSpaceOnUse">
      <stop
         offset="0"
         stop-color="gray"
         stop-opacity="0.25"
         id="stop2119" />
      <stop
         offset="0.53514"
         stop-color="gray"
         stop-opacity="0.12"
         id="stop2121" />
      <stop
         offset="1"
         stop-color="gray"
         stop-opacity="0.1"
         id="stop2123" />
    </linearGradient>
  </defs>
  <sodipodi:namedview
     pagecolor="#ffffff"
     bordercolor="#666666"
     borderopacity="1"
     objecttolerance="10"
     gridtolerance="10"
     guidetolerance="10"
     inkscape:pageopacity="0"
     inkscape:pageshadow="2"
     inkscape:window-width="1920"
     inkscape:window-height="1017"
     id="namedview1245"
     showgrid="false"
     inkscape:zoom="0.65786185"
     inkscape:cx="221.75204"
     inkscape:cy="338.91098"
     inkscape:window-x="-8"
     inkscape:window-y="-8"
     inkscape:window-maximized="1"
     inkscape:current-layer="svg1243" />
  <!-- Generator: Sketch 61.2 (89653) - https://sketch.com -->
  <title
     id="title1146">1</title>
  <desc
     id="desc1148">Created with Sketch.</desc>
  <path
     d="m 185.7958,403.40343 c 3.55773,-7.65826 7.11275,-15.43006 8.65677,-23.7278 1.54401,-8.29773 0.89596,-17.30314 -3.52613,-24.50025 -4.42208,-7.19712 -13.12912,-12.07754 -21.43833,-10.45059 -6.82463,1.33626 -12.30451,6.69304 -15.51319,12.84272 -3.20869,6.14967 -4.49605,13.08591 -5.74402,19.90482 -0.40327,-7.74675 -0.83036,-15.61818 -3.41257,-22.93605 -2.58222,-7.31787 -7.66682,-14.13741 -14.91335,-16.96913 -7.24654,-2.83171 -16.67334,-0.60491 -20.49267,6.15421 -5.38081,9.52247 1.75396,22.87959 -4.43325,31.90249 -1.0613,-9.0507 -10.558326,-16.20145 -19.584404,-14.74595 -9.026076,1.45549 -15.775782,11.22606 -13.918994,20.1485 1.104841,5.30911 4.739581,9.82485 9.085124,13.08733 4.34554,3.26249 9.399591,7.04368 14.399215,9.1821 z"
     fill="#f2f2f2"
     id="path3169"
     style="stroke-width:0.760776" />
  <path
     d="m 76.21471,367.27239 c 7.16979,2.49756 14.405502,5.02338 20.951163,8.92811 5.866457,3.49957 11.090477,8.21138 14.389737,14.24546 a 25.41944,25.332826 0 0 1 3.14419,10.52532 c 0.0476,0.77283 1.26092,0.77823 1.21295,0 -0.42418,-6.88164 -3.78933,-13.17923 -8.44912,-18.1597 -5.10896,-5.46053 -11.729544,-9.19 -18.564991,-12.08363 -4.052875,-1.71566 -8.206472,-3.17382 -12.361465,-4.62118 -0.738352,-0.25721 -1.055779,0.91017 -0.322442,1.16562 z"
     fill="#ffffff"
     id="path3171"
     style="stroke-width:0.760776" />
  <path
     d="m 117.57068,338.76693 a 109.26826,108.89594 0 0 1 10.50987,23.25186 110.58983,110.21301 0 0 1 4.84756,25.03884 109.20949,108.83737 0 0 1 0.11546,14.30618 c -0.045,0.77715 1.1681,0.77458 1.21295,0 a 110.6488,110.27178 0 0 0 -1.55488,-25.68593 111.969,111.58748 0 0 0 -7.44471,-24.63765 109.16725,108.79528 0 0 0 -6.63891,-12.88341 0.6069242,0.60485616 0 0 0 -1.04734,0.61011 z"
     fill="#ffffff"
     id="path3173"
     style="stroke-width:0.760776" />
  <path
     d="m 176.93674,345.71051 a 176.83463,176.23209 0 0 0 -13.04404,43.72961 q -1.02289,6.35293 -1.58352,12.76821 c -0.0678,0.77484 1.14553,0.77031 1.21294,0 a 176.19876,175.59838 0 0 1 9.70722,-44.06894 q 2.15958,-5.99388 4.75475,-11.81877 c 0.31397,-0.70473 -0.73083,-1.32045 -1.04735,-0.61011 z"
     fill="#ffffff"
     id="path3175"
     style="stroke-width:0.760776" />
  <rect
     x="417.38379"
     y="-386.57584"
     width="7.5054355"
     height="35.503716"
     transform="matrix(0.01298164,0.99991573,-0.99991688,0.01289334,0,0)"
     fill="#e6e6e6"
     id="rect3177"
     style="stroke-width:0.760776" />
  <path
     d="M 549.44818,404.05528 H 25.140538 a 0.76207671,0.75948 0 0 1 0,-1.51896 H 549.44818 a 0.76207671,0.75948 0 0 1 0,1.51896 z"
     fill="#3f3d56"
     id="path3183"
     style="stroke-width:0.760776" />
  <ellipse
     cx="436.26953"
     cy="234.69162"
     fill="#2f2e41"
     id="circle3185"
     rx="25.148478"
     ry="25.062786"
     style="stroke-width:0.760776" />
  <polygon
     points="553.859,383.226 556.401,395.219 603.871,391.124 600.12,373.423 "
     fill="#ffb8b8"
     id="polygon3187"
     transform="matrix(0.76207506,0,0,0.75947836,24.378463,84.338295)" />
  <path
     d="m 443.64592,403.85814 -6.08726,-28.62753 11.09846,-2.34388 3.73536,17.56691 a 11.344897,11.30624 0 0 1 -8.74654,13.4045 v 0 z"
     fill="#2f2e41"
     id="path3189"
     style="stroke-width:0.760776" />
  <polygon
     points="524.12,382.586 518.777,393.621 473.673,378.264 481.559,361.979 "
     fill="#ffb8b8"
     id="polygon3191"
     transform="matrix(0.76207506,0,0,0.75947836,24.378463,84.338295)" />
  <path
     d="m 414.41486,388.11125 7.8522,-16.16221 10.21099,4.92713 -12.79617,26.33839 v 0 a 11.344897,11.30624 0 0 1 -5.26702,-15.10331 z"
     fill="#2f2e41"
     id="path3193"
     style="stroke-width:0.760776" />
  <path
     d="m 356.07868,358.35294 a 8.186759,8.1588634 0 0 0 9.68507,-7.95946 l 56.67848,-52.07827 -14.07553,-10.86471 -51.31618,54.63947 a 8.2311041,8.2030575 0 0 0 -0.97185,16.26297 z"
     fill="#ffb8b8"
     id="path3195"
     style="stroke-width:0.760776" />
  <ellipse
     cx="433.11322"
     cy="242.23259"
     fill="#ffb8b8"
     id="circle3197"
     rx="18.717348"
     ry="18.65357"
     style="stroke-width:0.760776" />
  <path
     d="m 449.9106,351.88193 c -13.12942,3.7e-4 -28.94209,-2.75571 -38.69708,-14.03288 l -0.21973,-0.25403 0.22606,-0.2492 c 0.0737,-0.0812 7.25013,-8.25451 0.0845,-22.83068 l -9.85188,3.02079 -9.80821,-12.9026 5.43332,-16.2446 22.23544,-17.85072 a 20.386072,20.316608 0 0 1 11.13437,-4.39666 61.126483,60.9182 0 0 0 21.174,-6.00982 21.266467,21.194003 0 0 1 9.75441,-2.12528 l 0.43723,0.0122 a 7.5828145,7.5569768 0 0 1 7.34688,8.13213 c -1.50778,19.46534 -4.17039,66.48736 3.65148,82.67782 l 0.20206,0.41831 -0.45137,0.11421 a 103.72848,103.37503 0 0 1 -22.65145,2.52097 z"
     fill="#6c63ff"
     id="path3199"
     style="stroke-width:0.760776" />
  <path
     d="m 413.78832,337.60092 c 0,0 -49.53488,-4.55687 -54.86941,9.87322 -5.33452,14.43009 0.76208,21.26539 9.90698,24.3033 9.1449,3.03792 31.24507,6.83531 31.24507,6.83531 l 9.90698,-12.15165 25.91055,1.51895 c 0,0 28.87108,16.68817 36.85376,34.53635 a 23.4429,23.36302 0 0 0 19.64436,13.85186 c 6.39991,0.44389 12.08864,-1.96508 12.08864,-11.93323 0,-22.78435 -32.00716,-55.44192 -32.00716,-55.44192 z"
     fill="#2f2e41"
     id="path3201"
     style="stroke-width:0.760776" />
  <path
     d="m 376.0656,360.00553 c 0,0 12.95528,-3.79739 33.5313,6.07583"
     fill="#2f2e41"
     id="path3203"
     style="stroke-width:0.760776" />
  <path
     d="m 414.44114,230.33667 a 55.662839,55.473173 0 0 0 24.08095,7.90761 l -2.53835,-3.03108 a 18.653692,18.590132 0 0 0 5.76213,1.1403 6.3104845,6.2889821 0 0 0 5.14366,-2.39932 5.8697231,5.8497226 0 0 0 0.39289,-5.40369 11.11754,11.079658 0 0 0 -3.49744,-4.35827 20.82207,20.751121 0 0 0 -19.38007,-3.45177 12.444488,12.402084 0 0 0 -5.78828,3.70033 7.0383576,7.0143751 0 0 0 -1.41941,6.50178"
     fill="#2f2e41"
     id="path3205"
     style="stroke-width:0.760776" />
  <path
     d="m 436.13456,215.42704 a 57.524992,57.328981 0 0 1 14.58374,-20.14241 c 4.03291,-3.57164 8.74288,-6.64018 14.05744,-7.56646 5.31456,-0.92627 11.30393,0.66061 14.56367,4.94509 2.66553,3.50347 3.16424,8.19687 2.87053,12.5838 -0.29371,4.38693 -1.27749,8.73135 -1.18328,13.12703 a 27.029233,26.937133 0 0 0 38.50546,23.81041 c -4.58885,2.52819 -8.16487,6.52982 -12.42548,9.57559 -4.26061,3.04578 -9.87857,5.13415 -14.71745,3.12155 -5.11971,-2.12941 -7.46805,-7.91328 -9.30194,-13.13126 l -8.1784,-23.27006 c -1.39028,-3.95576 -2.8494,-8.02887 -5.6866,-11.12286 -2.83721,-3.094 -7.44137,-4.97975 -11.34674,-3.42427 -2.9599,1.1789 -4.887,3.993 -6.57693,6.68645 -1.68993,2.69345 -3.47278,5.55926 -6.32796,6.97151 -2.85518,1.41226 -7.08606,0.5428 -8.01925,-2.49466"
     fill="#2f2e41"
     id="path3207"
     style="stroke-width:0.760776" />
  <rect
     x="60.463333"
     y="540.97363"
     width="7.5179405"
     height="35.444866"
     transform="matrix(0.69912036,-0.715004,0.71738528,0.69667665,0,0)"
     fill="#e6e6e6"
     id="rect3209"
     style="stroke-width:0.760778" />
  <path
     d="m 456.10164,353.41315 a 7.5310925,7.505431 0 1 0 10.64969,-0.13732 7.5311153,7.5054538 0 0 0 -10.64969,0.13732 z m 7.70534,7.48291 a 3.2276089,3.2166111 0 1 1 -0.0591,-4.5486 3.2276927,3.2166947 0 0 1 0.0591,4.5486 z"
     fill="#e6e6e6"
     id="path3211"
     style="stroke-width:0.760776" />
  <path
     d="m 427.88167,318.20332 3.57442,3.58306 -1.73771,6.14874 -6.33566,1.53988 -3.32112,-3.32907 a 9.1440701,9.1129125 0 1 0 7.82009,-7.94263 z"
     fill="#e6e6e6"
     id="path3213"
     style="stroke-width:0.760776" />
  <path
     d="m 442.55648,351.9472 a 8.8240671,8.794 0 0 1 -0.96655,-0.0534 8.4006658,8.3720414 0 0 1 -7.37702,-7.35263 8.3853939,8.3568214 0 0 1 8.33036,-9.30361 8.096918,8.0693285 0 0 1 1.11725,0.0831 l 25.58941,-27.14767 -2.67117,-8.87417 13.41633,-5.9935 3.75995,9.15935 a 15.614705,15.561499 0 0 1 -4.70752,17.97865 l -28.1672,22.32933 a 7.8180137,7.7913746 0 0 1 0.0458,0.81918 8.3967259,8.3681149 0 0 1 -2.7921,6.22528 8.2851734,8.2569424 0 0 1 -5.57751,2.13011 z"
     fill="#ffb8b8"
     id="path3215"
     style="stroke-width:0.760776" />
  <path
     d="m 462.56112,261.65308 v 0 a 7.2041623,7.1796148 0 0 1 9.62348,3.9161 l 13.23877,33.29835 -20.57603,13.67061 z"
     fill="#6c63ff"
     id="path3217"
     style="stroke-width:0.760776" />
  <path
     d="M 366.15862,269.42839 V 103.52446 A 19.279066,19.213375 0 0 0 346.90686,84.338295 H 85.309303 A 19.279074,19.213382 0 0 0 66.057537,103.52446 v 165.90393 a 19.279074,19.213382 0 0 0 19.251766,19.18617 H 346.90686 a 19.279066,19.213375 0 0 0 19.25176,-19.18617 z M 85.309303,286.35736 A 17.007557,16.949605 0 0 1 68.322454,269.42839 V 103.52446 A 17.007564,16.949613 0 0 1 85.309303,86.595487 H 346.90686 a 17.007564,16.949613 0 0 1 16.98685,16.928973 v 165.90393 a 17.007564,16.949613 0 0 1 -16.98685,16.92897 z"
     fill="#3f3d56"
     id="path3219"
     style="stroke-width:0.760776" />
  <path
     d="M 363.89371,114.18828 H 68.322454 a 1.1324437,1.128585 0 1 1 0,-2.25717 H 363.89371 a 1.1324437,1.128585 0 0 1 0,2.25717 z"
     fill="#3f3d56"
     id="path3221"
     style="stroke-width:0.760776" />
  <ellipse
     cx="87.574226"
     cy="100.13866"
     fill="#6c63ff"
     id="circle3223"
     rx="5.6622863"
     ry="5.6429925"
     style="stroke-width:0.760776" />
  <ellipse
     cx="106.826"
     cy="100.13866"
     fill="#6c63ff"
     id="circle3225"
     rx="5.6622863"
     ry="5.6429925"
     style="stroke-width:0.760776" />
  <ellipse
     cx="126.07776"
     cy="100.13866"
     fill="#6c63ff"
     id="circle3227"
     rx="5.6622863"
     ry="5.6429925"
     style="stroke-width:0.760776" />
  <ellipse
     style="fill:#ffd42a;stroke-width:0.760776"
     id="path3280"
     cx="218.15909"
     cy="193.97432"
     rx="38.857052"
     ry="39.730484" />
  <rect
     style="fill:#000080;stroke-width:0.760776"
     id="rect3282"
     width="27.250399"
     height="165.45987"
     x="70.300438"
     y="115.01627"
     rx="10.192983"
     ry="9.673172" />
</svg>
